<svg width="755" height="1221" viewBox="0 0 755 1221" fill="none" xmlns="http://www.w3.org/2000/svg">
<g style="mix-blend-mode:overlay">
<path d="M-147.316 236.715C-272.25 254.811 -356.435 370.933 -335.203 495.76C-326.21 549.149 -298.752 598.438 -257.592 635.077C-209.235 678.174 -174.213 733.829 -153.047 794.336C-90.8223 972.303 94.5145 1088.68 285.45 1059.54C494.416 1027.58 632.403 831.079 592.598 622.575C554.918 425.18 372.701 287.022 179.193 296.588C115.293 299.723 50.7304 287.948 -7.49647 259.203C-51.1771 237.625 -100.029 229.768 -147.316 236.715Z" stroke="#D61600" stroke-width="1.5" stroke-miterlimit="10"/>
</g>
<g style="mix-blend-mode:overlay">
<path d="M-132.385 254.449C-250.765 271.62 -330.55 381.645 -310.424 499.946C-301.901 550.542 -275.876 597.252 -236.864 631.97C-190.971 672.783 -157.867 725.532 -137.817 782.894C-78.852 951.524 96.8475 1061.86 277.734 1034.21C475.749 1003.92 606.51 817.717 568.786 620.107C533.082 433.063 360.415 302.134 177.019 311.205C116.513 314.202 55.3138 303.036 0.117499 275.791C-41.2735 255.331 -87.5694 247.874 -132.385 254.449V254.449Z" stroke="#D61600" stroke-width="1.5" stroke-miterlimit="10"/>
</g>
<g style="mix-blend-mode:overlay">
<path d="M-117.406 272.218C-229.25 288.452 -304.618 392.394 -285.614 504.154C-277.557 551.942 -252.979 596.059 -216.139 628.859C-172.813 667.485 -141.503 717.272 -122.559 771.447C-66.851 930.768 99.1292 1035 270.029 1008.87C457.081 980.245 580.612 804.322 544.971 617.636C511.294 440.981 348.128 317.242 174.872 325.815C117.698 328.651 59.8748 318.078 7.7254 292.347C-31.3678 273.04 -75.0863 266.007 -117.406 272.218V272.218Z" stroke="#D61600" stroke-width="1.5" stroke-miterlimit="10"/>
</g>
<g style="mix-blend-mode:overlay">
<path d="M-102.503 289.953C-207.802 305.205 -278.766 403.079 -260.856 508.297C-253.28 553.298 -230.138 594.843 -195.445 625.725C-154.652 662.088 -125.173 708.961 -107.333 759.975C-54.8969 909.975 101.393 1008.1 262.292 983.505C438.464 956.614 554.731 790.943 521.175 615.181C489.447 448.777 335.88 332.305 172.678 340.389C118.853 343.077 64.3928 333.112 15.3193 308.892C-21.4931 290.722 -62.6567 284.105 -102.503 289.953V289.953Z" stroke="#D61600" stroke-width="1.5" stroke-miterlimit="10"/>
</g>
<g style="mix-blend-mode:overlay">
<path d="M-87.5663 307.715C-186.303 321.998 -252.875 413.821 -236.088 512.498C-229.002 554.719 -207.311 593.707 -174.779 622.697C-136.519 656.796 -108.872 700.755 -92.1505 748.597C-42.9587 889.272 103.599 981.313 254.515 958.26C419.737 932.923 528.823 777.568 497.352 612.729C467.576 456.707 323.529 347.467 170.555 355.044C120.071 357.526 68.9942 348.212 23.0169 325.545C-11.5216 308.451 -50.163 302.221 -87.5663 307.715V307.715Z" stroke="#D61600" stroke-width="1.5" stroke-miterlimit="10"/>
</g>
<g style="mix-blend-mode:overlay">
<path d="M-72.6076 325.443C-104.556 330.084 -134.19 343.636 -158.091 364.536C-181.992 385.436 -199.188 412.833 -207.696 443.569C-216.205 474.305 -215.679 507.128 -206.18 538.255C-196.681 569.381 -178.595 597.544 -154.007 619.495C-118.294 651.347 -92.4779 692.392 -76.8717 737.09C-30.9612 868.488 105.902 954.394 246.814 932.846C401.057 909.268 502.916 764.219 473.529 610.303C445.726 464.604 311.217 362.607 168.367 369.675C121.166 371.956 73.547 363.299 30.5636 342.079C-1.66763 326.157 -37.7105 320.346 -72.6076 325.443V325.443Z" stroke="#D61600" stroke-width="1.5" stroke-miterlimit="10"/>
</g>
<g style="mix-blend-mode:overlay">
<path d="M-57.6718 343.204C-87.357 347.51 -114.892 360.098 -137.1 379.514C-159.308 398.931 -175.286 424.386 -183.189 452.944C-191.093 481.501 -190.601 511.998 -181.771 540.917C-172.94 569.835 -156.13 595.998 -133.28 616.387C-100.1 645.975 -76.1152 684.106 -61.6033 725.6C-40.346 785.741 1.67294 837.153 56.8387 870.519C112.004 903.884 176.667 916.996 239.107 907.477C382.416 885.567 477.045 750.795 449.725 607.79C423.883 472.428 298.928 377.689 166.219 384.259C122.444 386.428 78.1393 378.341 38.2653 358.555C8.28704 343.77 -25.2345 338.406 -57.6718 343.204V343.204Z" stroke="#D61600" stroke-width="1.5" stroke-miterlimit="10"/>
</g>
<g style="mix-blend-mode:overlay">
<path d="M-42.7267 360.946C-70.1415 364.928 -95.5695 376.556 -116.079 394.489C-136.588 412.423 -151.344 435.932 -158.645 462.306C-165.945 488.68 -165.494 516.845 -157.342 543.554C-149.191 570.263 -133.671 594.428 -112.572 613.263C-81.9259 640.588 -59.772 675.804 -46.363 714.139C-26.73 769.688 12.0803 817.174 63.0339 847.991C113.988 878.808 173.713 890.916 231.384 882.121C363.747 861.895 451.149 737.429 425.943 605.344C402.095 480.346 286.656 392.81 164.072 398.869C123.628 400.877 82.7162 393.395 45.8267 375.202C18.1656 361.524 -12.777 356.543 -42.7267 360.946V360.946Z" stroke="#D61600" stroke-width="1.5" stroke-miterlimit="10"/>
</g>
</svg>
