<svg width="743" height="1044" viewBox="0 0 743 1044" fill="none" xmlns="http://www.w3.org/2000/svg">
<g style="mix-blend-mode:overlay">
<path d="M140.316 548.472C88.0686 663.39 140.328 796.958 256.851 846.508C306.641 867.775 362.952 871.287 416.018 856.435C478.407 839.014 544.161 839.6 606.515 854.466C789.9 898.217 987.945 805.094 1066.54 628.659C1152.51 435.537 1061.66 213.274 864.683 134.161C678.203 59.2606 463.514 137.996 367.052 306.019C335.178 361.49 290.398 409.467 234.758 442.946C193.006 468.053 160.008 504.923 140.316 548.472Z" stroke="#D61600" stroke-width="1.5" stroke-miterlimit="10"/>
</g>
<g style="mix-blend-mode:overlay">
<path d="M163.305 545.484C113.819 654.387 163.325 780.959 273.757 827.915C320.942 848.069 374.309 851.394 424.598 837.313C483.733 820.732 546.006 821.361 605.112 835.468C778.877 876.92 966.635 788.646 1041.06 621.477C1122.51 438.464 1036.43 227.849 849.745 152.869C673.044 81.8949 469.597 156.497 378.179 315.743C348.022 368.284 305.571 413.758 252.831 445.497C213.256 469.281 181.976 504.216 163.305 545.484V545.484Z" stroke="#D61600" stroke-width="1.5" stroke-miterlimit="10"/>
</g>
<g style="mix-blend-mode:overlay">
<path d="M186.349 542.475C139.605 645.371 186.376 764.94 290.698 809.308C335.268 828.337 385.672 831.479 433.174 818.191C489.082 802.589 547.893 803.128 603.718 816.445C767.891 855.61 945.262 772.218 1015.57 614.274C1092.51 441.39 1011.17 242.411 834.803 171.577C667.941 104.509 475.676 174.998 389.316 325.441C360.823 375.09 320.694 418.044 270.873 448.036C233.51 470.509 203.979 503.504 186.349 542.475V542.475Z" stroke="#D61600" stroke-width="1.5" stroke-miterlimit="10"/>
</g>
<g style="mix-blend-mode:overlay">
<path d="M209.324 539.511C165.289 636.369 209.333 748.954 307.557 790.708C349.521 808.637 396.985 811.599 441.713 799.082C494.348 784.389 549.718 784.896 602.288 797.434C756.848 834.319 923.846 755.785 990.044 607.085C1062.56 444.295 985.93 256.966 819.884 190.278C662.702 127.106 481.738 193.442 400.396 335.159C373.587 381.91 335.787 422.361 288.899 450.581C253.725 471.748 225.923 502.818 209.324 539.511V539.511Z" stroke="#D61600" stroke-width="1.5" stroke-miterlimit="10"/>
</g>
<g style="mix-blend-mode:overlay">
<path d="M232.34 536.534C191.033 627.345 232.356 732.965 324.469 772.133C363.83 788.973 408.357 791.775 450.326 780.053C499.688 766.271 551.616 766.745 600.911 778.511C745.872 813.09 902.49 739.458 964.598 599.996C1032.51 447.26 960.68 271.546 804.953 209.003C657.564 149.796 487.827 212.025 411.584 344.861C386.406 388.689 350.98 426.644 307.072 453.097C274.032 472.932 247.918 502.088 232.34 536.534V536.534Z" stroke="#D61600" stroke-width="1.5" stroke-miterlimit="10"/>
</g>
<g style="mix-blend-mode:overlay">
<path d="M255.339 533.519C241.99 562.914 237.39 595.173 242.07 626.576C246.751 657.979 260.521 687.249 281.793 711.01C303.065 734.771 330.973 752.056 362.3 760.873C393.627 769.69 427.096 769.679 458.85 760.843C504.945 747.989 553.432 748.431 599.479 759.438C734.86 791.767 881.078 722.98 939.05 592.751C1002.51 450.205 935.453 286.139 790.045 227.742C652.408 172.449 493.92 230.564 422.715 354.604C399.141 395.561 366.137 430.961 325.062 455.675C294.255 474.202 269.897 501.397 255.339 533.519V533.519Z" stroke="#D61600" stroke-width="1.5" stroke-miterlimit="10"/>
</g>
<g style="mix-blend-mode:overlay">
<path d="M278.354 530.542C265.945 557.851 261.667 587.823 266.013 617C270.36 646.178 283.154 673.372 302.919 695.448C322.684 717.524 348.616 733.581 377.723 741.768C406.831 749.955 437.928 749.938 467.429 741.72C510.251 729.776 555.296 730.185 598.056 740.382C660.151 754.974 726.114 747.379 783.989 718.972C841.865 690.565 887.824 643.226 913.537 585.535C972.498 453.093 910.182 300.663 775.074 246.418C647.196 195.058 499.976 249.052 433.828 364.289C412.011 402.302 381.276 435.22 343.089 458.092C314.454 475.336 291.835 500.651 278.354 530.542V530.542Z" stroke="#D61600" stroke-width="1.5" stroke-miterlimit="10"/>
</g>
<g style="mix-blend-mode:overlay">
<path d="M301.357 527.547C289.902 552.77 285.954 580.45 289.97 607.397C293.986 634.343 305.801 659.459 324.055 679.848C342.308 700.237 366.255 715.068 393.136 722.633C420.017 730.198 448.737 730.188 475.984 722.604C515.533 711.571 557.136 711.947 596.641 721.366C653.995 734.845 714.921 727.829 768.376 701.591C821.832 675.352 864.28 631.627 888.026 578.34C942.492 456.019 884.947 315.238 760.171 265.113C642.092 217.672 506.073 267.547 444.964 373.987C424.811 409.109 396.418 439.499 361.183 460.72C334.732 476.612 313.827 499.963 301.357 527.547V527.547Z" stroke="#D61600" stroke-width="1.5" stroke-miterlimit="10"/>
</g>
</svg>
