<svg width="601" height="787" viewBox="0 0 601 787" fill="none" xmlns="http://www.w3.org/2000/svg">
<g style="mix-blend-mode:overlay">
<path d="M934.868 480.23C1010.58 387.24 994.767 251.917 899.651 178.297C859.032 146.753 808.14 129.949 755.802 130.801C694.279 131.765 634.005 115.374 580.298 86.6818C422.352 2.26883 217.935 40.0819 103.184 183.241C-22.3684 339.954 7.51922 566.075 169.427 686.255C322.707 800.034 538.946 779.454 668.087 648.331C710.747 605.048 763.458 571.763 822.652 554.418C867.067 541.416 906.275 515.495 934.868 480.23Z" stroke="#D61600" stroke-width="1.5" stroke-miterlimit="10"/>
</g>
<g style="mix-blend-mode:overlay">
<path d="M913.025 477.433C984.75 389.304 969.78 261.073 879.636 191.305C841.141 161.411 792.909 145.489 743.308 146.302C684.977 147.279 627.913 131.687 577.007 104.475C427.345 24.494 233.55 60.3321 124.863 195.984C5.90214 344.499 34.2151 558.767 187.663 672.668C332.904 780.482 537.818 760.988 660.208 636.714C700.583 595.71 750.551 564.163 806.662 547.717C848.757 535.405 885.921 510.848 913.025 477.433V477.433Z" stroke="#D61600" stroke-width="1.5" stroke-miterlimit="10"/>
</g>
<g style="mix-blend-mode:overlay">
<path d="M891.127 474.642C958.883 391.371 944.738 270.234 859.584 204.317C823.221 176.087 777.667 161.047 730.819 161.804C675.689 162.66 621.783 147.984 573.701 122.29C432.302 46.7232 249.227 80.579 146.547 208.747C34.1762 349.044 60.9357 551.478 205.902 659.082C343.045 760.934 536.694 742.524 652.313 625.118C690.463 586.37 737.69 556.579 790.696 541.034C830.444 529.394 865.532 506.198 891.127 474.642V474.642Z" stroke="#D61600" stroke-width="1.5" stroke-miterlimit="10"/>
</g>
<g style="mix-blend-mode:overlay">
<path d="M869.303 471.826C933.115 393.45 919.792 279.387 839.61 217.341C805.375 190.75 762.48 176.585 718.366 177.303C666.462 178.112 615.71 164.296 570.432 140.102C437.315 68.9474 264.942 100.841 168.267 221.507C62.3877 353.594 87.6334 544.189 224.118 645.496C353.306 741.435 535.571 724.116 644.475 613.518C680.379 577.026 724.863 548.973 774.748 534.349C812.17 523.381 845.205 501.537 869.303 471.826V471.826Z" stroke="#D61600" stroke-width="1.5" stroke-miterlimit="10"/>
</g>
<g style="mix-blend-mode:overlay">
<path d="M847.438 469.012C907.285 395.533 894.783 288.526 819.592 230.331C787.488 205.368 747.251 192.058 705.864 192.709C657.188 193.471 609.59 180.516 567.134 157.82C442.281 91.0988 280.627 120.992 189.938 234.155C90.7154 358.116 114.348 536.881 242.351 631.891C363.498 721.827 534.456 705.574 636.536 601.906C670.236 567.707 711.936 541.375 758.657 527.657C793.797 517.398 824.82 496.905 847.438 469.012V469.012Z" stroke="#D61600" stroke-width="1.5" stroke-miterlimit="10"/>
</g>
<g style="mix-blend-mode:overlay">
<path d="M825.579 466.237C844.932 442.447 856.936 413.917 860.207 383.935C863.478 353.953 857.882 323.74 844.066 296.78C830.25 269.819 808.776 247.209 782.118 231.555C755.461 215.901 724.707 207.841 693.4 208.305C647.949 209.001 603.506 196.905 563.852 175.69C447.258 113.345 296.328 141.293 211.665 246.972C118.987 362.642 141.045 529.554 260.567 618.267C373.697 702.255 533.328 687.071 628.657 590.27C660.192 558.322 699.051 533.754 742.749 520.95C775.522 511.355 804.459 492.241 825.579 466.237V466.237Z" stroke="#D61600" stroke-width="1.5" stroke-miterlimit="10"/>
</g>
<g style="mix-blend-mode:overlay">
<path d="M803.716 463.424C821.701 441.324 832.858 414.817 835.899 386.961C838.94 359.105 833.742 331.033 820.904 305.985C808.066 280.936 788.111 259.93 763.341 245.39C738.571 230.85 709.994 223.368 680.907 223.807C638.683 224.456 597.394 213.22 560.565 193.541C507.029 165.163 444.591 156.238 384.566 168.385C324.541 180.532 270.901 212.946 233.366 259.753C147.261 367.226 167.766 522.303 278.825 604.718C383.937 682.739 532.221 668.624 620.781 578.693C649.992 549.026 686.168 526.191 726.769 514.383C757.236 505.443 784.122 487.637 803.716 463.424V463.424Z" stroke="#D61600" stroke-width="1.5" stroke-miterlimit="10"/>
</g>
<g style="mix-blend-mode:overlay">
<path d="M781.857 460.629C798.464 440.216 808.765 415.735 811.572 390.008C814.379 364.282 809.579 338.357 797.723 315.222C785.868 292.088 767.441 272.687 744.566 259.255C721.692 245.823 695.302 238.908 668.438 239.307C629.441 239.909 591.306 229.534 557.28 211.355C507.833 185.142 450.163 176.899 394.721 188.119C339.28 199.339 289.737 229.279 255.071 272.514C175.536 371.771 194.466 514.996 297.025 591.134C394.079 663.192 531.078 650.161 612.888 567.097C639.872 539.686 673.287 518.608 710.778 507.606C738.913 499.382 763.75 482.967 781.857 460.629V460.629Z" stroke="#D61600" stroke-width="1.5" stroke-miterlimit="10"/>
</g>
</svg>
