<svg width="475" height="860" viewBox="0 0 475 860" fill="none" xmlns="http://www.w3.org/2000/svg">
<g style="mix-blend-mode:overlay">
<path d="M462.478 267.973C476.666 145.772 388.334 37.4458 265.448 26.2394C212.911 21.3628 159.621 34.9042 114.82 64.5148C62.1368 99.2894 0.95911 118.364 -61.3243 123.174C-244.511 137.295 -400.465 282.773 -420.743 469.907C-442.887 674.723 -292.291 853.822 -85.9448 868.453C109.406 882.308 285.092 745.212 324.458 560.551C337.479 499.579 364.71 441.71 406.342 394.05C437.587 358.301 457.201 314.25 462.478 267.973Z" stroke="#D61600" stroke-width="1.5" stroke-miterlimit="10"/>
</g>
<g style="mix-blend-mode:overlay">
<path d="M442.041 277.604C455.461 161.806 371.772 59.1494 255.31 48.5327C205.522 43.9122 155.019 56.7487 112.565 84.8149C62.6493 117.84 4.68822 135.834 -54.3552 140.38C-227.932 153.764 -375.788 291.675 -394.962 468.969C-415.928 663.058 -273.231 832.773 -77.6678 846.64C107.439 859.77 273.929 729.862 311.233 554.85C323.536 497.109 349.353 442.255 388.814 397.075C418.433 363.203 437.031 321.46 442.041 277.604V277.604Z" stroke="#D61600" stroke-width="1.5" stroke-miterlimit="10"/>
</g>
<g style="mix-blend-mode:overlay">
<path d="M421.56 287.271C434.228 177.864 355.165 80.8886 245.144 70.8494C198.117 66.4922 150.418 78.614 110.313 105.114C63.0998 136.268 8.37671 153.313 -47.3869 157.613C-211.382 170.257 -351.058 300.539 -369.166 468.046C-388.964 651.391 -254.141 811.727 -69.387 824.827C105.427 837.268 262.77 714.511 298.008 549.175C309.629 494.613 334.044 442.791 371.317 400.103C399.276 368.107 416.83 328.685 421.56 287.271V287.271Z" stroke="#D61600" stroke-width="1.5" stroke-miterlimit="10"/>
</g>
<g style="mix-blend-mode:overlay">
<path d="M401.129 296.874C413.087 193.878 338.637 102.568 235.053 93.1344C190.772 89.0207 145.854 100.433 108.092 125.39C63.6442 154.723 12.1238 170.772 -40.3881 174.824C-194.784 186.715 -326.286 309.396 -343.339 467.101C-362.051 639.763 -235.068 790.694 -61.1248 803.026C103.546 814.741 251.644 699.209 284.829 543.465C295.753 492.094 318.754 443.288 353.835 403.119C380.153 372.987 396.676 335.869 401.129 296.874V296.874Z" stroke="#D61600" stroke-width="1.5" stroke-miterlimit="10"/>
</g>
<g style="mix-blend-mode:overlay">
<path d="M380.664 306.504C391.894 209.93 322.047 124.27 224.904 115.414C183.363 111.533 141.217 122.217 105.778 145.613C64.095 173.126 15.7775 188.178 -33.4663 191.968C-178.269 203.136 -301.603 318.172 -317.617 466.086C-335.055 628.047 -215.993 769.635 -52.8599 781.2C101.544 792.157 240.45 683.786 271.555 537.802C281.838 489.629 303.38 443.847 336.225 406.207C360.96 377.947 376.488 343.108 380.664 306.504V306.504Z" stroke="#D61600" stroke-width="1.5" stroke-miterlimit="10"/>
</g>
<g style="mix-blend-mode:overlay">
<path d="M360.227 316.161C363.842 284.908 358.485 253.608 344.774 225.87C331.063 198.132 309.556 175.086 282.732 159.388C255.908 143.69 224.86 135.98 193.166 137.146C161.473 138.312 130.425 148.307 103.601 165.979C64.6716 191.655 19.5569 205.711 -26.4469 209.236C-161.691 219.632 -276.822 327.071 -291.753 465.186C-308.103 616.365 -196.942 748.569 -44.6194 759.367C99.5685 769.602 229.267 668.404 258.322 532.084C267.973 487.053 288.031 444.364 318.765 409.182C341.819 382.803 356.304 350.306 360.227 316.161V316.161Z" stroke="#D61600" stroke-width="1.5" stroke-miterlimit="10"/>
</g>
<g style="mix-blend-mode:overlay">
<path d="M339.763 325.79C343.128 296.752 338.155 267.67 325.418 241.897C312.681 216.125 292.698 194.712 267.775 180.128C242.852 165.544 214.003 158.383 184.557 159.472C155.11 160.56 126.264 169.853 101.347 186.279C65.1827 210.135 23.2707 223.195 -19.4416 226.491C-81.4039 231.478 -140.334 258.204 -185.553 301.825C-230.772 345.446 -259.287 403.075 -265.931 464.269C-281.119 604.732 -177.831 727.556 -36.3016 737.574C97.6588 747.072 218.133 653.058 245.122 526.414C254.022 484.639 272.715 444.929 301.32 412.317C322.741 387.776 336.173 357.543 339.763 325.79V325.79Z" stroke="#D61600" stroke-width="1.5" stroke-miterlimit="10"/>
</g>
<g style="mix-blend-mode:overlay">
<path d="M319.315 335.431C322.419 308.613 317.823 281.755 306.058 257.954C294.293 234.152 275.838 214.377 252.821 200.907C229.804 187.437 203.162 180.821 175.966 181.822C148.771 182.823 122.129 191.401 99.1133 206.566C65.714 228.601 27.0049 240.664 -12.4556 243.711C-69.6864 248.317 -124.117 273.002 -165.882 313.292C-207.647 353.583 -233.983 406.812 -240.117 463.333C-254.154 593.065 -158.767 706.506 -28.0523 715.784C95.6481 724.569 206.959 637.719 231.897 520.739C240.116 482.142 257.391 445.477 283.75 415.278C303.548 392.643 315.976 364.743 319.315 335.431V335.431Z" stroke="#D61600" stroke-width="1.5" stroke-miterlimit="10"/>
</g>
</svg>
