<svg width="830" height="1596" viewBox="0 0 830 1596" fill="none" xmlns="http://www.w3.org/2000/svg">
<g style="mix-blend-mode:overlay">
<path d="M1166.55 393.72C1122.74 239.326 962.248 152.766 808.514 200.516C742.747 220.827 685.252 263.718 646.003 321.749C599.825 389.935 535.58 443.428 462.891 480.277C249.086 588.621 133.597 841.75 202.437 1077.46C277.844 1335.42 548.682 1476.26 804.74 1391.03C1047.16 1310.35 1190.61 1057.49 1146.02 815.248C1131.32 735.251 1135.3 651.91 1161.73 573.7C1181.58 515.025 1183.26 452.142 1166.55 393.72Z" stroke="#D61600" stroke-width="1.5" stroke-miterlimit="10"/>
</g>
<g style="mix-blend-mode:overlay">
<path d="M1146.72 415.519C1105.17 269.227 953.102 187.187 807.407 232.445C745.08 251.695 690.595 292.346 653.404 347.346C609.692 412.044 548.786 462.631 479.871 497.546C277.285 600.211 167.784 840.18 233.051 1063.48C304.532 1307.92 561.166 1441.38 803.845 1360.61C1033.55 1284.16 1169.5 1044.55 1127.23 814.967C1113.28 739.223 1117.06 660.223 1142.11 586.084C1160.93 530.484 1162.54 470.888 1146.72 415.519V415.519Z" stroke="#D61600" stroke-width="1.5" stroke-miterlimit="10"/>
</g>
<g style="mix-blend-mode:overlay">
<path d="M1126.85 437.383C1087.58 299.171 943.918 221.674 806.277 264.417C747.411 282.608 695.948 321 660.81 372.94C619.422 434.035 561.946 481.864 496.863 514.847C305.46 611.844 202.017 838.538 263.691 1049.51C331.222 1280.41 573.69 1406.49 802.954 1330.19C1019.91 1258.04 1148.4 1031.61 1108.46 814.719C1095.27 743.147 1098.87 668.501 1122.52 598.456C1140.28 545.945 1141.79 489.669 1126.85 437.383V437.383Z" stroke="#D61600" stroke-width="1.5" stroke-miterlimit="10"/>
</g>
<g style="mix-blend-mode:overlay">
<path d="M1107 459.146C1070.07 329.017 934.8 256.05 805.22 296.314C749.785 313.43 701.322 349.579 668.24 398.492C629.277 456.013 575.166 501.045 513.879 532.107C333.672 623.411 236.296 836.867 294.355 1035.49C357.87 1252.98 586.198 1371.63 802.046 1299.79C1006.41 1231.82 1127.36 1018.71 1089.72 814.405C1077.28 747.028 1080.68 676.722 1102.95 610.808C1119.66 561.362 1121.07 508.376 1107 459.146V459.146Z" stroke="#D61600" stroke-width="1.5" stroke-miterlimit="10"/>
</g>
<g style="mix-blend-mode:overlay">
<path d="M1087.13 480.956C1052.53 358.933 925.618 290.483 804.091 328.232C752.076 344.262 706.593 378.153 675.531 424.026C638.995 477.974 588.249 520.207 530.771 549.325C361.769 634.973 270.428 835.141 324.86 1021.44C384.576 1225.39 598.696 1336.73 801.129 1269.35C992.736 1205.59 1106.17 1005.69 1070.9 814.194C1059.28 750.992 1062.43 685.06 1083.26 623.309C1098.99 576.91 1100.34 527.167 1087.13 480.956V480.956Z" stroke="#D61600" stroke-width="1.5" stroke-miterlimit="10"/>
</g>
<g style="mix-blend-mode:overlay">
<path d="M1067.31 502.788C1056.08 463.307 1034.02 428.244 1003.67 401.639C973.309 375.034 935.892 357.972 895.728 352.419C855.564 346.866 814.29 353.048 776.662 370.254C739.035 387.459 706.587 414.987 683.059 449.663C648.927 500.024 601.545 539.46 547.842 566.644C389.978 646.597 304.739 833.516 355.591 1007.47C411.244 1197.87 611.161 1301.84 800.18 1238.92C979.111 1179.38 1085.02 992.725 1052.09 813.898C1041.28 754.799 1044.18 693.335 1063.69 635.6C1078.34 592.305 1079.6 545.907 1067.31 502.788V502.788Z" stroke="#D61600" stroke-width="1.5" stroke-miterlimit="10"/>
</g>
<g style="mix-blend-mode:overlay">
<path d="M1047.44 524.597C1037.02 487.913 1016.52 455.331 988.321 430.61C960.118 405.889 925.353 390.036 888.036 384.878C850.719 379.721 812.37 385.47 777.413 401.461C742.455 417.453 712.313 443.036 690.462 475.261C658.756 522.049 614.738 558.687 564.889 583.953C492.676 620.855 434.954 682.452 402.185 757.582C369.416 832.712 363.768 916.403 386.264 993.488C437.976 1170.4 623.727 1266.98 799.344 1208.5C965.577 1153.17 1063.95 979.775 1033.35 813.643C1023.26 758.844 1026 701.652 1044.23 648.076C1057.82 607.812 1058.94 564.667 1047.44 524.597V524.597Z" stroke="#D61600" stroke-width="1.5" stroke-miterlimit="10"/>
</g>
<g style="mix-blend-mode:overlay">
<path d="M1027.59 546.414C1017.96 512.536 999.034 482.448 972.985 459.618C946.936 436.789 914.829 422.148 880.366 417.383C845.902 412.619 810.485 417.924 778.198 432.689C745.911 447.453 718.069 471.075 697.881 500.831C668.601 544.045 627.948 577.885 581.895 601.23C515.195 635.313 461.881 692.207 431.616 761.6C401.35 830.993 396.136 908.294 416.918 979.491C464.667 1142.89 636.215 1232.1 798.426 1178.12C951.934 1127.05 1042.83 966.853 1014.58 813.394C1005.25 762.766 1007.8 709.951 1024.52 660.404C1037.1 623.246 1038.18 583.415 1027.59 546.414V546.414Z" stroke="#D61600" stroke-width="1.5" stroke-miterlimit="10"/>
</g>
</svg>
