<svg width="522" height="1021" viewBox="0 0 522 1021" fill="none" xmlns="http://www.w3.org/2000/svg">
<g style="mix-blend-mode:overlay">
<path d="M344.484 376.994C354.838 270.872 274.227 174.991 164.673 163.031C117.835 157.844 70.6686 168.676 31.3547 193.648C-14.8771 222.974 -68.9591 238.481 -124.29 241.551C-287.029 250.558 -423.095 374.399 -437.662 536.934C-453.561 714.829 -316.231 873.435 -132.351 889.873C41.7313 905.438 195.511 789.247 227.108 629.207C237.562 576.364 260.717 526.477 296.876 485.737C324.014 455.178 340.648 417.183 344.484 376.994Z" stroke="#D61600" stroke-width="1.5" stroke-miterlimit="10"/>
</g>
<g style="mix-blend-mode:overlay">
<path d="M326.473 385.004C336.263 284.443 259.888 193.579 156.062 182.248C111.674 177.333 66.975 187.601 29.7201 211.271C-14.0814 239.125 -65.3213 253.749 -117.774 256.647C-271.975 265.184 -400.976 382.583 -414.744 536.573C-429.793 705.151 -299.668 855.447 -125.396 871.026C39.5575 885.776 185.288 775.678 215.23 623.999C225.104 573.956 247.057 526.669 281.33 488.048C307.056 459.094 322.829 423.09 326.473 385.004V385.004Z" stroke="#D61600" stroke-width="1.5" stroke-miterlimit="10"/>
</g>
<g style="mix-blend-mode:overlay">
<path d="M308.423 393.044C317.663 298.033 245.51 212.198 147.427 201.485C105.501 196.849 63.2826 206.545 28.0894 228.894C-13.3427 255.167 -61.719 269.023 -111.258 271.766C-256.947 279.831 -378.812 390.736 -391.812 536.225C-406.022 695.471 -283.076 837.461 -118.438 852.178C37.3444 866.144 175.069 762.107 203.352 618.814C212.679 571.527 233.441 526.854 265.814 490.362C290.097 463.011 304.984 429.01 308.423 393.044V393.044Z" stroke="#D61600" stroke-width="1.5" stroke-miterlimit="10"/>
</g>
<g style="mix-blend-mode:overlay">
<path d="M290.417 401.03C299.143 311.586 231.201 230.766 138.856 220.696C99.3781 216.321 59.6218 225.449 26.4848 246.497C-12.5206 271.234 -58.0657 284.28 -104.716 286.865C-241.878 294.448 -356.61 398.882 -368.853 535.858C-382.296 685.824 -266.501 819.487 -111.496 833.342C35.247 846.493 164.879 748.58 191.514 613.6C200.28 569.078 219.84 527.005 250.309 492.667C273.167 466.91 287.18 434.894 290.417 401.03V401.03Z" stroke="#D61600" stroke-width="1.5" stroke-miterlimit="10"/>
</g>
<g style="mix-blend-mode:overlay">
<path d="M272.382 409.038C280.58 325.172 216.838 249.352 130.235 239.9C93.1994 235.777 55.8963 244.322 24.7968 264.052C-11.782 287.254 -54.4957 299.491 -98.2428 301.907C-226.882 309.031 -334.488 406.957 -345.989 535.429C-358.497 676.102 -249.924 801.49 -104.552 814.483C33.0412 826.791 154.628 734.946 179.593 608.425C187.848 566.675 206.166 527.209 234.692 495.032C256.176 470.876 269.346 440.827 272.382 409.038V409.038Z" stroke="#D61600" stroke-width="1.5" stroke-miterlimit="10"/>
</g>
<g style="mix-blend-mode:overlay">
<path d="M254.372 417.07C257.008 389.929 251.66 362.586 238.945 338.195C226.229 313.803 206.663 293.355 182.504 279.209C158.344 265.063 130.573 257.794 102.394 258.241C74.2145 258.687 46.7733 266.831 23.234 281.733C-10.9289 303.386 -50.8112 314.813 -91.6803 317.057C-211.828 323.68 -312.277 415.14 -322.996 535.101C-334.737 666.409 -233.368 783.487 -97.6295 795.618C30.8604 807.114 144.387 721.347 167.708 603.202C175.458 564.176 192.514 527.375 219.207 497.301C239.231 474.751 251.516 446.723 254.372 417.07V417.07Z" stroke="#D61600" stroke-width="1.5" stroke-miterlimit="10"/>
</g>
<g style="mix-blend-mode:overlay">
<path d="M236.337 425.077C238.792 399.86 233.827 374.455 222.014 351.791C210.202 329.128 192.023 310.13 169.576 296.987C147.128 283.845 121.325 277.094 95.1434 277.513C68.9616 277.933 43.4673 285.505 21.6009 299.357C-10.1353 319.475 -47.1864 330.091 -85.1309 332.194C-140.173 335.425 -192.113 357.633 -231.539 394.793C-270.964 431.954 -295.267 481.608 -300.041 534.758C-310.946 656.759 -216.758 765.53 -90.6376 776.789C28.7381 787.46 134.191 707.782 155.852 598.022C162.995 561.817 178.891 527.585 203.738 499.71C222.343 478.731 233.733 452.653 236.337 425.077V425.077Z" stroke="#D61600" stroke-width="1.5" stroke-miterlimit="10"/>
</g>
<g style="mix-blend-mode:overlay">
<path d="M218.316 433.096C220.579 409.807 215.991 386.344 205.08 365.414C194.17 344.484 177.381 326.938 156.65 314.8C135.919 302.661 112.089 296.424 87.909 296.808C63.7288 297.192 40.1822 304.181 19.9842 316.969C-9.32541 335.551 -43.545 345.358 -78.6007 347.302C-129.44 350.285 -177.414 370.797 -213.828 405.121C-250.243 439.445 -272.687 485.308 -277.095 534.4C-287.175 647.079 -200.191 747.541 -83.708 757.961C26.5248 767.828 123.957 694.221 143.974 592.838C150.57 559.387 165.26 527.78 188.153 501.964C205.35 482.615 215.889 458.551 218.316 433.096V433.096Z" stroke="#D61600" stroke-width="1.5" stroke-miterlimit="10"/>
</g>
</svg>
