<svg width="630" height="599" viewBox="0 0 630 599" fill="none" xmlns="http://www.w3.org/2000/svg">
<g style="mix-blend-mode:overlay">
<path d="M969.555 203.434C925.74 49.0388 765.248 -37.5212 611.514 10.2289C545.747 30.5398 488.252 73.4308 449.003 131.462C402.825 199.648 338.58 253.141 265.891 289.99C52.0863 398.334 -63.4034 651.463 5.43731 887.174C80.8444 1145.13 351.682 1285.97 607.74 1200.75C850.155 1120.07 993.613 867.206 949.016 624.961C934.318 544.964 938.298 461.623 964.73 383.413C984.577 324.739 986.262 261.855 969.555 203.434Z" stroke="#D61600" stroke-width="1.5" stroke-miterlimit="10"/>
</g>
<g style="mix-blend-mode:overlay">
<path d="M949.719 225.232C908.171 78.9401 756.102 -3.09978 610.407 42.1584C548.08 61.4082 493.595 102.06 456.404 157.059C412.692 221.757 351.786 272.344 282.871 307.259C80.2845 409.924 -29.2156 649.893 36.0512 873.191C107.531 1117.63 364.166 1251.1 606.845 1170.32C836.549 1093.88 972.504 854.266 930.23 624.68C916.278 548.936 920.057 469.936 945.107 395.797C963.929 340.197 965.541 280.602 949.719 225.232V225.232Z" stroke="#D61600" stroke-width="1.5" stroke-miterlimit="10"/>
</g>
<g style="mix-blend-mode:overlay">
<path d="M929.846 247.096C890.578 108.884 746.918 31.387 609.277 74.1304C550.41 92.3209 498.948 130.713 463.81 182.654C422.421 243.748 364.946 291.577 299.863 324.561C108.459 421.557 5.01693 648.251 66.691 859.219C134.222 1090.12 376.69 1216.21 605.954 1139.9C822.906 1067.75 951.399 841.322 911.458 624.432C898.269 552.86 901.868 478.214 925.523 408.169C943.279 355.658 944.789 299.382 929.846 247.096V247.096Z" stroke="#D61600" stroke-width="1.5" stroke-miterlimit="10"/>
</g>
<g style="mix-blend-mode:overlay">
<path d="M910.003 268.859C873.073 138.73 737.8 65.7628 608.22 106.027C552.785 123.143 504.322 159.292 471.24 208.205C432.277 265.727 378.166 310.758 316.879 341.82C136.672 433.124 39.2959 646.58 97.3553 845.204C160.87 1062.69 389.198 1181.34 605.046 1109.5C809.408 1041.53 930.356 828.421 892.723 624.118C880.284 556.741 883.683 486.436 905.95 420.521C922.658 371.075 924.073 318.089 910.003 268.859V268.859Z" stroke="#D61600" stroke-width="1.5" stroke-miterlimit="10"/>
</g>
<g style="mix-blend-mode:overlay">
<path d="M890.131 290.669C855.526 168.646 728.618 100.196 607.091 137.946C555.076 153.975 509.593 187.866 478.531 233.739C441.995 287.687 391.249 329.92 333.771 359.038C164.769 444.687 73.4285 644.854 127.86 831.158C187.576 1035.11 401.696 1146.45 604.129 1079.06C795.736 1015.3 909.173 815.407 873.897 623.908C862.279 560.705 865.428 494.773 886.26 433.022C901.992 386.623 903.345 336.88 890.131 290.669V290.669Z" stroke="#D61600" stroke-width="1.5" stroke-miterlimit="10"/>
</g>
<g style="mix-blend-mode:overlay">
<path d="M870.306 312.501C859.085 273.021 837.023 237.957 806.666 211.352C776.309 184.747 738.892 167.685 698.728 162.132C658.564 156.579 617.29 162.762 579.662 179.967C542.035 197.172 509.587 224.7 486.059 259.376C451.927 309.737 404.545 349.173 350.842 376.357C192.978 456.31 107.739 643.229 158.591 817.18C214.244 1007.59 414.161 1111.55 603.18 1048.64C782.111 989.096 888.023 802.438 855.093 623.611C844.279 564.512 847.18 503.048 866.693 445.313C881.337 402.018 882.599 355.62 870.306 312.501V312.501Z" stroke="#D61600" stroke-width="1.5" stroke-miterlimit="10"/>
</g>
<g style="mix-blend-mode:overlay">
<path d="M850.436 334.31C840.017 297.626 819.524 265.044 791.321 240.323C763.118 215.602 728.353 199.749 691.036 194.592C653.719 189.434 615.37 195.183 580.413 211.174C545.455 227.166 515.313 252.749 493.462 284.974C461.756 331.762 417.738 368.4 367.889 393.666C295.676 430.568 237.954 492.165 205.185 567.295C172.416 642.425 166.768 726.116 189.264 803.201C240.976 980.11 426.727 1076.69 602.344 1018.22C768.577 962.887 866.95 789.488 836.353 623.356C826.257 568.557 828.998 511.365 847.226 457.79C860.816 417.525 861.938 374.38 850.436 334.31V334.31Z" stroke="#D61600" stroke-width="1.5" stroke-miterlimit="10"/>
</g>
<g style="mix-blend-mode:overlay">
<path d="M830.591 356.127C820.963 322.249 802.034 292.161 775.985 269.332C749.936 246.502 717.829 231.861 683.366 227.096C648.902 222.332 613.485 227.637 581.198 242.402C548.911 257.166 521.069 280.788 500.881 310.544C471.601 353.758 430.948 387.599 384.895 410.943C318.195 445.026 264.881 501.92 234.616 571.313C204.35 640.706 199.136 718.007 219.918 789.204C267.667 952.603 439.215 1041.81 601.426 987.835C754.934 936.76 845.832 776.566 817.581 623.107C808.248 572.479 810.796 519.664 827.519 470.117C840.103 432.959 841.177 393.128 830.591 356.127V356.127Z" stroke="#D61600" stroke-width="1.5" stroke-miterlimit="10"/>
</g>
</svg>
