<svg width="658" height="1180" viewBox="0 0 658 1180" fill="none" xmlns="http://www.w3.org/2000/svg">
<g style="mix-blend-mode:overlay">
<path d="M461.478 427.973C475.666 305.772 387.334 197.446 264.448 186.24C211.911 181.363 158.621 194.904 113.82 224.515C61.1368 259.289 -0.0408899 278.364 -62.3243 283.174C-245.511 297.295 -401.465 442.774 -421.743 629.907C-443.887 834.723 -293.291 1013.82 -86.9448 1028.45C108.406 1042.31 284.092 905.212 323.458 720.551C336.479 659.579 363.71 601.71 405.342 554.05C436.587 518.301 456.201 474.25 461.478 427.973Z" stroke="#D61600" stroke-width="1.5" stroke-miterlimit="10"/>
</g>
<g style="mix-blend-mode:overlay">
<path d="M441.042 437.604C454.462 321.806 370.772 219.149 254.311 208.533C204.522 203.912 154.019 216.749 111.565 244.815C61.6495 277.84 3.68846 295.834 -55.355 300.38C-228.932 313.764 -376.787 451.675 -395.962 628.969C-416.927 823.058 -274.231 992.773 -78.6675 1006.64C106.439 1019.77 272.93 889.862 310.233 714.85C322.536 657.109 348.353 602.255 387.814 557.075C417.433 523.203 436.031 481.46 441.042 437.604V437.604Z" stroke="#D61600" stroke-width="1.5" stroke-miterlimit="10"/>
</g>
<g style="mix-blend-mode:overlay">
<path d="M420.56 447.271C433.229 337.864 354.165 240.889 244.145 230.849C197.118 226.492 149.418 238.614 109.314 265.114C62.1002 296.268 7.3772 313.313 -48.3864 317.614C-212.381 330.257 -352.058 460.539 -370.165 628.047C-389.963 811.391 -255.14 971.727 -70.3865 984.827C104.428 997.268 261.771 874.511 297.008 709.175C308.63 654.613 333.045 602.791 370.318 560.103C398.277 528.107 415.83 488.685 420.56 447.271V447.271Z" stroke="#D61600" stroke-width="1.5" stroke-miterlimit="10"/>
</g>
<g style="mix-blend-mode:overlay">
<path d="M400.129 456.874C412.087 353.879 337.637 262.568 234.053 253.134C189.772 249.021 144.854 260.433 107.092 285.39C62.6442 314.724 11.1238 330.772 -41.3881 334.824C-195.784 346.715 -327.286 469.396 -344.339 627.101C-363.051 799.763 -236.068 950.694 -62.1248 963.026C102.546 974.741 250.644 859.209 283.829 703.465C294.753 652.094 317.754 603.288 352.835 563.119C379.153 532.987 395.676 495.869 400.129 456.874V456.874Z" stroke="#D61600" stroke-width="1.5" stroke-miterlimit="10"/>
</g>
<g style="mix-blend-mode:overlay">
<path d="M379.665 466.504C390.894 369.93 321.047 284.27 223.904 275.414C182.364 271.533 140.218 282.217 104.779 305.613C63.0955 333.126 14.778 348.178 -34.4658 351.969C-179.268 363.136 -302.602 478.172 -318.616 626.086C-336.054 788.047 -216.993 929.635 -53.8594 941.2C100.544 952.157 239.451 843.786 270.555 697.802C280.838 649.629 302.381 603.847 335.225 566.207C359.96 537.947 375.489 503.108 379.665 466.504V466.504Z" stroke="#D61600" stroke-width="1.5" stroke-miterlimit="10"/>
</g>
<g style="mix-blend-mode:overlay">
<path d="M359.227 476.162C362.842 444.908 357.485 413.608 343.774 385.87C330.063 358.132 308.556 335.086 281.732 319.388C254.908 303.69 223.86 295.98 192.166 297.146C160.473 298.312 129.425 308.307 102.601 325.979C63.6718 351.655 18.557 365.711 -27.4468 369.237C-162.691 379.632 -277.822 487.071 -292.752 625.186C-309.103 776.365 -197.942 908.57 -45.6193 919.367C98.5686 929.602 228.267 828.404 257.322 692.084C266.973 647.053 287.031 604.364 317.765 569.182C340.819 542.803 355.304 510.306 359.227 476.162V476.162Z" stroke="#D61600" stroke-width="1.5" stroke-miterlimit="10"/>
</g>
<g style="mix-blend-mode:overlay">
<path d="M338.763 485.79C342.128 456.752 337.155 427.67 324.418 401.897C311.681 376.125 291.699 354.712 266.775 340.128C241.852 325.544 213.004 318.383 183.557 319.472C154.11 320.56 125.265 329.853 100.348 346.279C64.183 370.135 22.271 383.195 -20.4412 386.491C-82.4035 391.478 -141.334 418.205 -186.553 461.825C-231.771 505.446 -260.287 563.075 -266.93 624.269C-282.119 764.732 -178.83 887.557 -37.3013 897.574C96.6592 907.072 217.134 813.058 244.122 686.414C253.022 644.639 271.716 604.929 300.32 572.317C321.741 547.776 335.174 517.543 338.763 485.79V485.79Z" stroke="#D61600" stroke-width="1.5" stroke-miterlimit="10"/>
</g>
<g style="mix-blend-mode:overlay">
<path d="M318.315 495.431C321.418 468.613 316.823 441.755 305.058 417.954C293.293 394.152 274.838 374.377 251.821 360.907C228.804 347.437 202.162 340.821 174.966 341.822C147.771 342.823 121.129 351.401 98.1131 366.566C64.7138 388.601 26.0046 400.664 -13.4559 403.711C-70.6866 408.317 -125.117 433.002 -166.882 473.292C-208.647 513.583 -234.983 566.812 -241.117 623.333C-255.154 753.065 -159.767 866.506 -29.0525 875.784C94.6478 884.569 205.959 797.719 230.897 680.739C239.116 642.143 256.391 605.477 282.749 575.278C302.548 552.643 314.976 524.743 318.315 495.431V495.431Z" stroke="#D61600" stroke-width="1.5" stroke-miterlimit="10"/>
</g>
</svg>
