<svg width="654" height="1268" viewBox="0 0 654 1268" fill="none" xmlns="http://www.w3.org/2000/svg">
<g style="mix-blend-mode:overlay">
<path d="M991.555 208.434C947.74 54.0388 787.248 -32.5212 633.514 15.2289C567.747 35.5398 510.252 78.4308 471.003 136.462C424.825 204.648 360.58 258.141 287.891 294.99C74.0863 403.334 -41.4034 656.463 27.4373 892.174C102.844 1150.13 373.682 1290.97 629.74 1205.75C872.155 1125.07 1015.61 872.206 971.016 629.961C956.318 549.964 960.298 466.623 986.73 388.413C1006.58 329.739 1008.26 266.855 991.555 208.434Z" stroke="#D61600" stroke-width="1.5" stroke-miterlimit="10"/>
</g>
<g style="mix-blend-mode:overlay">
<path d="M971.719 230.232C930.171 83.9401 778.102 1.90022 632.407 47.1584C570.08 66.4082 515.595 107.06 478.404 162.059C434.692 226.757 373.786 277.344 304.871 312.259C102.285 414.924 -7.21553 654.893 58.0513 878.191C129.532 1122.63 386.166 1256.1 628.845 1175.32C858.549 1098.88 994.504 859.266 952.23 629.68C938.278 553.936 942.057 474.936 967.107 400.797C985.929 345.197 987.541 285.602 971.719 230.232V230.232Z" stroke="#D61600" stroke-width="1.5" stroke-miterlimit="10"/>
</g>
<g style="mix-blend-mode:overlay">
<path d="M951.846 252.096C912.579 113.884 768.918 36.387 631.277 79.1304C572.411 97.3209 520.948 135.713 485.81 187.654C444.422 248.748 386.946 296.577 321.863 329.561C130.46 426.557 27.017 653.251 88.6911 864.219C156.222 1095.12 398.69 1221.21 627.954 1144.9C844.906 1072.75 973.399 846.322 933.458 629.432C920.269 557.86 923.869 483.214 947.523 413.169C965.279 360.658 966.789 304.382 951.846 252.096V252.096Z" stroke="#D61600" stroke-width="1.5" stroke-miterlimit="10"/>
</g>
<g style="mix-blend-mode:overlay">
<path d="M932.003 273.859C895.073 143.73 759.8 70.7629 630.22 111.027C574.785 128.143 526.322 164.293 493.24 213.205C454.277 270.727 400.166 315.758 338.879 346.82C158.672 438.124 61.2959 651.58 119.355 850.204C182.87 1067.69 411.198 1186.34 627.046 1114.5C831.408 1046.53 952.356 833.421 914.723 629.118C902.284 561.741 905.683 491.436 927.95 425.521C944.658 376.075 946.073 323.089 932.003 273.859V273.859Z" stroke="#D61600" stroke-width="1.5" stroke-miterlimit="10"/>
</g>
<g style="mix-blend-mode:overlay">
<path d="M912.132 295.669C877.527 173.646 750.619 105.196 629.092 142.946C577.077 158.975 531.593 192.866 500.532 238.739C463.996 292.687 413.249 334.92 355.772 364.038C186.77 449.687 95.4289 649.854 149.86 836.158C209.576 1040.11 423.697 1151.45 626.13 1084.06C817.737 1020.3 931.174 820.407 895.898 628.908C884.28 565.705 887.428 499.773 908.26 438.022C923.992 391.623 925.345 341.88 912.132 295.669V295.669Z" stroke="#D61600" stroke-width="1.5" stroke-miterlimit="10"/>
</g>
<g style="mix-blend-mode:overlay">
<path d="M892.307 317.501C881.085 278.021 859.024 242.957 828.667 216.352C798.309 189.747 760.892 172.685 720.729 167.132C680.565 161.579 639.29 167.761 601.663 184.967C564.035 202.172 531.587 229.7 508.06 264.376C473.927 314.737 426.545 354.173 372.842 381.357C214.979 461.31 129.74 648.229 180.592 822.179C236.244 1012.59 436.162 1116.55 625.18 1053.64C804.111 994.096 910.023 807.438 877.093 628.611C866.28 569.512 869.181 508.048 888.694 450.313C903.337 407.018 904.599 360.62 892.307 317.501V317.501Z" stroke="#D61600" stroke-width="1.5" stroke-miterlimit="10"/>
</g>
<g style="mix-blend-mode:overlay">
<path d="M872.436 339.31C862.017 302.626 841.524 270.044 813.321 245.323C785.118 220.602 750.353 204.749 713.036 199.592C675.719 194.434 637.37 200.183 602.413 216.174C567.455 232.166 537.313 257.749 515.462 289.974C483.756 336.762 439.738 373.4 389.889 398.666C317.676 435.568 259.954 497.165 227.185 572.295C194.416 647.425 188.768 731.116 211.264 808.201C262.976 985.11 448.727 1081.69 624.344 1023.22C790.577 967.887 888.95 794.488 858.353 628.356C848.257 573.557 850.998 516.365 869.226 462.79C882.816 422.525 883.938 379.38 872.436 339.31V339.31Z" stroke="#D61600" stroke-width="1.5" stroke-miterlimit="10"/>
</g>
<g style="mix-blend-mode:overlay">
<path d="M852.591 361.127C842.963 327.249 824.034 297.161 797.985 274.332C771.936 251.502 739.829 236.861 705.366 232.096C670.902 227.332 635.485 232.637 603.198 247.402C570.911 262.166 543.069 285.788 522.881 315.544C493.601 358.758 452.948 392.599 406.895 415.943C340.195 450.026 286.881 506.92 256.616 576.313C226.35 645.706 221.136 723.007 241.918 794.204C289.667 957.603 461.215 1046.81 623.426 992.835C776.934 941.76 867.832 781.566 839.581 628.107C830.248 577.479 832.796 524.664 849.519 475.117C862.103 437.959 863.177 398.128 852.591 361.127V361.127Z" stroke="#D61600" stroke-width="1.5" stroke-miterlimit="10"/>
</g>
</svg>
