<svg width="760" height="713" viewBox="0 0 760 713" fill="none" xmlns="http://www.w3.org/2000/svg">
<g style="mix-blend-mode:overlay">
<path d="M955.376 586.213C1072.37 520.149 1111.19 372.511 1042.05 256.829C1012.57 207.317 966.344 168.984 911.394 148.48C846.817 124.339 790.636 82.6021 746.334 30.7165C616.061 -121.907 387.349 -166.014 209.119 -63.568C14.0808 48.6032 -47.1652 296.719 72.6213 488.276C186.022 669.628 420.025 736.544 608.347 652.537C670.543 624.82 739.139 611.641 807.982 617.741C859.633 622.332 911.132 611.316 955.376 586.213Z" stroke="#D61600" stroke-width="1.5" stroke-miterlimit="10"/>
</g>
<g style="mix-blend-mode:overlay">
<path d="M933.73 574.368C1044.58 511.744 1081.38 371.849 1015.85 262.218C987.91 215.297 944.1 178.971 892.023 159.545C830.769 136.722 777.61 97.1303 735.626 47.9345C612.184 -96.6795 395.359 -138.505 226.525 -41.4124C41.7148 64.9002 -16.3294 300.007 97.1975 481.555C204.651 653.398 426.395 716.82 604.873 637.197C663.755 610.924 728.779 598.437 794.038 604.215C842.986 608.577 891.794 598.149 933.73 574.368V574.368Z" stroke="#D61600" stroke-width="1.5" stroke-miterlimit="10"/>
</g>
<g style="mix-blend-mode:overlay">
<path d="M912.028 562.505C1016.75 503.328 1051.51 371.17 989.616 267.596C963.219 223.282 921.843 188.972 872.659 170.612C814.796 148.971 764.557 111.627 724.899 65.1684C608.272 -71.4633 403.442 -110.975 243.933 -19.2344C69.3567 81.1991 14.5294 303.324 121.782 474.836C223.223 637.151 432.772 697.097 601.381 621.873C657.018 597.043 718.465 585.268 780.117 590.717C826.341 594.82 872.429 584.963 912.028 562.505V562.505Z" stroke="#D61600" stroke-width="1.5" stroke-miterlimit="10"/>
</g>
<g style="mix-blend-mode:overlay">
<path d="M890.409 550.646C989.017 494.964 1021.74 370.523 963.452 273.02C938.606 231.286 899.646 198.974 853.33 181.691C798.852 161.32 751.552 126.162 714.205 82.4141C604.415 -46.2285 411.552 -83.4122 261.375 2.95553C96.9261 97.4771 45.3582 306.634 146.336 468.11C241.896 621.003 439.122 677.435 597.943 606.568C650.315 583.174 708.19 572.09 766.209 577.225C809.732 581.079 853.124 571.793 890.409 550.646V550.646Z" stroke="#D61600" stroke-width="1.5" stroke-miterlimit="10"/>
</g>
<g style="mix-blend-mode:overlay">
<path d="M868.75 538.774C961.22 486.58 991.916 369.835 937.261 278.389C913.972 239.224 877.436 208.891 833.992 192.654C782.9 173.553 738.539 140.582 703.524 99.5504C600.544 -21.0894 419.681 -55.9795 278.814 25.0089C124.632 113.773 76.2173 309.929 170.921 461.368C260.546 604.712 445.54 657.635 594.408 591.209C643.545 569.306 697.811 558.879 752.16 563.665C793.013 567.326 833.753 558.628 868.75 538.774V538.774Z" stroke="#D61600" stroke-width="1.5" stroke-miterlimit="10"/>
</g>
<g style="mix-blend-mode:overlay">
<path d="M847.08 526.943C876.993 510.035 901.178 485.178 916.845 455.236C932.513 425.295 939.025 391.489 935.631 357.715C932.238 323.941 919.077 291.575 897.665 264.348C876.254 237.121 847.463 216.142 814.614 203.829C766.913 185.977 725.492 155.193 692.794 116.851C596.642 4.15291 427.761 -28.3823 296.24 47.2604C152.275 130.051 107.062 313.197 195.491 454.601C279.184 588.463 451.925 637.87 590.944 575.85C636.9 555.409 687.483 545.662 738.304 550.166C776.416 553.552 814.417 545.439 847.08 526.943V526.943Z" stroke="#D61600" stroke-width="1.5" stroke-miterlimit="10"/>
</g>
<g style="mix-blend-mode:overlay">
<path d="M825.422 515.071C853.218 499.367 875.692 476.275 890.251 448.457C904.809 420.639 910.861 389.229 907.706 357.85C904.552 326.47 892.32 296.4 872.422 271.106C852.524 245.813 825.77 226.326 795.245 214.895C750.93 198.313 712.448 169.715 682.07 134.131C637.819 82.6429 576.328 47.8109 508.743 35.9477C441.157 24.0844 371.948 35.9748 313.658 69.464C179.899 146.389 137.903 316.554 220.079 447.928C297.845 572.288 458.312 618.173 587.46 560.551C630.06 541.542 677.135 532.506 724.318 536.783C759.757 539.91 795.084 532.323 825.422 515.071V515.071Z" stroke="#D61600" stroke-width="1.5" stroke-miterlimit="10"/>
</g>
<g style="mix-blend-mode:overlay">
<path d="M803.76 503.222C829.429 488.715 850.182 467.385 863.626 441.693C877.071 416.001 882.659 386.993 879.747 358.012C876.835 329.032 865.541 301.259 847.168 277.897C828.794 254.535 804.089 236.533 775.901 225.969C734.971 210.657 699.428 184.246 671.361 151.372C630.49 103.815 573.695 71.6428 511.271 60.6864C448.846 49.73 384.922 60.7146 331.085 91.6492C207.539 162.689 168.745 319.845 244.618 441.197C316.415 556.041 464.666 598.445 583.965 545.228C623.321 527.661 666.796 519.331 710.405 523.177C743.119 526.097 775.739 519.125 803.76 503.222V503.222Z" stroke="#D61600" stroke-width="1.5" stroke-miterlimit="10"/>
</g>
</svg>
