<svg width="17" height="14" viewBox="0 0 17 14" fill="none" xmlns="http://www.w3.org/2000/svg">
<g filter="url(#filter0_d_94_20277)">
<path d="M6.32842 10.619L2.35483 6.55914C2.1161 6.3152 2.1161 5.91974 2.35483 5.6758L3.21937 4.79251C3.45806 4.54857 3.84519 4.54857 4.08392 4.79251L6.76069 7.52738L12.4941 1.66952C12.7328 1.42563 13.1199 1.42563 13.3587 1.66952L14.2231 2.55281C14.4619 2.79675 14.4619 3.19221 14.2231 3.43615L7.19296 10.619C6.95423 10.8629 6.56715 10.8629 6.32842 10.619Z" fill="#D61600"/>
<path d="M6.32842 10.619L2.35483 6.55914C2.1161 6.3152 2.1161 5.91974 2.35483 5.6758L3.21937 4.79251C3.45806 4.54857 3.84519 4.54857 4.08392 4.79251L6.76069 7.52738L12.4941 1.66952C12.7328 1.42563 13.1199 1.42563 13.3587 1.66952L14.2231 2.55281C14.4619 2.79675 14.4619 3.19221 14.2231 3.43615L7.19296 10.619C6.95423 10.8629 6.56715 10.8629 6.32842 10.619Z" fill="white" fill-opacity="0.95"/>
</g>
<defs>
<filter id="filter0_d_94_20277" x="0.36446" y="0.580942" width="15.849" height="12.938" filterUnits="userSpaceOnUse" color-interpolation-filters="sRGB">
<feFlood flood-opacity="0" result="BackgroundImageFix"/>
<feColorMatrix in="SourceAlpha" type="matrix" values="0 0 0 0 0 0 0 0 0 0 0 0 0 0 0 0 0 0 127 0" result="hardAlpha"/>
<feOffset dy="0.90566"/>
<feGaussianBlur stdDeviation="0.90566"/>
<feComposite in2="hardAlpha" operator="out"/>
<feColorMatrix type="matrix" values="0 0 0 0 0 0 0 0 0 0 0 0 0 0 0 0 0 0 0.2 0"/>
<feBlend mode="normal" in2="BackgroundImageFix" result="effect1_dropShadow_94_20277"/>
<feBlend mode="normal" in="SourceGraphic" in2="effect1_dropShadow_94_20277" result="shape"/>
</filter>
</defs>
</svg>
