<svg width="112" height="114" viewBox="0 0 112 114" fill="none" xmlns="http://www.w3.org/2000/svg">
<path d="M11.8656 23.135L99.6462 23.135C101.378 23.135 102.782 24.5509 102.782 26.2975V87.6151C102.782 89.3617 101.378 90.7776 99.6462 90.7776H11.8656C10.1338 90.7776 8.7299 89.3617 8.7299 87.6151V26.2975C8.7299 24.5509 10.1338 23.135 11.8656 23.135Z" fill="#2A84C6"/>
<path d="M11.8656 23.135L99.6462 23.135C101.378 23.135 102.782 24.5509 102.782 26.2975V87.6151C102.782 89.3617 101.378 90.7776 99.6462 90.7776H11.8656C10.1338 90.7776 8.7299 89.3617 8.7299 87.6151V26.2975C8.7299 24.5509 10.1338 23.135 11.8656 23.135Z" fill="white" fill-opacity="0.85"/>
<path d="M26.3689 82.5923C25.0086 82.5923 23.9059 80.2447 23.9059 77.3487C23.9059 74.4528 25.0086 72.1052 26.3689 72.1052C27.7293 72.1052 28.832 74.4528 28.832 77.3487C28.832 80.2447 27.7293 82.5923 26.3689 82.5923Z" fill="white"/>
<path d="M8.7742 43.8209L102.737 43.8209V53.6303L8.7742 53.6303V43.8209Z" fill="white"/>
<path d="M63.5213 63.7943H95.028C95.6053 63.7943 96.0732 64.2663 96.0732 64.8485V66.1285C96.0732 66.7107 95.6053 67.1827 95.028 67.1827H63.5213C62.9441 67.1827 62.4761 66.7107 62.4761 66.1285V64.8485C62.4761 64.2663 62.9441 63.7943 63.5213 63.7943Z" fill="white"/>
<path d="M76.8552 73.9594H95.028C95.6053 73.9594 96.0732 74.4313 96.0732 75.0135V76.2936C96.0732 76.8758 95.6053 77.3477 95.028 77.3477H76.8552C76.2779 77.3477 75.8099 76.8758 75.8099 76.2936V75.0135C75.8099 74.4313 76.2779 73.9594 76.8552 73.9594Z" fill="white"/>
<path d="M86.9868 29.9506H95.028C95.6053 29.9506 96.0732 30.4225 96.0732 31.0047V35.6329C96.0732 36.2151 95.6053 36.6871 95.028 36.6871H86.9868C86.4096 36.6871 85.9416 36.2151 85.9416 35.6329V31.0047C85.9416 30.4225 86.4096 29.9506 86.9868 29.9506Z" fill="white"/>
<path d="M28.8326 77.3488C28.8347 75.3162 27.9298 73.3906 26.3685 72.1053C29.1059 69.8427 33.1142 70.1095 35.533 72.7152C37.9519 75.321 37.9519 79.3723 35.533 81.9781C33.1142 84.5838 29.1059 84.8506 26.3685 82.588C27.9286 81.3037 28.8334 79.3799 28.8326 77.3488Z" fill="#F56D7E"/>
<path d="M22.1131 70.5718C23.6649 70.5696 25.1693 71.1116 26.3684 72.105C24.8111 73.3922 23.9082 75.3158 23.9082 77.3464C23.9082 79.3771 24.8111 81.3007 26.3684 82.5878C24.0797 84.4815 20.8317 84.6414 18.371 82.9816C15.9102 81.3217 14.8165 78.2332 15.6779 75.3768C16.5392 72.5203 19.1527 70.5689 22.1131 70.5718Z" fill="#B7EE81"/>
<path d="M22.1131 70.5718C23.6649 70.5696 25.1693 71.1116 26.3684 72.105C24.8111 73.3922 23.9082 75.3158 23.9082 77.3464C23.9082 79.3771 24.8111 81.3007 26.3684 82.5878C24.0797 84.4815 20.8317 84.6414 18.371 82.9816C15.9102 81.3217 14.8165 78.2332 15.6779 75.3768C16.5392 72.5203 19.1527 70.5689 22.1131 70.5718Z" fill="white" fill-opacity="0.2"/>
</svg>
