<svg width="83" height="78" viewBox="0 0 83 78" fill="none" xmlns="http://www.w3.org/2000/svg">
<circle cx="55.5" cy="49.5" r="27.5" fill="#D61600"/>
<circle cx="55.5" cy="49.5" r="27.5" fill="white" fill-opacity="0.95"/>
<g clip-path="url(#clip0_321_17451)">
<path d="M63.3048 15.769L34.964 1.91373C34.4709 1.67106 33.9266 1.54406 33.3742 1.54286C32.8219 1.54165 32.2768 1.66629 31.7826 1.90681L3.24981 15.7621C2.1941 16.2816 1.4654 17.2758 1.3161 18.4188C1.26989 18.7548 -2.75392 52.1599 31.6761 70.4036C32.2052 70.6851 32.7995 70.8297 33.4024 70.8243C34.0052 70.8188 34.5966 70.6633 35.1203 70.3726C68.2031 52.1564 65.3844 19.8944 65.2493 18.5296C65.191 17.9469 64.9822 17.3879 64.6422 16.9052C64.3021 16.4224 63.842 16.0315 63.3048 15.769Z" fill="#0E2C7A"/>
<g filter="url(#filter0_d_321_17451)">
<path d="M28.4099 48.3269L16.8771 36.5436C16.1842 35.8355 16.1842 34.6878 16.8771 33.9797L19.3862 31.4161C20.0791 30.7081 21.2027 30.7081 21.8955 31.4161L29.6645 39.3538L46.3052 22.3519C46.998 21.6441 48.1214 21.6441 48.8143 22.3519L51.3236 24.9158C52.0164 25.6236 52.0164 26.7715 51.3236 27.4794L30.9192 48.3269C30.2263 49.0347 29.1029 49.0347 28.4099 48.3269Z" fill="#D61600"/>
<path d="M28.4099 48.3269L16.8771 36.5436C16.1842 35.8355 16.1842 34.6878 16.8771 33.9797L19.3862 31.4161C20.0791 30.7081 21.2027 30.7081 21.8955 31.4161L29.6645 39.3538L46.3052 22.3519C46.998 21.6441 48.1214 21.6441 48.8143 22.3519L51.3236 24.9158C52.0164 25.6236 52.0164 26.7715 51.3236 27.4794L30.9192 48.3269C30.2263 49.0347 29.1029 49.0347 28.4099 48.3269Z" fill="white" fill-opacity="0.95"/>
</g>
</g>
<defs>
<filter id="filter0_d_321_17451" x="8.12885" y="17.7068" width="51.943" height="43.4939" filterUnits="userSpaceOnUse" color-interpolation-filters="sRGB">
<feFlood flood-opacity="0" result="BackgroundImageFix"/>
<feColorMatrix in="SourceAlpha" type="matrix" values="0 0 0 0 0 0 0 0 0 0 0 0 0 0 0 0 0 0 127 0" result="hardAlpha"/>
<feOffset dy="4.11429"/>
<feGaussianBlur stdDeviation="4.11429"/>
<feComposite in2="hardAlpha" operator="out"/>
<feColorMatrix type="matrix" values="0 0 0 0 0 0 0 0 0 0 0 0 0 0 0 0 0 0 0.2 0"/>
<feBlend mode="normal" in2="BackgroundImageFix" result="effect1_dropShadow_321_17451"/>
<feBlend mode="normal" in="SourceGraphic" in2="effect1_dropShadow_321_17451" result="shape"/>
</filter>
<clipPath id="clip0_321_17451">
<rect width="65.8286" height="72" fill="white" transform="translate(0.000732422)"/>
</clipPath>
</defs>
</svg>
