<svg width="144" height="118" viewBox="0 0 144 118" fill="none" xmlns="http://www.w3.org/2000/svg">
<path d="M139.944 55.185L124.644 44.9476L121.919 31.7765L120.543 29.9894C117.765 26.381 113.469 24.2668 108.915 24.2668H37.7528C31.2618 24.2671 26 29.5289 26 36.0198V75.9313L38.7673 90.6837H130.342L144 75.9311V67.102C144 62.7908 142.574 58.6008 139.944 55.185Z" fill="url(#paint0_linear_321_17072)"/>
<path d="M144 75.9312H26L38.7673 90.6835H130.342L144 75.9312Z" fill="url(#paint1_linear_321_17072)"/>
<path d="M112.06 55.185H139.944L121.919 31.7766H112.06C108.199 31.7766 105.07 34.906 105.07 38.7664V48.1953C105.07 52.0557 108.2 55.185 112.06 55.185Z" fill="url(#paint2_linear_321_17072)"/>
<path d="M54.1543 70.9906C53.8838 68.7776 51.76 67.2913 49.5845 67.7783C41.5027 69.588 34.9843 75.5788 32.4216 83.351L38.7673 90.6835C38.7673 83.0635 44.1112 76.6932 51.2556 75.1127C53.1386 74.6959 54.3884 72.905 54.1543 70.9906Z" fill="#C2C8CF"/>
<path d="M54.7173 106.633C63.5262 106.633 70.6673 99.4924 70.6673 90.6835C70.6673 81.8746 63.5262 74.7335 54.7173 74.7335C45.9084 74.7335 38.7673 81.8746 38.7673 90.6835C38.7673 99.4924 45.9084 106.633 54.7173 106.633Z" fill="url(#paint3_linear_321_17072)"/>
<path d="M54.7172 97.1117C58.2674 97.1117 61.1454 94.2337 61.1454 90.6836C61.1454 87.1334 58.2674 84.2554 54.7172 84.2554C51.1671 84.2554 48.2891 87.1334 48.2891 90.6836C48.2891 94.2337 51.1671 97.1117 54.7172 97.1117Z" fill="url(#paint4_linear_321_17072)"/>
<path d="M114.393 106.633C123.202 106.633 130.343 99.4924 130.343 90.6835C130.343 81.8746 123.202 74.7335 114.393 74.7335C105.584 74.7335 98.4426 81.8746 98.4426 90.6835C98.4426 99.4924 105.584 106.633 114.393 106.633Z" fill="url(#paint5_linear_321_17072)"/>
<path d="M114.393 97.1117C117.943 97.1117 120.821 94.2337 120.821 90.6836C120.821 87.1334 117.943 84.2554 114.393 84.2554C110.842 84.2554 107.964 87.1334 107.964 90.6836C107.964 94.2337 110.842 97.1117 114.393 97.1117Z" fill="url(#paint6_linear_321_17072)"/>
<path d="M144 82.1574V75.9312H136.594C133.141 75.9312 130.342 78.73 130.342 82.1826V90.6835H135.474C140.183 90.6835 144 86.8661 144 82.1574Z" fill="url(#paint7_linear_321_17072)"/>
<path d="M32.5161 75.9312H26V82.1574C26 86.8664 29.8174 90.6837 34.5263 90.6837H38.7673V82.1828C38.7673 78.73 35.9684 75.9312 32.5161 75.9312Z" fill="url(#paint8_linear_321_17072)"/>
<path d="M35.7713 76.8451C33.0472 80.5644 31.3896 85.1112 31.2549 90.0322C32.2623 90.4513 33.3671 90.6835 34.5262 90.6835H38.7672V82.1824C38.7672 79.9227 37.5679 77.9433 35.7713 76.8451Z" fill="#E06C7B"/>
<path d="M95.7875 11.3666H102.761C104.544 11.3666 106.056 12.6782 106.307 14.4435L107.706 24.2671H90.8425L92.2414 14.4435C92.4926 12.6782 94.0043 11.3666 95.7875 11.3666Z" fill="url(#paint9_linear_321_17072)"/>
<path d="M62.8572 67.0492C72.5975 67.0492 80.4935 59.1532 80.4935 49.4129C80.4935 39.6727 72.5975 31.7766 62.8572 31.7766C53.117 31.7766 45.2209 39.6727 45.2209 49.4129C45.2209 59.1532 53.117 67.0492 62.8572 67.0492Z" fill="url(#paint10_linear_321_17072)"/>
<path d="M66.286 45.2862V40.306C66.286 39.6544 65.7576 39.126 65.106 39.126H60.6082C59.9564 39.126 59.4282 39.6544 59.4282 40.306V45.2862C59.4282 45.6715 59.1158 45.9838 58.7305 45.9838H53.7503C53.0987 45.9838 52.5703 46.5123 52.5703 47.1638V51.6615C52.5703 52.3133 53.0987 52.8415 53.7503 52.8415H58.7305C59.1158 52.8415 59.4282 53.1539 59.4282 53.5391V58.5193C59.4282 59.1709 59.9566 59.6993 60.6082 59.6993H65.106C65.7576 59.6993 66.286 59.1709 66.286 58.5193V53.5391C66.286 53.1539 66.5984 52.8415 66.9837 52.8415H71.9639C72.6157 52.8415 73.1439 52.3131 73.1439 51.6615V47.1638C73.1439 46.512 72.6155 45.9838 71.9639 45.9838H66.9837C66.5984 45.9838 66.286 45.6717 66.286 45.2862Z" fill="url(#paint11_linear_321_17072)"/>
<path d="M108.399 67.9668H101.246C99.753 67.9668 98.5427 66.7567 98.5427 65.2636C98.5427 63.7705 99.753 62.5604 101.246 62.5604H108.399C109.892 62.5604 111.102 63.7705 111.102 65.2636C111.102 66.7567 109.892 67.9668 108.399 67.9668Z" fill="#C2C8CF"/>
<path d="M112.06 55.185H123.366L132.732 45.8191L125.878 36.9176L108.554 54.2413C109.585 54.8402 110.782 55.185 112.06 55.185Z" fill="url(#paint12_linear_321_17072)"/>
<path d="M136.669 63.3225C135.807 63.3225 134.978 62.8472 134.566 62.0245C134.331 61.5551 134.061 61.0993 133.765 60.6701C133.027 59.6015 133.296 58.1378 134.364 57.4004C135.433 56.6631 136.897 56.9315 137.634 58.0001C138.054 58.6089 138.436 59.2544 138.769 59.9186C139.35 61.0794 138.881 62.4916 137.72 63.0731C137.382 63.2424 137.023 63.3225 136.669 63.3225Z" fill="white"/>
<path d="M129.646 53.7925C128.942 53.7925 128.245 53.477 127.782 52.8757L121.898 45.2342C121.106 44.2055 121.297 42.7298 122.326 41.9379C123.355 41.1455 124.831 41.3376 125.623 42.3662L131.507 50.0078C132.299 51.0364 132.107 52.5121 131.078 53.304C130.651 53.6331 130.147 53.7925 129.646 53.7925Z" fill="#B1E7FF"/>
<path d="M31.6264 103.322H17.2963C13.61 103.322 10.6216 100.333 10.6216 96.647V73.8546H38.301V96.6471C38.301 100.333 35.3127 103.322 31.6264 103.322Z" fill="url(#paint13_linear_321_17072)"/>
<path d="M32.2297 74.5868L10.6216 73.8545V77.515H32.2297C33.0383 77.515 33.6938 76.8595 33.6938 76.0509C33.6938 75.2423 33.0383 74.5868 32.2297 74.5868Z" fill="#C2C8CF"/>
<path d="M39.2483 62.9434H9.6741C7.89809 62.9434 6.45825 64.3832 6.45825 66.1592V71.371C6.45825 73.1471 7.89809 74.5868 9.6741 74.5868H39.2483C41.0244 74.5868 42.4642 73.147 42.4642 71.371V66.1592C42.4643 64.3832 41.0244 62.9434 39.2483 62.9434Z" fill="url(#paint14_linear_321_17072)"/>
<path d="M24.4612 72.2952C23.9221 72.2952 23.4851 71.8581 23.4851 71.3191V66.2111C23.4851 65.6721 23.9221 65.235 24.4612 65.235C25.0003 65.235 25.4373 65.6721 25.4373 66.2111V71.3191C25.4373 71.8582 25.0003 72.2952 24.4612 72.2952Z" fill="#FCAC00"/>
<path d="M14.844 72.2952C14.3049 72.2952 13.8679 71.8581 13.8679 71.3191V66.2111C13.8679 65.6721 14.3049 65.235 14.844 65.235C15.3831 65.235 15.8201 65.6721 15.8201 66.2111V71.3191C15.8201 71.8582 15.3831 72.2952 14.844 72.2952Z" fill="#FCAC00"/>
<path d="M34.0784 72.2952C33.5393 72.2952 33.1023 71.8581 33.1023 71.3191V66.2111C33.1023 65.6721 33.5393 65.235 34.0784 65.235C34.6175 65.235 35.0545 65.6721 35.0545 66.2111V71.3191C35.0545 71.8582 34.6175 72.2952 34.0784 72.2952Z" fill="#FCAC00"/>
<path d="M30.1955 88.5883H18.7266C17.4172 88.5883 16.3557 89.6497 16.3557 90.9591V94.6896C16.3557 95.999 17.4171 97.0605 18.7266 97.0605H30.1955C31.5048 97.0605 32.5663 95.999 32.5663 94.6896V90.9591C32.5663 89.6497 31.5048 88.5883 30.1955 88.5883Z" fill="url(#paint15_linear_321_17072)"/>
<path d="M27.8442 93.9469H21.0786C20.4586 93.9469 19.9561 93.4444 19.9561 92.8244C19.9561 92.2044 20.4586 91.7019 21.0786 91.7019H27.8442C28.4641 91.7019 28.9667 92.2044 28.9667 92.8244C28.9667 93.4443 28.4641 93.9469 27.8442 93.9469Z" fill="#00A663"/>
<path d="M20.311 55.206C22.8083 59.2997 28.1512 60.5938 32.2449 58.0966L38.4319 54.3223L35.5455 45.9125L29.3885 39.4979L23.2015 43.2721C19.1079 45.7694 17.8137 51.1124 20.311 55.206Z" fill="url(#paint16_linear_321_17072)"/>
<path d="M47.509 38.614C50.0062 42.7077 48.7121 48.0507 44.6184 50.548L38.4315 54.3222L29.3881 39.4976L35.5751 35.7234C39.6687 33.2262 45.0117 34.5204 47.509 38.614Z" fill="url(#paint17_linear_321_17072)"/>
<path d="M34.1052 54.0616C33.8623 54.0027 33.642 53.8513 33.5017 53.6211C33.221 53.1609 33.3664 52.5603 33.8266 52.2795L34.5686 51.8269C35.0288 51.5463 35.6295 51.6917 35.9102 52.152C36.1909 52.6121 36.0454 53.2127 35.5852 53.4936L34.8433 53.9462C34.6131 54.0866 34.3479 54.1204 34.1052 54.0616Z" fill="#FFCCD3"/>
<path d="M38.2306 51.545C37.9878 51.4862 37.7674 51.3347 37.6271 51.1047C37.3464 50.6445 37.4918 50.0438 37.952 49.7631L41.4403 47.6351C41.9005 47.3545 42.5012 47.5 42.782 47.9601C43.0628 48.4202 42.9173 49.0209 42.4571 49.3018L38.9688 51.4297C38.7386 51.57 38.4733 51.6038 38.2306 51.545Z" fill="#FFF6BD"/>
<path d="M2.43704 34.3966C0.575071 35.9453 0.321106 38.7102 1.86979 40.5722L4.21039 43.3862L8.20045 41.3259L10.9532 37.778L8.61256 34.9639C7.06387 33.1019 4.29901 32.848 2.43704 34.3966Z" fill="url(#paint18_linear_321_17072)"/>
<path d="M12.7268 46.7673C10.8649 48.316 8.09999 48.062 6.55131 46.2001L4.21071 43.386L10.9535 37.7777L13.2941 40.5918C14.8428 42.4538 14.5888 45.2186 12.7268 46.7673Z" fill="url(#paint19_linear_321_17072)"/>
<path d="M4.02264 41.205C4.03418 41.0793 4.09368 40.9581 4.19836 40.8711C4.40767 40.697 4.71847 40.7255 4.89261 40.9348L5.1733 41.2723C5.34733 41.4816 5.31883 41.7925 5.10948 41.9665C4.90017 42.1406 4.58937 42.1121 4.41523 41.9028L4.13454 41.5653C4.04747 41.4606 4.0111 41.3306 4.02264 41.205Z" fill="#FFCCD3"/>
<path d="M5.58347 43.0813C5.595 42.9557 5.65451 42.8344 5.75914 42.7474C5.96845 42.5733 6.27929 42.6019 6.45338 42.8112L7.77305 44.3978C7.9471 44.6071 7.91854 44.918 7.70928 45.0921C7.49997 45.2662 7.18912 45.2376 7.01498 45.0283L5.69532 43.4417C5.60834 43.337 5.57193 43.207 5.58347 43.0813Z" fill="#FFF6BD"/>
<path d="M25.1068 36.2249L20.358 33.2396L18.8653 35.6139C18.0409 36.9253 18.4357 38.6566 19.747 39.481C21.0584 40.3053 22.7897 39.9106 23.6141 38.5992L25.1068 36.2249Z" fill="url(#paint20_linear_321_17072)"/>
<path d="M25.1067 36.225L20.3579 33.2397L21.8505 30.8653C22.6749 29.5539 24.4062 29.1592 25.7176 29.9836C27.029 30.808 27.4237 32.5393 26.5993 33.8506L25.1067 36.225Z" fill="url(#paint21_linear_321_17072)"/>
<defs>
<linearGradient id="paint0_linear_321_17072" x1="85" y1="104.826" x2="85" y2="20.249" gradientUnits="userSpaceOnUse">
<stop stop-color="#D4DBDB"/>
<stop offset="1" stop-color="#F3F3F3"/>
</linearGradient>
<linearGradient id="paint1_linear_321_17072" x1="85" y1="74.5551" x2="85" y2="100.677" gradientUnits="userSpaceOnUse">
<stop stop-color="#C5CCCC"/>
<stop offset="1" stop-color="#E6E6E6"/>
</linearGradient>
<linearGradient id="paint2_linear_321_17072" x1="105.07" y1="43.4809" x2="139.944" y2="43.4809" gradientUnits="userSpaceOnUse">
<stop stop-color="#53AAE6"/>
<stop offset="1" stop-color="#A4D2F0"/>
</linearGradient>
<linearGradient id="paint3_linear_321_17072" x1="54.7173" y1="107.231" x2="54.7173" y2="74.7772" gradientUnits="userSpaceOnUse">
<stop stop-color="#4E5660"/>
<stop offset="1" stop-color="#64768D"/>
</linearGradient>
<linearGradient id="paint4_linear_321_17072" x1="54.7172" y1="97.5045" x2="54.7172" y2="83.9545" gradientUnits="userSpaceOnUse">
<stop stop-color="#53AAE6"/>
<stop offset="1" stop-color="#A4D2F0"/>
</linearGradient>
<linearGradient id="paint5_linear_321_17072" x1="114.393" y1="107.231" x2="114.393" y2="74.7772" gradientUnits="userSpaceOnUse">
<stop stop-color="#4E5660"/>
<stop offset="1" stop-color="#64768D"/>
</linearGradient>
<linearGradient id="paint6_linear_321_17072" x1="114.393" y1="97.5045" x2="114.393" y2="83.9545" gradientUnits="userSpaceOnUse">
<stop stop-color="#53AAE6"/>
<stop offset="1" stop-color="#A4D2F0"/>
</linearGradient>
<linearGradient id="paint7_linear_321_17072" x1="137.171" y1="90.774" x2="137.171" y2="74.623" gradientUnits="userSpaceOnUse">
<stop stop-color="#EC6F80"/>
<stop offset="1" stop-color="#ECA0AA"/>
</linearGradient>
<linearGradient id="paint8_linear_321_17072" x1="32.3838" y1="90.774" x2="32.3838" y2="74.623" gradientUnits="userSpaceOnUse">
<stop stop-color="#EC6F80"/>
<stop offset="1" stop-color="#ECA0AA"/>
</linearGradient>
<linearGradient id="paint9_linear_321_17072" x1="99.2741" y1="24.2671" x2="99.2741" y2="11.3666" gradientUnits="userSpaceOnUse">
<stop stop-color="#EC6F80"/>
<stop offset="1" stop-color="#ECA0AA"/>
</linearGradient>
<linearGradient id="paint10_linear_321_17072" x1="62.8572" y1="66.4453" x2="62.8572" y2="32.1203" gradientUnits="userSpaceOnUse">
<stop stop-color="#EC6F80"/>
<stop offset="1" stop-color="#ECA0AA"/>
</linearGradient>
<linearGradient id="paint11_linear_321_17072" x1="62.8572" y1="40.026" x2="62.8572" y2="59.1535" gradientUnits="userSpaceOnUse">
<stop stop-color="#F9EDAF"/>
<stop offset="1" stop-color="#FFFCDD"/>
</linearGradient>
<linearGradient id="paint12_linear_321_17072" x1="104.494" y1="46.0513" x2="130.398" y2="46.0513" gradientUnits="userSpaceOnUse">
<stop stop-color="#53AAE6"/>
<stop offset="1" stop-color="#A4D2F0"/>
</linearGradient>
<linearGradient id="paint13_linear_321_17072" x1="24.4613" y1="112.374" x2="24.4613" y2="72.6657" gradientUnits="userSpaceOnUse">
<stop offset="0.358549" stop-color="#D4DBDB"/>
<stop offset="1" stop-color="#F3F3F3"/>
</linearGradient>
<linearGradient id="paint14_linear_321_17072" x1="24.4613" y1="76.9944" x2="24.4613" y2="60.6642" gradientUnits="userSpaceOnUse">
<stop stop-color="#F4C22C"/>
<stop offset="1" stop-color="#F9E198"/>
</linearGradient>
<linearGradient id="paint15_linear_321_17072" x1="24.461" y1="99.5205" x2="24.461" y2="90.23" gradientUnits="userSpaceOnUse">
<stop stop-color="#4BB370"/>
<stop offset="0.199" stop-color="#4EB575"/>
<stop offset="0.4501" stop-color="#56BC85"/>
<stop offset="0.7278" stop-color="#64C89F"/>
<stop offset="1" stop-color="#76D6BF"/>
</linearGradient>
<linearGradient id="paint16_linear_321_17072" x1="26.8572" y1="59.743" x2="31.0058" y2="42.6149" gradientUnits="userSpaceOnUse">
<stop stop-color="#EC6F80"/>
<stop offset="1" stop-color="#ECA0AA"/>
</linearGradient>
<linearGradient id="paint17_linear_321_17072" x1="36.5196" y1="52.4211" x2="40.0715" y2="37.757" gradientUnits="userSpaceOnUse">
<stop stop-color="#F4C22C"/>
<stop offset="1" stop-color="#F9E198"/>
</linearGradient>
<linearGradient id="paint18_linear_321_17072" x1="0.651147" y1="38.001" x2="9.5145" y2="38.8152" gradientUnits="userSpaceOnUse">
<stop stop-color="#EC6F80"/>
<stop offset="1" stop-color="#ECA0AA"/>
</linearGradient>
<linearGradient id="paint19_linear_321_17072" x1="5.02011" y1="42.291" x2="12.6085" y2="42.988" gradientUnits="userSpaceOnUse">
<stop stop-color="#F4C22C"/>
<stop offset="1" stop-color="#F9E198"/>
</linearGradient>
<linearGradient id="paint20_linear_321_17072" x1="24.3674" y1="35.7978" x2="18.6079" y2="37.111" gradientUnits="userSpaceOnUse">
<stop stop-color="#F4C22C"/>
<stop offset="1" stop-color="#F9E198"/>
</linearGradient>
<linearGradient id="paint21_linear_321_17072" x1="26.2954" y1="32.4816" x2="21.6432" y2="33.5423" gradientUnits="userSpaceOnUse">
<stop stop-color="#53AAE6"/>
<stop offset="1" stop-color="#A4D2F0"/>
</linearGradient>
</defs>
</svg>
