<svg width="118" height="118" viewBox="0 0 118 118" fill="none" xmlns="http://www.w3.org/2000/svg">
<path d="M114.564 73.91L73.91 114.564C69.3287 119.146 61.9005 119.146 57.319 114.564L3.43623 60.681C-1.14508 56.0995 -1.14508 48.6716 3.43623 44.09L44.0903 3.43623C48.6716 -1.14508 56.0997 -1.14508 60.6813 3.43623L114.564 57.3192C119.146 61.9005 119.146 69.3286 114.564 73.91Z" fill="url(#paint0_linear_321_17007)"/>
<path d="M68.6389 67.6526C79.0026 57.6352 79.2833 41.1131 69.2659 30.7494C59.2485 20.3858 42.7264 20.1051 32.3627 30.1225C21.9991 40.1399 21.7184 56.662 31.7358 67.0257C41.7532 77.3893 58.2753 77.67 68.6389 67.6526Z" fill="url(#paint1_linear_321_17007)"/>
<path d="M38.0567 36.0133C32.0035 41.8643 30.9653 50.9492 35.0306 57.9084L35.0319 57.9084C36.0881 58.5321 36.9562 59.4303 37.143 60.8094C37.3005 60.9857 37.4608 61.1603 37.6266 61.3319C44.4993 68.4421 55.8347 68.6347 62.945 61.762C70.0552 54.8893 70.2478 43.5537 63.3751 36.4434C56.5024 29.3332 45.167 29.1406 38.0567 36.0133Z" fill="url(#paint2_linear_321_17007)"/>
<path d="M65.2381 33.8443C63.9568 32.5905 62.5224 31.5032 60.9801 30.6167C60.413 30.2907 60.2175 29.5668 60.5435 28.9997C60.8695 28.433 61.5933 28.2371 62.1605 28.5631C63.8748 29.5483 65.4684 30.7558 66.8942 32.1508C67.3618 32.6082 67.3702 33.358 66.9128 33.8256C66.4628 34.2883 65.7106 34.3064 65.2381 33.8443Z" fill="#FFF6BD"/>
<path d="M56.7967 28.788C56.5511 28.7113 56.3013 28.6384 56.0542 28.571C55.4231 28.3991 55.0507 27.7482 55.2227 27.1171C55.3945 26.4858 56.0455 26.1135 56.6765 26.2856C56.9515 26.3604 57.2295 26.4417 57.5029 26.527C58.1272 26.7219 58.4752 27.3862 58.2802 28.0105C58.0865 28.6311 57.4252 28.9842 56.7967 28.788Z" fill="#FFF6BD"/>
<path d="M51.2427 46.4769C50.8828 46.6414 50.5119 46.8072 50.1377 46.9679L45.9786 42.665C46.8453 42.1328 47.6215 42.0884 47.6734 42.0861C48.3274 42.0676 48.8424 41.5225 48.8238 40.8687C48.8054 40.2148 48.2603 39.6998 47.6064 39.7184C47.5104 39.7207 45.9047 39.7781 44.3072 40.9358L43.4386 40.0372C42.984 39.5669 42.2343 39.5541 41.764 40.0088C41.2936 40.4634 41.2809 41.2131 41.7355 41.6834L42.6672 42.6473C42.5546 42.8148 42.4451 42.9903 42.3404 43.1775C40.4453 46.5672 43.2679 50.8448 46.6485 50.4944C47.4746 50.4086 48.3873 50.1792 49.5394 49.7571L54.7844 55.1833C54.0184 55.8331 53.3709 56.1356 52.0523 56.3881C51.4098 56.5112 50.9887 57.1316 51.1117 57.774C51.2347 58.4164 51.8551 58.8375 52.4976 58.7146C54.3711 58.356 55.3614 57.819 56.4313 56.8873L57.4029 57.8925C57.8574 58.3627 58.6072 58.3756 59.0776 57.921C59.5479 57.4663 59.5605 56.7165 59.106 56.2463L58.0681 55.1725C61.2724 50.598 56.8434 43.9175 51.2427 46.4769ZM46.4042 48.1382C44.9789 48.2859 43.4836 46.131 44.3698 44.4088L47.7117 47.8662C47.2473 47.9996 46.8052 48.0967 46.4042 48.1382ZM56.3696 53.415L51.8922 48.7828C52.0028 48.7331 52.1129 48.6836 52.2273 48.6314C55.4195 47.1724 57.7366 50.8049 56.3696 53.415Z" fill="#A37460"/>
<path d="M84.8654 25.3695L77.9226 32.3122L88.4115 42.8011L74.782 56.4303C73.228 57.9843 73.17 60.4851 74.6501 62.1096C76.2307 63.8443 78.94 63.9073 80.5995 62.2478L101.172 41.6756L84.8654 25.3695Z" fill="#D45566"/>
<path d="M26.6782 83.5567C19.9285 90.3064 19.6715 101.302 26.3331 108.138C33.1017 115.085 44.2209 115.14 51.0581 108.303L45.8734 103.118C44.1767 101.421 44.1767 98.6703 45.8734 96.9739L101.172 41.6756L84.8654 25.3693L26.6782 83.5567Z" fill="url(#paint3_linear_321_17007)"/>
<path d="M115.182 41.0435V19.7695C115.182 15.1247 111.416 11.3593 106.772 11.3593H85.4976C79.2635 11.3593 76.1415 18.8964 80.5496 23.3048L103.236 45.9916C107.644 50.3996 115.182 47.2776 115.182 41.0435Z" fill="url(#paint4_linear_321_17007)"/>
<path d="M108.512 71.2661C111.848 67.5984 111.578 61.9213 107.911 58.586C104.243 55.2507 98.5659 55.5201 95.2305 59.1878C91.8952 62.8555 92.1646 68.5325 95.8323 71.8679C99.5 75.2032 105.177 74.9338 108.512 71.2661Z" fill="url(#paint5_linear_321_17007)"/>
<path d="M101.492 62.5228L99.6164 60.8174C99.3709 60.5942 98.9911 60.6124 98.768 60.8577L97.2279 62.5513C97.0047 62.7967 97.0228 63.1765 97.2682 63.3996L99.1435 65.105C99.2885 65.2369 99.2992 65.4615 99.1673 65.6066L97.4619 67.4819C97.2387 67.7273 97.2568 68.1071 97.5023 68.3303L99.1959 69.8704C99.4413 70.0936 99.8211 70.0755 100.044 69.8302L101.75 67.9549C101.881 67.8098 102.106 67.7991 102.251 67.9311L104.126 69.6364C104.372 69.8596 104.752 69.8416 104.975 69.5962L106.515 67.9026C106.738 67.6572 106.72 67.2774 106.475 67.0542L104.599 65.3489C104.454 65.217 104.444 64.9923 104.576 64.8473L106.281 62.972C106.504 62.7265 106.486 62.3468 106.241 62.1236L104.547 60.5835C104.302 60.3603 103.922 60.3784 103.699 60.6237L101.993 62.499C101.861 62.644 101.637 62.6547 101.492 62.5228Z" fill="url(#paint6_linear_321_17007)"/>
<path d="M68.2799 105.158L67.2943 104.141L68.6527 102.824C68.8963 102.588 69.0174 102.348 69.016 102.103C69.0146 101.857 68.901 101.618 68.6751 101.385C68.4493 101.152 68.2164 101.034 67.9766 101.03C67.7316 101.021 67.4873 101.135 67.2437 101.371L65.8853 102.687L65.1231 101.901L66.4179 100.646C66.8204 100.256 67.2266 99.9598 67.6365 99.7575C68.0414 99.55 68.439 99.4676 68.8295 99.5102C69.22 99.5528 69.5949 99.7594 69.9543 100.13L70.062 100.241C70.3957 100.586 70.6037 100.959 70.6861 101.362C70.7633 101.76 70.7125 102.173 70.5337 102.603C70.3498 103.028 70.0301 103.461 69.5746 103.903L68.2799 105.158ZM67.1678 106.236L61.4625 100.35L62.7335 99.1178L68.4387 105.004L67.1678 106.236ZM65.6852 102.481L64.9306 101.702L66.0745 100.594C66.3234 100.352 66.4418 100.114 66.4298 99.8795C66.4179 99.6446 66.3092 99.4213 66.1039 99.2095C65.8883 98.987 65.6633 98.8662 65.4289 98.8469C65.1945 98.8276 64.9529 98.9386 64.704 99.1798L63.5601 100.289L62.5746 99.2718L63.639 98.24C64.3063 97.5933 64.9533 97.2383 65.5802 97.1751C66.2123 97.1067 66.7799 97.332 67.2829 97.851L67.3984 97.9701C67.7475 98.3302 67.9345 98.7086 67.9596 99.1054C67.99 99.4971 67.8952 99.892 67.6752 100.29C67.4553 100.678 67.1468 101.064 66.7496 101.449L65.6852 102.481ZM72.1639 98.0962L71.0705 96.9682L72.1111 95.9596C72.3124 95.7646 72.446 95.558 72.512 95.34C72.5833 95.1169 72.5893 94.8953 72.5302 94.6753C72.4659 94.45 72.3413 94.2421 72.1566 94.0514C71.9615 93.8502 71.755 93.7166 71.5369 93.6506C71.3138 93.5793 71.0921 93.5785 70.872 93.6481C70.652 93.7072 70.4414 93.8343 70.2402 94.0294L69.1996 95.038L68.1063 93.91L69.0833 92.963C69.5758 92.4856 70.0764 92.1596 70.585 91.985C71.0989 91.8053 71.5949 91.7765 72.0728 91.8987C72.556 92.0158 73.0029 92.2861 73.4136 92.7098L73.5368 92.8369C73.9371 93.2499 74.1908 93.7024 74.2979 94.1944C74.4051 94.6759 74.3609 95.1707 74.1652 95.6787C73.9748 96.1817 73.6334 96.6718 73.1409 97.1492L72.1639 98.0962ZM72.6292 100.865L66.9624 95.0187L68.2651 93.756L73.9319 99.6024L72.6292 100.865ZM79.7051 94.2993C79.2655 94.7254 78.8047 95.0128 78.3225 95.1618C77.8405 95.3003 77.3582 95.2954 76.8754 95.147C76.398 94.9936 75.9386 94.6891 75.4971 94.2337L75.2123 93.9398L76.4991 92.6925L76.8533 93.0579C77.0997 93.3121 77.374 93.4467 77.6762 93.4619C77.9787 93.4666 78.2623 93.3406 78.5271 93.084C78.7865 92.8325 78.916 92.5581 78.9154 92.2608C78.915 91.953 78.7916 91.6721 78.5452 91.4179L75.7272 88.5106L77.03 87.2479L79.7787 90.0837C80.2201 90.5391 80.5074 91.0104 80.6406 91.4975C80.7791 91.9795 80.769 92.4618 80.6102 92.9444C80.4516 93.4165 80.1499 93.8682 79.7051 94.2993ZM73.5776 90.9023L72.4766 89.7664L76.0829 86.2709L77.184 87.4068L73.5776 90.9023ZM85.0715 89.0978C84.5472 89.6059 84.0255 89.9525 83.5062 90.1373C82.9819 90.3169 82.4884 90.3535 82.0259 90.2472C81.5583 90.1356 81.1422 89.8918 80.7778 89.5158L82.0408 88.2916C82.1845 88.4399 82.3577 88.5391 82.5603 88.5892C82.7682 88.6342 82.9954 88.6142 83.2419 88.5294C83.4832 88.4393 83.7389 88.2634 84.009 88.0016C84.2526 87.7655 84.4256 87.5361 84.5282 87.3134C84.6308 87.0907 84.6705 86.8827 84.6475 86.6894C84.6193 86.4908 84.5333 86.3173 84.3896 86.169C84.2099 85.9837 83.9894 85.9151 83.7278 85.9631C83.4612 86.0059 83.135 86.1834 82.7494 86.4955L82.274 86.8793C81.6506 87.3911 81.0154 87.6576 80.3683 87.6788C79.7213 87.7 79.1488 87.4538 78.6509 86.9401C78.2916 86.5694 78.0684 86.1643 77.9814 85.7248C77.8997 85.2803 77.9484 84.8325 78.1275 84.3815C78.3015 83.9253 78.6057 83.4867 79.0399 83.0658C79.4953 82.6244 79.9616 82.3265 80.4386 82.1723C80.9158 82.0076 81.3803 81.9836 81.8323 82.1001C82.2791 82.2114 82.6872 82.4577 83.0568 82.839L81.7859 84.0709C81.6473 83.9279 81.4871 83.8315 81.3053 83.7818C81.1184 83.7267 80.9202 83.7288 80.7107 83.7881C80.5064 83.8423 80.3037 83.9669 80.1024 84.162C79.9118 84.3468 79.7811 84.5351 79.7103 84.727C79.6448 84.9137 79.6341 85.0935 79.6784 85.2663C79.7175 85.4338 79.7987 85.5811 79.9218 85.7082C80.081 85.8723 80.2778 85.9589 80.5124 85.9677C80.7469 85.9766 81.0069 85.8633 81.2922 85.6279L81.7755 85.2364C82.2351 84.8628 82.6983 84.5936 83.165 84.4288C83.6266 84.2587 84.0707 84.2135 84.4971 84.2931C84.9237 84.3624 85.3115 84.577 85.6605 84.9371C86.0198 85.3078 86.2376 85.7285 86.3137 86.1991C86.3899 86.6592 86.3251 87.138 86.1191 87.6355C85.9132 88.133 85.564 88.6204 85.0715 89.0978Z" fill="#1443BD"/>
<path d="M68.2799 105.158L67.2943 104.141L68.6527 102.824C68.8963 102.588 69.0174 102.348 69.016 102.103C69.0146 101.857 68.901 101.618 68.6751 101.385C68.4493 101.152 68.2164 101.034 67.9766 101.03C67.7316 101.021 67.4873 101.135 67.2437 101.371L65.8853 102.687L65.1231 101.901L66.4179 100.646C66.8204 100.256 67.2266 99.9598 67.6365 99.7575C68.0414 99.55 68.439 99.4676 68.8295 99.5102C69.22 99.5528 69.5949 99.7594 69.9543 100.13L70.062 100.241C70.3957 100.586 70.6037 100.959 70.6861 101.362C70.7633 101.76 70.7125 102.173 70.5337 102.603C70.3498 103.028 70.0301 103.461 69.5746 103.903L68.2799 105.158ZM67.1678 106.236L61.4625 100.35L62.7335 99.1178L68.4387 105.004L67.1678 106.236ZM65.6852 102.481L64.9306 101.702L66.0745 100.594C66.3234 100.352 66.4418 100.114 66.4298 99.8795C66.4179 99.6446 66.3092 99.4213 66.1039 99.2095C65.8883 98.987 65.6633 98.8662 65.4289 98.8469C65.1945 98.8276 64.9529 98.9386 64.704 99.1798L63.5601 100.289L62.5746 99.2718L63.639 98.24C64.3063 97.5933 64.9533 97.2383 65.5802 97.1751C66.2123 97.1067 66.7799 97.332 67.2829 97.851L67.3984 97.9701C67.7475 98.3302 67.9345 98.7086 67.9596 99.1054C67.99 99.4971 67.8952 99.892 67.6752 100.29C67.4553 100.678 67.1468 101.064 66.7496 101.449L65.6852 102.481ZM72.1639 98.0962L71.0705 96.9682L72.1111 95.9596C72.3124 95.7646 72.446 95.558 72.512 95.34C72.5833 95.1169 72.5893 94.8953 72.5302 94.6753C72.4659 94.45 72.3413 94.2421 72.1566 94.0514C71.9615 93.8502 71.755 93.7166 71.5369 93.6506C71.3138 93.5793 71.0921 93.5785 70.872 93.6481C70.652 93.7072 70.4414 93.8343 70.2402 94.0294L69.1996 95.038L68.1063 93.91L69.0833 92.963C69.5758 92.4856 70.0764 92.1596 70.585 91.985C71.0989 91.8053 71.5949 91.7765 72.0728 91.8987C72.556 92.0158 73.0029 92.2861 73.4136 92.7098L73.5368 92.8369C73.9371 93.2499 74.1908 93.7024 74.2979 94.1944C74.4051 94.6759 74.3609 95.1707 74.1652 95.6787C73.9748 96.1817 73.6334 96.6718 73.1409 97.1492L72.1639 98.0962ZM72.6292 100.865L66.9624 95.0187L68.2651 93.756L73.9319 99.6024L72.6292 100.865ZM79.7051 94.2993C79.2655 94.7254 78.8047 95.0128 78.3225 95.1618C77.8405 95.3003 77.3582 95.2954 76.8754 95.147C76.398 94.9936 75.9386 94.6891 75.4971 94.2337L75.2123 93.9398L76.4991 92.6925L76.8533 93.0579C77.0997 93.3121 77.374 93.4467 77.6762 93.4619C77.9787 93.4666 78.2623 93.3406 78.5271 93.084C78.7865 92.8325 78.916 92.5581 78.9154 92.2608C78.915 91.953 78.7916 91.6721 78.5452 91.4179L75.7272 88.5106L77.03 87.2479L79.7787 90.0837C80.2201 90.5391 80.5074 91.0104 80.6406 91.4975C80.7791 91.9795 80.769 92.4618 80.6102 92.9444C80.4516 93.4165 80.1499 93.8682 79.7051 94.2993ZM73.5776 90.9023L72.4766 89.7664L76.0829 86.2709L77.184 87.4068L73.5776 90.9023ZM85.0715 89.0978C84.5472 89.6059 84.0255 89.9525 83.5062 90.1373C82.9819 90.3169 82.4884 90.3535 82.0259 90.2472C81.5583 90.1356 81.1422 89.8918 80.7778 89.5158L82.0408 88.2916C82.1845 88.4399 82.3577 88.5391 82.5603 88.5892C82.7682 88.6342 82.9954 88.6142 83.2419 88.5294C83.4832 88.4393 83.7389 88.2634 84.009 88.0016C84.2526 87.7655 84.4256 87.5361 84.5282 87.3134C84.6308 87.0907 84.6705 86.8827 84.6475 86.6894C84.6193 86.4908 84.5333 86.3173 84.3896 86.169C84.2099 85.9837 83.9894 85.9151 83.7278 85.9631C83.4612 86.0059 83.135 86.1834 82.7494 86.4955L82.274 86.8793C81.6506 87.3911 81.0154 87.6576 80.3683 87.6788C79.7213 87.7 79.1488 87.4538 78.6509 86.9401C78.2916 86.5694 78.0684 86.1643 77.9814 85.7248C77.8997 85.2803 77.9484 84.8325 78.1275 84.3815C78.3015 83.9253 78.6057 83.4867 79.0399 83.0658C79.4953 82.6244 79.9616 82.3265 80.4386 82.1723C80.9158 82.0076 81.3803 81.9836 81.8323 82.1001C82.2791 82.2114 82.6872 82.4577 83.0568 82.839L81.7859 84.0709C81.6473 83.9279 81.4871 83.8315 81.3053 83.7818C81.1184 83.7267 80.9202 83.7288 80.7107 83.7881C80.5064 83.8423 80.3037 83.9669 80.1024 84.162C79.9118 84.3468 79.7811 84.5351 79.7103 84.727C79.6448 84.9137 79.6341 85.0935 79.6784 85.2663C79.7175 85.4338 79.7987 85.5811 79.9218 85.7082C80.081 85.8723 80.2778 85.9589 80.5124 85.9677C80.7469 85.9766 81.0069 85.8633 81.2922 85.6279L81.7755 85.2364C82.2351 84.8628 82.6983 84.5936 83.165 84.4288C83.6266 84.2587 84.0707 84.2135 84.4971 84.2931C84.9237 84.3624 85.3115 84.577 85.6605 84.9371C86.0198 85.3078 86.2376 85.7285 86.3137 86.1991C86.3899 86.6592 86.3251 87.138 86.1191 87.6355C85.9132 88.133 85.564 88.6204 85.0715 89.0978Z" fill="white" fill-opacity="0.95"/>
<defs>
<linearGradient id="paint0_linear_321_17007" x1="59.0001" y1="102.44" x2="59.0001" y2="-5.30071" gradientUnits="userSpaceOnUse">
<stop stop-color="#26AE77"/>
<stop offset="0.2532" stop-color="#219868"/>
<stop offset="0.5725" stop-color="#3BC18B"/>
<stop offset="0.9261" stop-color="#57937B"/>
<stop offset="1" stop-color="#32BD85"/>
</linearGradient>
<linearGradient id="paint1_linear_321_17007" x1="71.7573" y1="70.8788" x2="34.3032" y2="32.1301" gradientUnits="userSpaceOnUse">
<stop stop-color="#F4C22C"/>
<stop offset="1" stop-color="#F9E198"/>
</linearGradient>
<linearGradient id="paint2_linear_321_17007" x1="65.6338" y1="64.5436" x2="42.7669" y2="40.8863" gradientUnits="userSpaceOnUse">
<stop stop-color="#F4D952"/>
<stop offset="1" stop-color="#F9EDAF"/>
</linearGradient>
<linearGradient id="paint3_linear_321_17007" x1="107.7" y1="69.3797" x2="36.1586" y2="69.3797" gradientUnits="userSpaceOnUse">
<stop stop-color="#DD5C6E"/>
<stop offset="1" stop-color="#EC8290"/>
</linearGradient>
<linearGradient id="paint4_linear_321_17007" x1="96.8338" y1="48.762" x2="96.8338" y2="9.82525" gradientUnits="userSpaceOnUse">
<stop stop-color="#EB485E"/>
<stop offset="1" stop-color="#E38F9A"/>
</linearGradient>
<linearGradient id="paint5_linear_321_17007" x1="108.285" y1="71.0594" x2="95.3598" y2="59.3056" gradientUnits="userSpaceOnUse">
<stop stop-color="#F9EDAF"/>
<stop offset="1" stop-color="#FFFCDD"/>
</linearGradient>
<linearGradient id="paint6_linear_321_17007" x1="98.3367" y1="62.0127" x2="105.539" y2="68.5625" gradientUnits="userSpaceOnUse">
<stop stop-color="#26AE77"/>
<stop offset="0.2532" stop-color="#26AE77"/>
<stop offset="0.5725" stop-color="#26AE77"/>
<stop offset="0.9261" stop-color="#26AE77"/>
<stop offset="1" stop-color="#90E6D2"/>
</linearGradient>
</defs>
</svg>
