<svg width="138" height="127" viewBox="0 0 138 127" fill="none" xmlns="http://www.w3.org/2000/svg">
<path d="M69.8432 46.9699L68.8362 44.2359C68.1106 42.2661 66.2341 40.9575 64.1352 40.9575H45.688C43.5889 40.9575 41.7124 42.2661 40.987 44.2359L39.98 46.9699C39.5116 48.2418 38.2996 49.0871 36.9442 49.0871H34.6714C30.1733 49.0871 26.5269 52.7335 26.5269 57.2316V65.3523H113.166V57.2316C113.166 52.7335 109.519 49.0871 105.022 49.0871H72.879C71.5234 49.0871 70.3117 48.242 69.8432 46.9699Z" fill="url(#paint0_linear_321_17052)"/>
<path d="M82.495 80.6729L59.4973 27.9342C57.5276 23.4172 59.5927 18.1582 64.1098 16.1885L98.7165 1.09773C102.304 -0.466604 106.48 1.17334 108.044 4.76073L132.51 60.8668C134.075 64.4541 132.435 68.6303 128.847 70.1946L94.2408 85.2854C89.7236 87.2554 84.4649 85.1903 82.495 80.6729Z" fill="url(#paint1_linear_321_17052)"/>
<path d="M118.432 74.7364C121.117 66.5608 116.97 57.5834 108.861 54.3991L100.527 51.1265C98.4125 50.2961 96.0251 51.3372 95.1947 53.4518C94.3642 55.5665 95.4053 57.9539 97.52 58.7843L107.804 79.3708L118.432 74.7364Z" fill="#C2C8CF"/>
<path d="M113.165 104.46L69.8458 112.554L26.5264 104.46V65.3521C26.5264 60.854 30.1728 57.2078 34.671 57.2078H105.021C109.519 57.2078 113.166 60.8542 113.166 65.3521L113.165 104.46Z" fill="url(#paint2_linear_321_17052)"/>
<path d="M65.8168 41.101C59.1887 41.101 52.6656 40.9057 46.3016 47.2697C42.0589 51.5124 20.6521 72.9192 20.6521 72.9192L5.354 57.6211L21.874 41.101C34.0084 28.9663 53.6822 28.9663 65.8168 41.101Z" fill="url(#paint3_linear_321_17052)"/>
<path d="M6.42491 78.273H22.7008C28.7293 78.273 31.7483 70.9843 27.4857 66.7214L11.5515 50.7873C7.28864 46.5244 0 49.5435 0 55.5721V71.8481C0 75.3966 2.87637 78.273 6.42491 78.273Z" fill="url(#paint4_linear_321_17052)"/>
<path d="M77.559 34.7091C76.9151 34.4562 76.3676 33.9576 76.0691 33.2735C75.4724 31.905 76.0979 30.312 77.4665 29.715L97.8558 20.8239C99.2245 20.2273 100.817 20.8527 101.414 22.2213C102.011 23.5898 101.385 25.1828 100.017 25.7798L79.6276 34.6709C78.9434 34.9694 78.2029 34.9619 77.559 34.7091Z" fill="#C2C8CF"/>
<path d="M83.9488 49.3625C83.3049 49.1096 82.7574 48.6113 82.459 47.9269C81.8622 46.5584 82.4878 44.9654 83.8564 44.3684L104.246 35.4773C105.614 34.8803 107.207 35.5061 107.804 36.8747C108.401 38.2432 107.775 39.8365 106.407 40.4332L86.0174 49.3243C85.3331 49.6225 84.5925 49.6152 83.9488 49.3625Z" fill="#C2C8CF"/>
<path d="M26.5264 104.46V108.745C26.5264 114.409 31.118 119 36.782 119H102.91C108.574 119 113.165 114.409 113.165 108.745V104.46H26.5264Z" fill="url(#paint5_linear_321_17052)"/>
<path d="M69.846 97.4598C79.0282 97.4598 86.4718 90.0162 86.4718 80.834C86.4718 71.6519 79.0282 64.2083 69.846 64.2083C60.6638 64.2083 53.2202 71.6519 53.2202 80.834C53.2202 90.0162 60.6638 97.4598 69.846 97.4598Z" fill="#1443BD"/>
<path d="M69.846 97.4598C79.0282 97.4598 86.4718 90.0162 86.4718 80.834C86.4718 71.6519 79.0282 64.2083 69.846 64.2083C60.6638 64.2083 53.2202 71.6519 53.2202 80.834C53.2202 90.0162 60.6638 97.4598 69.846 97.4598Z" fill="white" fill-opacity="0.95"/>
<path d="M73.0784 76.9439V72.249C73.0784 71.6346 72.5803 71.1367 71.9661 71.1367H67.7261C67.1116 71.1367 66.6138 71.6348 66.6138 72.249V76.9439C66.6138 77.307 66.3192 77.6016 65.9561 77.6016H61.2612C60.6468 77.6016 60.1489 78.0997 60.1489 78.7141V82.9541C60.1489 83.5686 60.647 84.0664 61.2612 84.0664H65.9561C66.3192 84.0664 66.6138 84.361 66.6138 84.7241V89.419C66.6138 90.0334 67.1119 90.5315 67.7261 90.5315H71.9661C72.5805 90.5315 73.0784 90.0334 73.0784 89.419V84.7241C73.0784 84.361 73.3729 84.0664 73.7361 84.0664H78.4309C79.0454 84.0664 79.5432 83.5683 79.5432 82.9541V78.7141C79.5432 78.0997 79.0451 77.6016 78.4309 77.6016H73.7361C73.3729 77.6016 73.0784 77.307 73.0784 76.9439Z" fill="url(#paint6_linear_321_17052)"/>
<path d="M79 118.549C84.6254 118.549 90.1617 118.715 95.563 113.313C99.1639 109.712 117.332 91.5438 117.332 91.5438L130.316 104.528L116.295 118.549C105.997 128.848 89.299 128.848 79 118.549Z" fill="url(#paint7_linear_321_17052)"/>
<path d="M129.407 87H115.593C110.477 87 107.915 93.1862 111.532 96.8041L125.056 110.328C128.674 113.946 134.86 111.383 134.86 106.267V92.453C134.86 89.4414 132.419 87 129.407 87Z" fill="url(#paint8_linear_321_17052)"/>
<defs>
<linearGradient id="paint0_linear_321_17052" x1="69.846" y1="66.961" x2="69.846" y2="41.8376" gradientUnits="userSpaceOnUse">
<stop stop-color="#0E2C7A"/>
<stop offset="0.216" stop-color="#0E2C7A"/>
<stop offset="0.4884" stop-color="#1443BD"/>
<stop offset="0.7898" stop-color="#1443BD"/>
<stop offset="1" stop-color="#1443BD"/>
</linearGradient>
<linearGradient id="paint1_linear_321_17052" x1="85.512" y1="70.3825" x2="107.91" y2="13.3466" gradientUnits="userSpaceOnUse">
<stop stop-color="#D4DBDB"/>
<stop offset="1" stop-color="#F3F3F3"/>
</linearGradient>
<linearGradient id="paint2_linear_321_17052" x1="69.8458" y1="113.325" x2="69.8458" y2="58.8379" gradientUnits="userSpaceOnUse">
<stop stop-color="#4C76E2"/>
<stop offset="0.2532" stop-color="#3D67D5"/>
<stop offset="0.5725" stop-color="#3A6EF5"/>
<stop offset="0.9261" stop-color="#396BEF"/>
<stop offset="1" stop-color="#2A60EE"/>
</linearGradient>
<linearGradient id="paint3_linear_321_17052" x1="35.5852" y1="62.6537" x2="35.5852" y2="33.6156" gradientUnits="userSpaceOnUse">
<stop stop-color="#74D2E8"/>
<stop offset="1" stop-color="#BAEAF5"/>
</linearGradient>
<linearGradient id="paint4_linear_321_17052" x1="14.7404" y1="94.5635" x2="14.7404" y2="56.2503" gradientUnits="userSpaceOnUse">
<stop stop-color="#74D2E8"/>
<stop offset="1" stop-color="#BAEAF5"/>
</linearGradient>
<linearGradient id="paint5_linear_321_17052" x1="69.846" y1="97.5128" x2="69.846" y2="123.038" gradientUnits="userSpaceOnUse">
<stop stop-color="#0E2C7A"/>
<stop offset="0.216" stop-color="#0E2C7A"/>
<stop offset="0.4884" stop-color="#1443BD"/>
<stop offset="0.75" stop-color="#1443BD"/>
<stop offset="1" stop-color="#0E2C7A"/>
</linearGradient>
<linearGradient id="paint6_linear_321_17052" x1="69.8458" y1="71.985" x2="69.8458" y2="90.0167" gradientUnits="userSpaceOnUse">
<stop stop-color="#0E2C7A"/>
<stop offset="0.2532" stop-color="#1443BD"/>
<stop offset="0.5725" stop-color="#1443BD"/>
<stop offset="0.9261" stop-color="#1443BD"/>
<stop offset="1" stop-color="#0E2C7A"/>
</linearGradient>
<linearGradient id="paint7_linear_321_17052" x1="115.329" y1="108.908" x2="66.7724" y2="108.908" gradientUnits="userSpaceOnUse">
<stop stop-color="#DD5C6E"/>
<stop offset="1" stop-color="#EC8290"/>
</linearGradient>
<linearGradient id="paint8_linear_321_17052" x1="136.189" y1="106.5" x2="113.481" y2="83.792" gradientUnits="userSpaceOnUse">
<stop stop-color="#EC6F80"/>
<stop offset="1" stop-color="#ECA0AA"/>
</linearGradient>
</defs>
</svg>
