<svg width="118" height="118" viewBox="0 0 118 118" fill="none" xmlns="http://www.w3.org/2000/svg">
<g clip-path="url(#clip0_321_17028)">
<path d="M23.4073 97.2612H104.985C112.173 97.2612 118 91.4341 118 84.246V35.4335L59 25.7008L0 35.4335V73.854C0 86.7815 10.4797 97.2612 23.4073 97.2612Z" fill="url(#paint0_linear_321_17028)"/>
<path d="M22.0904 92.2514V88.1862C22.0904 80.9981 16.2633 75.171 9.07519 75.171H5.00983C2.32098 75.171 0 73.5716 0 70.1193V63.009C0 61.1915 1.47335 59.7181 3.29084 59.7181C5.10832 59.7181 6.58167 61.1915 6.58167 63.009V68.5893H9.07495C19.898 68.5893 28.6719 77.3631 28.6719 88.1862V97.2614H27.1412C23.6896 97.261 22.0904 94.9402 22.0904 92.2514Z" fill="#C2C8CF"/>
<path d="M118 35.4334H0V20.0934C0 13.4732 5.36688 8.10632 11.9871 8.10632H106.013C112.633 8.10632 118 13.4732 118 20.0934V35.4334Z" fill="url(#paint1_linear_321_17028)"/>
<path d="M87.7589 88.3614C100.566 88.3614 110.948 77.9791 110.948 65.172C110.948 52.3649 100.566 41.9827 87.7589 41.9827C74.9518 41.9827 64.5696 52.3649 64.5696 65.172C64.5696 77.9791 74.9518 88.3614 87.7589 88.3614Z" fill="url(#paint2_linear_321_17028)"/>
<path d="M92.2672 59.7462V53.1979C92.2672 52.3411 91.5726 51.6462 90.7155 51.6462H84.8017C83.9446 51.6462 83.25 52.3408 83.25 53.1979V59.7462C83.25 60.2527 82.8394 60.6636 82.3328 60.6636H75.7845C74.9275 60.6636 74.2329 61.3582 74.2329 62.2152V68.1291C74.2329 68.9861 74.9275 69.6807 75.7845 69.6807H82.3328C82.8394 69.6807 83.25 70.0914 83.25 70.5979V77.1462C83.25 78.0033 83.9446 78.6979 84.8017 78.6979H90.7155C91.5726 78.6979 92.2672 78.0033 92.2672 77.1462V70.5979C92.2672 70.0914 92.6778 69.6807 93.1844 69.6807H99.7327C100.59 69.6807 101.284 68.9861 101.284 68.1291V62.2152C101.284 61.3582 100.59 60.6636 99.7327 60.6636H93.1846C92.6778 60.6636 92.2672 60.253 92.2672 59.7462Z" fill="url(#paint3_linear_321_17028)"/>
<path d="M0 70.1194C0 73.5717 2.32098 75.1711 5.00983 75.1711H9.07495C16.2631 75.1711 22.0902 80.9982 22.0902 88.1863V92.2514C22.0902 94.9405 23.6896 97.2613 27.1419 97.2613H23.4073C10.4797 97.2613 0 86.7816 0 73.854V70.1194Z" fill="url(#paint4_linear_321_17028)"/>
<path d="M52.9753 55.2758H23.2381C21.745 55.2758 20.5349 54.0654 20.5349 52.5726C20.5349 51.0797 21.745 49.8694 23.2381 49.8694H52.9753C54.4684 49.8694 55.6785 51.0797 55.6785 52.5726C55.6785 54.0654 54.4684 55.2758 52.9753 55.2758Z" fill="#C2C8CF"/>
<path d="M48.4647 70.5969H27.7488C26.2557 70.5969 25.0457 69.3866 25.0457 67.8937C25.0457 66.4009 26.2557 65.1906 27.7488 65.1906H48.4647C49.9578 65.1906 51.1678 66.4009 51.1678 67.8937C51.1678 69.3868 49.9575 70.5969 48.4647 70.5969Z" fill="#C2C8CF"/>
<path d="M82.3044 108.935C90.3247 106.786 95.0843 98.5424 92.9353 90.5221C90.7862 82.5017 82.5424 77.7421 74.5221 79.8912C66.5017 82.0402 61.7421 90.2841 63.8912 98.3044C66.0402 106.325 74.2841 111.084 82.3044 108.935Z" fill="url(#paint5_linear_321_17028)"/>
<path d="M75.7443 84.45C71.0598 85.7052 67.9974 89.9912 68.1 94.6329L68.1006 94.6332C68.4583 95.2427 68.6445 95.9377 68.3531 96.6846C68.3832 96.8174 68.4151 96.9502 68.4507 97.0829C69.9251 102.585 75.581 105.851 81.0835 104.377C86.5861 102.902 89.8516 97.2461 88.3772 91.7436C86.9028 86.241 81.2468 82.9756 75.7443 84.45Z" fill="url(#paint6_linear_321_17028)"/>
<path d="M90.0417 90.9546C89.7468 89.9649 89.3282 89.0163 88.7991 88.1387C88.6046 87.816 88.7084 87.3967 89.0312 87.2021C89.3538 87.0078 89.7732 87.1115 89.9677 87.4342C90.5558 88.4096 91.021 89.4633 91.3493 90.5645C91.457 90.9256 91.2516 91.3056 90.8905 91.4133C90.5345 91.5206 90.1506 91.3195 90.0417 90.9546Z" fill="#FFF6BD"/>
<path d="M87.2032 86.0484C87.1009 85.9411 86.9954 85.8345 86.8899 85.7315C86.62 85.4685 86.6144 85.0366 86.8774 84.7668C87.1404 84.4968 87.5724 84.4913 87.8421 84.7543C87.9597 84.8688 88.077 84.9875 88.1909 85.1069C88.4509 85.3796 88.4405 85.8115 88.1678 86.0714C87.8967 86.3299 87.4649 86.3229 87.2032 86.0484Z" fill="#FFF6BD"/>
<path d="M79.461 93.4061C79.2338 93.3884 79.0006 93.3683 78.7672 93.3446L77.875 90.0147C78.4603 89.9888 78.8636 90.1834 78.8904 90.1968C79.225 90.3703 79.6368 90.2397 79.8102 89.9051C79.9837 89.5706 79.8531 89.1589 79.5185 88.9854C79.4695 88.9598 78.6447 88.5398 77.5164 88.6765L77.3301 87.9811C77.2325 87.6171 76.8584 87.4011 76.4945 87.4986C76.1305 87.5962 75.9145 87.9703 76.012 88.3342L76.2119 89.0802C76.1084 89.1331 76.0042 89.1909 75.8991 89.2559C73.9971 90.4336 74.2231 93.3772 76.0239 94.1456C76.464 94.3334 76.9878 94.4729 77.6862 94.5823L78.8114 98.7816C78.244 98.8948 77.8333 98.8662 77.0985 98.6248C76.7404 98.5072 76.3549 98.702 76.2373 99.06C76.1197 99.418 76.3145 99.8035 76.6725 99.9212C77.7164 100.264 78.3654 100.271 79.1647 100.1L79.3731 100.878C79.4706 101.242 79.8447 101.458 80.2087 101.361C80.5727 101.263 80.7886 100.889 80.6911 100.525L80.4685 99.6941C83.3611 98.2855 82.9976 93.6825 79.461 93.4061ZM76.5595 92.8905C75.8002 92.5665 75.6494 91.0631 76.5772 90.4434L77.2941 93.119C77.0229 93.0564 76.773 92.9817 76.5595 92.8905ZM80.1042 98.334L79.1436 94.7492C79.2132 94.7551 79.2825 94.761 79.3548 94.7666C81.3705 94.924 81.5223 97.4014 80.1042 98.334Z" fill="#A37460"/>
<path d="M108.101 99.9943L94.1008 85.9943L101.101 78.9945C104.967 75.1285 111.235 75.1285 115.1 78.9945C118.966 82.8605 118.966 89.1284 115.1 92.9944L108.101 99.9943Z" fill="url(#paint7_linear_321_17028)"/>
<path d="M108.101 99.9943L94.1008 85.9944L87.1009 92.9942C83.2349 96.8603 83.2349 103.128 87.1009 106.994C90.967 110.86 97.2348 110.86 101.101 106.994L108.101 99.9943Z" fill="url(#paint8_linear_321_17028)"/>
</g>
<defs>
<linearGradient id="paint0_linear_321_17028" x1="59" y1="-6.74943" x2="59" y2="90.4569" gradientUnits="userSpaceOnUse">
<stop stop-color="#D4DBDB"/>
<stop offset="1" stop-color="#F3F3F3"/>
</linearGradient>
<linearGradient id="paint1_linear_321_17028" x1="0" y1="21.7699" x2="118" y2="21.7699" gradientUnits="userSpaceOnUse">
<stop offset="0.506171" stop-color="#DD5C6E"/>
<stop offset="1" stop-color="#ECA0AA"/>
</linearGradient>
<linearGradient id="paint2_linear_321_17028" x1="87.7589" y1="87.5676" x2="87.7589" y2="42.4347" gradientUnits="userSpaceOnUse">
<stop stop-color="#26AE77" stop-opacity="0.7"/>
<stop offset="0.2532" stop-color="#26AE77" stop-opacity="0.6"/>
<stop offset="0.5725" stop-color="#26AE77" stop-opacity="0.6"/>
<stop offset="0.9261" stop-color="#26AE77" stop-opacity="0.7"/>
<stop offset="1" stop-color="#26AE77" stop-opacity="0.6"/>
</linearGradient>
<linearGradient id="paint3_linear_321_17028" x1="87.7587" y1="52.8295" x2="87.7587" y2="77.9798" gradientUnits="userSpaceOnUse">
<stop stop-color="#F9EDAF"/>
<stop offset="1" stop-color="#FFFCDD"/>
</linearGradient>
<linearGradient id="paint4_linear_321_17028" x1="13.5709" y1="100.517" x2="13.5709" y2="80.6148" gradientUnits="userSpaceOnUse">
<stop stop-color="#D4DBDB"/>
<stop offset="1" stop-color="#F3F3F3"/>
</linearGradient>
<linearGradient id="paint5_linear_321_17028" x1="82.9734" y1="111.432" x2="74.9383" y2="81.4448" gradientUnits="userSpaceOnUse">
<stop stop-color="#F4C22C"/>
<stop offset="1" stop-color="#F9E198"/>
</linearGradient>
<linearGradient id="paint6_linear_321_17028" x1="81.6604" y1="106.529" x2="76.7548" y2="88.2211" gradientUnits="userSpaceOnUse">
<stop stop-color="#F4D952"/>
<stop offset="1" stop-color="#F9EDAF"/>
</linearGradient>
<linearGradient id="paint7_linear_321_17028" x1="106.051" y1="97.7849" x2="106.051" y2="76.934" gradientUnits="userSpaceOnUse">
<stop stop-color="#FBE195"/>
<stop offset="1" stop-color="#F5CB39"/>
</linearGradient>
<linearGradient id="paint8_linear_321_17028" x1="96.151" y1="107.023" x2="96.151" y2="90.1803" gradientUnits="userSpaceOnUse">
<stop stop-color="#1443BD"/>
<stop offset="1" stop-color="#A4D2F0"/>
</linearGradient>
<clipPath id="clip0_321_17028">
<rect width="118" height="118" fill="white"/>
</clipPath>
</defs>
</svg>
