<svg xmlns="http://www.w3.org/2000/svg" fill="none" viewBox="0.52 0.55 168.97 157.66">
<path d="M152.872 57.7981H0.631348V123.351H152.872V57.7981Z" fill="#1443BD"/>
<path d="M152.872 57.7981H0.631348V123.351H152.872V57.7981Z" fill="black" fill-opacity="0.35"/>
<path d="M70.9715 2.05271L0.699707 57.792L148.885 61.626C149.203 61.6254 149.521 61.5898 149.831 61.5199C151.691 61.0536 152.987 59.7074 152.966 57.792L80.4543 1.87013C77.5719 -0.0049789 73.8539 0.177595 70.9715 2.05271Z" fill="#1443BD"/>
<path d="M70.9715 2.05271L0.699707 57.792L148.885 61.626C149.203 61.6254 149.521 61.5898 149.831 61.5199C151.691 61.0536 152.987 59.7074 152.966 57.792L80.4543 1.87013C77.5719 -0.0049789 73.8539 0.177595 70.9715 2.05271Z" fill="black" fill-opacity="0.35"/>
<path fill-rule="evenodd" clip-rule="evenodd" d="M43.5044 60.694L57.2737 48.344L66.6196 64.5123L43.5044 60.694Z" fill="#FFD666"/>
<path fill-rule="evenodd" clip-rule="evenodd" d="M110.502 71.761L101.42 55.6365L88.1203 68.064L110.502 71.761Z" fill="#FFA940"/>
<path fill-rule="evenodd" clip-rule="evenodd" d="M43.5044 60.694L70.3722 106.141L66.6301 64.514L43.5044 60.694Z" fill="#FFC53D"/>
<path fill-rule="evenodd" clip-rule="evenodd" d="M110.355 71.7367L70.3723 106.141L88.0532 68.0528L110.355 71.7367Z" fill="#FA8C16"/>
<path fill-rule="evenodd" clip-rule="evenodd" d="M57.1567 48.3247L79.3913 51.9975L65.9225 64.3971L57.1567 48.3247Z" fill="#FFC53D"/>
<path fill-rule="evenodd" clip-rule="evenodd" d="M79.2446 51.9733L101.479 55.6461L88.0909 68.059L79.2446 51.9733Z" fill="#FFC53D"/>
<path fill-rule="evenodd" clip-rule="evenodd" d="M65.8889 64.3717L79.3405 51.9891L88.1235 68.0446L86.1392 72.1089L66.5118 68.6768L65.8889 64.3717Z" fill="#FFA940"/>
<path fill-rule="evenodd" clip-rule="evenodd" d="M65.9592 64.4032L70.3908 106.144L88.1204 68.0639L65.9592 64.4032Z" fill="#FAAD14"/>
<g clip-path="url(#clip0_321_17263)">
<path d="M65.6004 131.057C80.1389 137.644 97.2963 131.131 103.922 116.508C110.549 101.885 104.134 84.6905 89.5957 78.1026C75.0571 71.5146 57.8997 78.0282 51.2736 92.651C44.6475 107.274 51.0618 124.469 65.6004 131.057Z" fill="#FFD666"/>
<path d="M67.7103 125.513C79.5211 130.865 93.4343 125.629 98.7862 113.818C104.138 102.007 98.9021 88.094 87.0912 82.7421C75.2804 77.3902 61.3672 82.6262 56.0153 94.4371C50.6634 106.248 55.8994 120.161 67.7103 125.513Z" fill="#FFC53D"/>
<path d="M71.2573 118.105C70.6301 117.821 70.1514 117.545 69.8212 117.28L71.2805 114.059C70.1508 113.344 69.1663 112.549 68.3269 111.674C67.4875 110.799 66.8498 110.009 66.4139 109.302C66.661 108.789 67.0692 108.305 67.6385 107.851C68.2079 107.397 68.7342 107.133 69.2174 107.062C69.7971 107.964 70.5308 108.864 71.4185 109.76C72.3061 110.657 73.2719 111.349 74.3158 111.836C75.3411 112.301 76.2838 112.466 77.1439 112.333C78.0096 112.187 78.6315 111.713 79.0097 110.91C79.3224 110.252 79.3885 109.577 79.2079 108.885C79.0329 108.18 78.5641 107.466 77.8015 106.743L74.8573 103.904C73.7502 102.85 72.9987 101.717 72.6028 100.505C72.2243 99.2869 72.333 98.0204 72.9288 96.7056C73.612 95.1979 74.6973 94.1341 76.1849 93.5143C77.6845 92.8999 79.3212 92.8492 81.0951 93.3622L82.5298 90.196C82.7567 90.2407 83.0083 90.3111 83.2846 90.4072C83.5729 90.5088 83.8438 90.617 84.0971 90.7317C84.6881 90.9996 85.1608 91.2719 85.5151 91.5488L84.0722 94.7331C85.0362 95.3007 85.8808 95.9233 86.606 96.6009C87.3432 97.2839 87.9703 97.9533 88.4873 98.6092C88.2468 99.1399 87.8769 99.6192 87.3777 100.047C86.8905 100.481 86.3747 100.785 85.8302 100.96C85.1936 100.119 84.4891 99.3635 83.7168 98.6937C82.9565 98.0293 82.1482 97.5031 81.2918 97.115C80.3027 96.6669 79.4143 96.526 78.6265 96.6924C77.8387 96.8588 77.2782 97.3099 76.9447 98.0457C76.6277 98.7452 76.6164 99.3798 76.9108 99.9493C77.2107 100.507 77.6744 101.088 78.302 101.692L81.0817 104.413C82.2634 105.559 83.0517 106.803 83.4467 108.145C83.8417 109.487 83.6922 110.924 82.998 112.456C82.2984 114 81.1593 115.054 79.5808 115.618C78.0076 116.17 76.2278 116.119 74.2412 115.466L72.8064 118.632C72.4009 118.565 71.8845 118.389 71.2573 118.105Z" fill="white"/>
</g>
<g clip-path="url(#clip1_321_17263)">
<path d="M102.554 101.035C111.088 104.902 121.159 101.078 125.048 92.4954C128.937 83.9124 125.172 73.8198 116.639 69.953C108.105 66.0861 98.0344 69.9093 94.1451 78.4923C90.2559 87.0753 94.0208 97.1679 102.554 101.035Z" fill="#FFD666"/>
<path d="M103.793 97.7806C110.725 100.922 118.892 97.8486 122.033 90.9161C125.174 83.9836 122.101 75.8172 115.169 72.6758C108.236 69.5345 100.07 72.6078 96.9283 79.5403C93.7869 86.4728 96.8603 94.6392 103.793 97.7806Z" fill="#FFC53D"/>
<path d="M105.875 93.4325C105.507 93.2657 105.226 93.1042 105.032 92.9481L105.888 91.0579C105.225 90.6379 104.648 90.1713 104.155 89.6579C103.662 89.1445 103.288 88.6805 103.032 88.2659C103.177 87.9646 103.417 87.6807 103.751 87.414C104.085 87.1473 104.394 86.9928 104.678 86.9507C105.018 87.4804 105.448 88.0083 105.969 88.5345C106.49 89.0608 107.057 89.467 107.67 89.7531C108.272 90.0258 108.825 90.123 109.33 90.0445C109.838 89.959 110.203 89.6807 110.425 89.2096C110.609 88.8234 110.648 88.4271 110.542 88.0207C110.439 87.6072 110.164 87.1881 109.716 86.7634L107.988 85.0971C107.338 84.4784 106.897 83.8134 106.665 83.1023C106.442 82.3872 106.506 81.6438 106.856 80.8721C107.257 79.9872 107.894 79.3628 108.767 78.9989C109.647 78.6383 110.608 78.6086 111.649 78.9097L112.491 77.0513C112.625 77.0775 112.772 77.1188 112.934 77.1752C113.104 77.2348 113.263 77.2983 113.411 77.3657C113.758 77.5229 114.036 77.6827 114.244 77.8453L113.397 79.7143C113.962 80.0475 114.458 80.4129 114.884 80.8106C115.317 81.2115 115.685 81.6045 115.988 81.9894C115.847 82.3009 115.63 82.5823 115.337 82.8335C115.051 83.0879 114.748 83.2665 114.429 83.3691C114.055 82.8755 113.641 82.4322 113.188 82.039C112.742 81.6491 112.267 81.3402 111.765 81.1124C111.184 80.8494 110.663 80.7667 110.2 80.8644C109.738 80.962 109.409 81.2268 109.213 81.6587C109.027 82.0693 109.02 82.4418 109.193 82.776C109.369 83.1033 109.641 83.4442 110.01 83.7989L111.641 85.3958C112.335 86.0685 112.798 86.7987 113.03 87.5864C113.261 88.3742 113.174 89.2176 112.766 90.1167C112.356 91.0229 111.687 91.6416 110.76 91.9727C109.837 92.2967 108.792 92.267 107.626 91.8837L106.784 93.7421C106.546 93.7025 106.243 93.5993 105.875 93.4325Z" fill="white"/>
</g>
<g clip-path="url(#clip2_321_17263)">
<path d="M46.5225 100.426C55.7123 98.6043 61.6764 89.6341 59.8437 80.391C58.011 71.1479 49.0754 65.132 39.8855 66.9542C30.6957 68.7764 24.7316 77.7466 26.5643 86.9897C28.397 96.2328 37.3326 102.249 46.5225 100.426Z" fill="#FFD666"/>
<path d="M45.6355 97.0593C53.1011 95.579 57.9532 88.3269 56.4729 80.8612C54.9926 73.3956 47.7405 68.5435 40.2748 70.0238C32.8092 71.5041 27.9571 78.7562 29.4374 86.2219C30.9177 93.6875 38.1698 98.5396 45.6355 97.0593Z" fill="#FFC53D"/>
<path d="M44.7976 92.3117C44.4012 92.3903 44.0787 92.4226 43.8303 92.4085L43.4266 90.3728C42.643 90.4172 41.9015 90.3741 41.2021 90.2433C40.5026 90.1126 39.9282 89.9531 39.4788 89.7649C39.4214 89.4355 39.451 89.0652 39.5675 88.6538C39.6841 88.2424 39.8454 87.9371 40.0515 87.7377C40.6365 87.9704 41.2939 88.149 42.0239 88.2737C42.7539 88.3984 43.4512 88.3988 44.1161 88.2749C44.7641 88.1464 45.2706 87.9033 45.6355 87.5457C45.9989 87.1805 46.1338 86.7417 46.0401 86.2294C45.9646 85.8085 45.7655 85.4637 45.4428 85.1949C45.1185 84.9184 44.6509 84.7378 44.0397 84.6529L41.6646 84.3037C40.7761 84.1788 40.0304 83.8948 39.4275 83.4517C38.8307 82.9995 38.4499 82.3579 38.2852 81.5269C38.0962 80.5738 38.2508 79.6953 38.7491 78.8913C39.255 78.0857 40.0189 77.5024 41.0408 77.1413L40.644 75.1399C40.7675 75.0837 40.9117 75.0314 41.0764 74.9829C41.2487 74.9329 41.4149 74.892 41.5751 74.8602C41.9486 74.7862 42.2673 74.7547 42.531 74.7658L42.9301 76.7786C43.5841 76.7202 44.1999 76.7289 44.7775 76.8045C45.3628 76.8786 45.8908 76.9839 46.3616 77.1204C46.4281 77.4558 46.4153 77.811 46.3232 78.1858C46.2388 78.5592 46.0965 78.8806 45.8963 79.15C45.3052 78.9661 44.7109 78.8463 44.1134 78.7904C43.5236 78.733 42.958 78.758 42.4167 78.8653C41.7915 78.9893 41.3194 79.2256 41.0002 79.5741C40.681 79.9226 40.5676 80.3295 40.6598 80.7945C40.7475 81.2367 40.9588 81.5435 41.2939 81.7148C41.6275 81.8784 42.0472 81.9973 42.5532 82.0713L44.8094 82.4203C45.7649 82.5636 46.5662 82.8881 47.2132 83.3937C47.8602 83.8994 48.2797 84.6363 48.4717 85.6046C48.6652 86.5805 48.4816 87.4727 47.9208 88.2812C47.3585 89.0821 46.4917 89.666 45.3204 90.0329L45.7173 92.0343C45.5006 92.1406 45.1941 92.2331 44.7976 92.3117Z" fill="white"/>
</g>
<path d="M80.8399 116.064C78.3254 116.904 75.5649 116.549 73.3446 115.101L0.517334 57.7919V154.336C0.517334 156.474 2.62342 158.207 4.87514 158.207H148.883C151.138 158.207 152.967 156.474 152.967 154.336V57.7919L83.4214 114.643C82.6505 115.264 81.7768 115.745 80.8399 116.064Z" fill="#2A84C6"/>
<path d="M80.8399 116.064C78.3254 116.904 75.5649 116.549 73.3446 115.101L0.517334 57.7919V154.336C0.517334 156.474 2.62342 158.207 4.87514 158.207H148.883C151.138 158.207 152.967 156.474 152.967 154.336V57.7919L83.4214 114.643C82.6505 115.264 81.7768 115.745 80.8399 116.064Z" fill="white" fill-opacity="0.85"/>
<path fill-rule="evenodd" clip-rule="evenodd" d="M80.8399 116.064C78.3254 116.904 75.5649 116.549 73.3446 115.101L72.7626 114.643L0.517334 154.336C0.517334 156.474 2.62342 158.207 4.87514 158.207H148.883C151.138 158.207 152.967 156.474 152.967 154.336L83.4214 114.643C82.6505 115.264 81.7768 115.745 80.8399 116.064Z" fill="#1443BD"/>
<path fill-rule="evenodd" clip-rule="evenodd" d="M80.8399 116.064C78.3254 116.904 75.5649 116.549 73.3446 115.101L72.7626 114.643L0.517334 154.336C0.517334 156.474 2.62342 158.207 4.87514 158.207H148.883C151.138 158.207 152.967 156.474 152.967 154.336L83.4214 114.643C82.6505 115.264 81.7768 115.745 80.8399 116.064Z" fill="white" fill-opacity="0.85"/>
<g clip-path="url(#clip3_321_17263)" filter="url(#filter0_ddddd_321_17263)">
<path fill-rule="evenodd" clip-rule="evenodd" d="M98.9041 60.3681L98.3973 57.0504L96.1805 54.5305L96.1804 54.5303L99.4983 54.0233L102.018 51.8065L102.525 55.1244L104.742 57.6445L104.742 57.6446L101.424 58.1515L98.9044 60.3682L98.9042 60.3683L98.9041 60.3681Z" fill="white"/>
</g>
<g filter="url(#filter1_ddddd_321_17263)">
<ellipse cx="152.689" cy="121.846" rx="16.7941" ry="16.7941" fill="white"/>
<path d="M159.825 114.724C159.398 114.285 158.764 114.122 158.174 114.294L144.407 118.297C143.784 118.47 143.343 118.967 143.224 119.598C143.103 120.24 143.527 121.056 144.081 121.397L148.386 124.042C148.827 124.313 149.397 124.245 149.763 123.877L154.692 118.917C154.94 118.659 155.351 118.659 155.599 118.917C155.847 119.167 155.847 119.571 155.599 119.83L150.661 124.79C150.295 125.158 150.226 125.73 150.496 126.175L153.126 130.522C153.434 131.039 153.964 131.332 154.546 131.332C154.615 131.332 154.692 131.332 154.76 131.323C155.428 131.237 155.958 130.781 156.155 130.135L160.236 116.386C160.416 115.8 160.253 115.163 159.825 114.724" fill="#1443BD"/>
</g>
<defs>
<filter id="filter0_ddddd_321_17263" x="22.9128" y="18.5388" width="155.097" height="155.097" filterUnits="userSpaceOnUse" color-interpolation-filters="sRGB">
<feFlood flood-opacity="0" result="BackgroundImageFix"/>
<feColorMatrix in="SourceAlpha" type="matrix" values="0 0 0 0 0 0 0 0 0 0 0 0 0 0 0 0 0 0 127 0" result="hardAlpha"/>
<feOffset dy="6"/>
<feGaussianBlur stdDeviation="4"/>
<feColorMatrix type="matrix" values="0 0 0 0 0.705882 0 0 0 0 0.831373 0 0 0 0 0.921569 0 0 0 0.12 0"/>
<feBlend mode="normal" in2="BackgroundImageFix" result="effect1_dropShadow_321_17263"/>
<feColorMatrix in="SourceAlpha" type="matrix" values="0 0 0 0 0 0 0 0 0 0 0 0 0 0 0 0 0 0 127 0" result="hardAlpha"/>
<feOffset dy="8"/>
<feGaussianBlur stdDeviation="12"/>
<feColorMatrix type="matrix" values="0 0 0 0 0.705882 0 0 0 0 0.831373 0 0 0 0 0.921569 0 0 0 0.08 0"/>
<feBlend mode="normal" in2="effect1_dropShadow_321_17263" result="effect2_dropShadow_321_17263"/>
<feColorMatrix in="SourceAlpha" type="matrix" values="0 0 0 0 0 0 0 0 0 0 0 0 0 0 0 0 0 0 127 0" result="hardAlpha"/>
<feOffset dy="16"/>
<feGaussianBlur stdDeviation="18"/>
<feColorMatrix type="matrix" values="0 0 0 0 0.705882 0 0 0 0 0.831373 0 0 0 0 0.921569 0 0 0 0.04 0"/>
<feBlend mode="normal" in2="effect2_dropShadow_321_17263" result="effect3_dropShadow_321_17263"/>
<feColorMatrix in="SourceAlpha" type="matrix" values="0 0 0 0 0 0 0 0 0 0 0 0 0 0 0 0 0 0 127 0" result="hardAlpha"/>
<feOffset dy="40"/>
<feGaussianBlur stdDeviation="35"/>
<feColorMatrix type="matrix" values="0 0 0 0 0.705882 0 0 0 0 0.831373 0 0 0 0 0.921569 0 0 0 0.04 0"/>
<feBlend mode="normal" in2="effect3_dropShadow_321_17263" result="effect4_dropShadow_321_17263"/>
<feColorMatrix in="SourceAlpha" type="matrix" values="0 0 0 0 0 0 0 0 0 0 0 0 0 0 0 0 0 0 127 0" result="hardAlpha"/>
<feOffset dy="2"/>
<feGaussianBlur stdDeviation="2"/>
<feColorMatrix type="matrix" values="0 0 0 0 0.87451 0 0 0 0 0.929412 0 0 0 0 0.964706 0 0 0 0.4 0"/>
<feBlend mode="normal" in2="effect4_dropShadow_321_17263" result="effect5_dropShadow_321_17263"/>
<feBlend mode="normal" in="SourceGraphic" in2="effect5_dropShadow_321_17263" result="shape"/>
</filter>
<filter id="filter1_ddddd_321_17263" x="65.8945" y="75.0519" width="173.588" height="173.588" filterUnits="userSpaceOnUse" color-interpolation-filters="sRGB">
<feFlood flood-opacity="0" result="BackgroundImageFix"/>
<feColorMatrix in="SourceAlpha" type="matrix" values="0 0 0 0 0 0 0 0 0 0 0 0 0 0 0 0 0 0 127 0" result="hardAlpha"/>
<feOffset dy="6"/>
<feGaussianBlur stdDeviation="4"/>
<feColorMatrix type="matrix" values="0 0 0 0 0.0392157 0 0 0 0 0.129412 0 0 0 0 0.372549 0 0 0 0.12 0"/>
<feBlend mode="normal" in2="BackgroundImageFix" result="effect1_dropShadow_321_17263"/>
<feColorMatrix in="SourceAlpha" type="matrix" values="0 0 0 0 0 0 0 0 0 0 0 0 0 0 0 0 0 0 127 0" result="hardAlpha"/>
<feOffset dy="8"/>
<feGaussianBlur stdDeviation="12"/>
<feColorMatrix type="matrix" values="0 0 0 0 0.0392157 0 0 0 0 0.129412 0 0 0 0 0.372549 0 0 0 0.08 0"/>
<feBlend mode="normal" in2="effect1_dropShadow_321_17263" result="effect2_dropShadow_321_17263"/>
<feColorMatrix in="SourceAlpha" type="matrix" values="0 0 0 0 0 0 0 0 0 0 0 0 0 0 0 0 0 0 127 0" result="hardAlpha"/>
<feOffset dy="16"/>
<feGaussianBlur stdDeviation="18"/>
<feColorMatrix type="matrix" values="0 0 0 0 0.0392157 0 0 0 0 0.129412 0 0 0 0 0.372549 0 0 0 0.04 0"/>
<feBlend mode="normal" in2="effect2_dropShadow_321_17263" result="effect3_dropShadow_321_17263"/>
<feColorMatrix in="SourceAlpha" type="matrix" values="0 0 0 0 0 0 0 0 0 0 0 0 0 0 0 0 0 0 127 0" result="hardAlpha"/>
<feOffset dy="40"/>
<feGaussianBlur stdDeviation="35"/>
<feColorMatrix type="matrix" values="0 0 0 0 0.0392157 0 0 0 0 0.129412 0 0 0 0 0.372549 0 0 0 0.04 0"/>
<feBlend mode="normal" in2="effect3_dropShadow_321_17263" result="effect4_dropShadow_321_17263"/>
<feColorMatrix in="SourceAlpha" type="matrix" values="0 0 0 0 0 0 0 0 0 0 0 0 0 0 0 0 0 0 127 0" result="hardAlpha"/>
<feOffset dy="2"/>
<feGaussianBlur stdDeviation="2"/>
<feColorMatrix type="matrix" values="0 0 0 0 0.537255 0 0 0 0 0.631373 0 0 0 0 0.870588 0 0 0 0.4 0"/>
<feBlend mode="normal" in2="effect4_dropShadow_321_17263" result="effect5_dropShadow_321_17263"/>
<feBlend mode="normal" in="SourceGraphic" in2="effect5_dropShadow_321_17263" result="shape"/>
</filter>
<clipPath id="clip0_321_17263">
<rect width="68.1032" height="68.1032" fill="white" transform="translate(60.0513 58.0277) rotate(24.3769)"/>
</clipPath>
<clipPath id="clip1_321_17263">
<rect width="39.9738" height="39.9738" fill="white" transform="translate(99.2974 58.1699) rotate(24.3769)"/>
</clipPath>
<clipPath id="clip2_321_17263">
<rect width="39.9737" height="39.9737" fill="white" transform="translate(18.9258 67.4651) rotate(-11.2152)"/>
</clipPath>
<clipPath id="clip3_321_17263">
<rect width="11.78" height="11.78" fill="white" transform="matrix(0.939764 0.341825 0.341824 -0.939764 92.9128 59.6093)"/>
</clipPath>
</defs>
</svg>