<svg width="28" height="24" viewBox="0 0 28 24" fill="none" xmlns="http://www.w3.org/2000/svg">
<path d="M21.634 13.3599L16.666 17.3332H9.99935V15.9999H15.4193C15.9513 15.9999 16.27 15.4066 15.974 14.9639L14.79 13.1879C14.2967 12.4452 13.4647 11.9999 12.5727 11.9999H9.99935H1.99935C1.26202 11.9999 0.666016 12.5959 0.666016 13.3332V21.3332C0.666016 22.8052 1.86068 23.9999 3.33268 23.9999H16.1847C17.338 23.9999 18.4353 23.5026 19.1953 22.6346L27.3327 13.3332L25.3967 12.6879C24.11 12.2586 22.694 12.5119 21.634 13.3599ZM23.6767 5.85322C24.278 5.23322 24.65 4.37589 24.65 3.42922C24.65 2.48255 24.278 1.62522 23.6767 1.00522C23.0753 0.383886 22.2433 -0.000114355 21.3247 -0.000114355C21.3247 -0.000114355 19.666 -0.00411463 17.9993 1.71455C16.3327 -0.00411463 14.674 -0.000114355 14.674 -0.000114355C13.7553 -0.000114355 12.9233 0.383886 12.322 1.00389C11.7207 1.62522 11.3487 2.48122 11.3487 3.42789C11.3487 4.37455 11.7207 5.23322 12.322 5.85189L17.9993 11.9999L23.6767 5.85322Z" fill="#1443BD"/>
</svg>
