<svg width="205" height="218" viewBox="0 0 205 218" fill="none" xmlns="http://www.w3.org/2000/svg">
<g filter="url(#filter0_ddddd_321_17422)">
<g filter="url(#filter1_i_321_17422)">
<path d="M134.493 45.0592C134.493 39.0596 134.493 36.0598 132.965 33.9569C132.471 33.2777 131.874 32.6805 131.195 32.187C129.092 30.6592 126.092 30.6592 120.093 30.6592H84.4587C78.4592 30.6592 75.4594 30.6592 73.3565 32.187C72.6773 32.6805 72.08 33.2777 71.5866 33.9569C70.0587 36.0598 70.0587 39.0596 70.0587 45.0592V92.6498C70.0587 98.6494 70.0587 101.649 71.5866 103.752C72.08 104.431 72.6773 105.029 73.3565 105.522C75.4594 107.05 78.4592 107.05 84.4587 107.05H120.093C126.092 107.05 129.092 107.05 131.195 105.522C131.874 105.029 132.471 104.431 132.965 103.752C134.493 101.649 134.493 98.6494 134.493 92.6499V45.0592Z" fill="white"/>
</g>
</g>
<path fill-rule="evenodd" clip-rule="evenodd" d="M74.7881 109.296C74.7884 109.27 74.7849 109.245 74.7771 109.22C74.7526 109.14 74.6893 109.078 74.608 109.053L70.28 107.713C70.0796 107.651 70.0509 107.478 70.0468 107.427C70.0426 107.375 70.0443 107.199 70.2329 107.109L82.094 101.417C82.2112 101.361 82.343 101.374 82.4466 101.451C82.5504 101.528 82.597 101.649 82.5716 101.774L79.9546 114.614C79.9139 114.814 79.7416 114.861 79.6897 114.871C79.6379 114.881 79.4597 114.9 79.345 114.729L76.7687 110.906C76.7227 110.837 76.6455 110.795 76.5617 110.792C76.4778 110.789 76.3978 110.826 76.3472 110.892L72.1948 116.224C72.1515 116.28 72.0718 116.292 72.0133 116.251L70.2725 115.046C70.2321 115.018 70.2211 114.98 70.2183 114.959C70.2155 114.939 70.2151 114.898 70.2463 114.861L74.7309 109.45C74.7677 109.406 74.7873 109.351 74.7881 109.296Z" fill="#1443BD"/>
<path d="M92.662 50.0885C96.4079 49.7877 101.123 51.7593 102.247 54.9134C103.373 51.7593 109.121 49.8166 112.867 50.1194C122.755 50.9147 126.102 61.7862 121.909 69.0977C119.652 73.0326 116.41 76.4731 112.873 79.5633C109.91 82.1509 102.27 87.6371 102.247 87.6186C102.224 87.6371 94.584 82.1488 91.6215 79.5633C88.0845 76.4731 84.8421 73.0326 82.5857 69.0977C78.3927 61.7862 82.7738 50.8838 92.662 50.0885Z" fill="#E23C60"/>
<path opacity="0.12" d="M84.5078 70.0226C86.971 72.9584 89.8248 75.7149 92.9231 78.08C95.919 80.3688 99.4289 82.361 103.292 83.0285C105.147 83.3478 106.965 83.3045 108.684 82.9152C105.531 85.3153 102.103 87.7689 102.086 87.7566C102.063 87.7751 94.4232 82.2868 91.4607 79.7013C87.9236 76.6111 84.6812 73.1706 82.4248 69.2357C81.6957 67.9625 81.2256 66.5801 81 65.1606C82.0258 66.8623 83.2166 68.4837 84.5078 70.0226Z" fill="#040504"/>
<path d="M84.6728 66.9324C87.2613 66.9963 89.8519 67.0622 92.4404 67.1261C93.3764 63.7742 94.3144 60.4223 95.2504 57.0704C95.3862 56.5863 96.1153 56.6213 96.2699 57.0704C98.2735 62.9048 100.279 68.7392 102.283 74.5736C102.4 74.9115 102.515 75.2493 102.632 75.5872C103.994 71.7471 105.358 67.9049 106.72 64.0647C106.94 63.4487 107.157 62.8327 107.376 62.2167C107.508 61.8459 108.128 61.6976 108.341 62.0993C109.332 63.9658 110.322 65.8323 111.314 67.6968C114.212 67.6968 117.11 67.6968 120.007 67.6968C120.689 67.6968 120.689 68.6774 120.007 68.6774C117.001 68.6774 113.995 68.6774 110.988 68.6774C110.813 68.6774 110.612 68.5868 110.533 68.4343C109.685 66.8356 108.834 65.2369 107.986 63.6362C106.589 67.5773 105.189 71.5163 103.791 75.4574C103.572 76.0734 103.354 76.6894 103.135 77.3054C102.97 77.7669 102.276 77.7751 102.116 77.3054C100.112 71.471 98.1064 65.6366 96.1028 59.8022C96.0067 59.5241 95.9106 59.2439 95.8145 58.9658C94.9955 61.8953 94.1766 64.8249 93.3576 67.7545C93.3012 67.9584 93.0755 68.1212 92.8478 68.115C90.1235 68.047 87.3992 67.979 84.6748 67.911C83.9938 67.8966 83.9896 66.916 84.6728 66.9324Z" fill="white"/>
<defs>
<filter id="filter0_ddddd_321_17422" x="0.0588379" y="0.65918" width="204.434" height="216.391" filterUnits="userSpaceOnUse" color-interpolation-filters="sRGB">
<feFlood flood-opacity="0" result="BackgroundImageFix"/>
<feColorMatrix in="SourceAlpha" type="matrix" values="0 0 0 0 0 0 0 0 0 0 0 0 0 0 0 0 0 0 127 0" result="hardAlpha"/>
<feOffset dy="6"/>
<feGaussianBlur stdDeviation="4"/>
<feColorMatrix type="matrix" values="0 0 0 0 0.705882 0 0 0 0 0.831373 0 0 0 0 0.921569 0 0 0 0.12 0"/>
<feBlend mode="normal" in2="BackgroundImageFix" result="effect1_dropShadow_321_17422"/>
<feColorMatrix in="SourceAlpha" type="matrix" values="0 0 0 0 0 0 0 0 0 0 0 0 0 0 0 0 0 0 127 0" result="hardAlpha"/>
<feOffset dy="8"/>
<feGaussianBlur stdDeviation="12"/>
<feColorMatrix type="matrix" values="0 0 0 0 0.705882 0 0 0 0 0.831373 0 0 0 0 0.921569 0 0 0 0.08 0"/>
<feBlend mode="normal" in2="effect1_dropShadow_321_17422" result="effect2_dropShadow_321_17422"/>
<feColorMatrix in="SourceAlpha" type="matrix" values="0 0 0 0 0 0 0 0 0 0 0 0 0 0 0 0 0 0 127 0" result="hardAlpha"/>
<feOffset dy="16"/>
<feGaussianBlur stdDeviation="18"/>
<feColorMatrix type="matrix" values="0 0 0 0 0.705882 0 0 0 0 0.831373 0 0 0 0 0.921569 0 0 0 0.04 0"/>
<feBlend mode="normal" in2="effect2_dropShadow_321_17422" result="effect3_dropShadow_321_17422"/>
<feColorMatrix in="SourceAlpha" type="matrix" values="0 0 0 0 0 0 0 0 0 0 0 0 0 0 0 0 0 0 127 0" result="hardAlpha"/>
<feOffset dy="40"/>
<feGaussianBlur stdDeviation="35"/>
<feColorMatrix type="matrix" values="0 0 0 0 0.705882 0 0 0 0 0.831373 0 0 0 0 0.921569 0 0 0 0.04 0"/>
<feBlend mode="normal" in2="effect3_dropShadow_321_17422" result="effect4_dropShadow_321_17422"/>
<feColorMatrix in="SourceAlpha" type="matrix" values="0 0 0 0 0 0 0 0 0 0 0 0 0 0 0 0 0 0 127 0" result="hardAlpha"/>
<feOffset dy="2"/>
<feGaussianBlur stdDeviation="2"/>
<feColorMatrix type="matrix" values="0 0 0 0 0.87451 0 0 0 0 0.929412 0 0 0 0 0.964706 0 0 0 0.4 0"/>
<feBlend mode="normal" in2="effect4_dropShadow_321_17422" result="effect5_dropShadow_321_17422"/>
<feBlend mode="normal" in="SourceGraphic" in2="effect5_dropShadow_321_17422" result="shape"/>
</filter>
<filter id="filter1_i_321_17422" x="70.0588" y="30.6592" width="64.4338" height="76.3906" filterUnits="userSpaceOnUse" color-interpolation-filters="sRGB">
<feFlood flood-opacity="0" result="BackgroundImageFix"/>
<feBlend mode="normal" in="SourceGraphic" in2="BackgroundImageFix" result="shape"/>
<feColorMatrix in="SourceAlpha" type="matrix" values="0 0 0 0 0 0 0 0 0 0 0 0 0 0 0 0 0 0 127 0" result="hardAlpha"/>
<feOffset dy="-1"/>
<feComposite in2="hardAlpha" operator="arithmetic" k2="-1" k3="1"/>
<feColorMatrix type="matrix" values="0 0 0 0 0 0 0 0 0 0 0 0 0 0 0 0 0 0 0.12 0"/>
<feBlend mode="normal" in2="shape" result="effect1_innerShadow_321_17422"/>
</filter>
</defs>
</svg>
