<svg width="434" height="396" viewBox="0 0 434 396" fill="none" xmlns="http://www.w3.org/2000/svg">
<g opacity="0.1">
<path d="M766.586 2.62753C768.134 1.94784 769.675 1.27261 771.184 0.596117C772.924 -0.177103 773.724 -2.18339 772.974 -3.89188C772.23 -5.59295 770.23 -6.34592 768.501 -5.58917C768.493 -5.58465 768.486 -5.58015 768.478 -5.57563C765.746 -4.36291 762.96 -3.13798 760.111 -1.91567C760.103 -1.91115 760.103 -1.91114 760.096 -1.90663C758.367 -1.14988 757.546 0.838627 758.268 2.55326C758.998 4.26335 760.996 5.04766 762.749 4.29674C764.041 3.73926 765.321 3.1789 766.586 2.62753ZM754.313 7.8765C756.026 7.12877 756.849 5.15965 756.15 3.45087C755.443 1.72721 753.449 0.930987 751.695 1.66253C748.92 2.82027 746.098 3.98572 743.237 5.15438C741.447 5.87715 740.61 7.85534 741.302 9.58802C741.994 11.3207 743.982 12.1409 745.733 11.4213C748.621 10.2465 751.462 9.07942 754.252 7.91265C754.278 7.88714 754.293 7.8781 754.313 7.8765ZM779.525 -3.17852C779.547 -3.19207 779.575 -3.19823 779.59 -3.20726C782.437 -4.51906 785.244 -5.84702 787.935 -7.14604C789.644 -7.97131 790.387 -10.0041 789.584 -11.681C788.782 -13.3579 786.748 -14.0302 785.034 -13.2317C782.373 -11.9508 779.596 -10.6408 776.784 -9.33967C775.057 -8.54414 774.286 -6.52456 775.058 -4.82959C775.832 -3.16598 777.819 -2.43531 779.525 -3.17852ZM737.307 14.7936C738.998 14.0594 739.83 12.1246 739.168 10.4245C738.496 8.69027 736.514 7.84618 734.747 8.55541C731.945 9.66856 729.105 10.7849 726.225 11.9045C724.475 12.5733 723.552 14.5624 724.216 16.3012C724.881 18.04 726.852 18.9005 728.621 18.2107C731.516 17.0821 734.376 15.9641 737.192 14.842C737.235 14.8268 737.27 14.8162 737.307 14.7936ZM796.055 -11.1522C796.113 -11.1764 796.178 -11.2051 796.239 -11.2412C799.075 -12.6768 801.839 -14.1105 804.448 -15.512C806.125 -16.4087 806.772 -18.4649 805.897 -20.1086C805.021 -21.7522 802.956 -22.3557 801.28 -21.459C798.716 -20.0846 796.001 -18.6705 793.211 -17.2621C791.513 -16.4026 790.818 -14.358 791.651 -12.6992C792.46 -11.097 794.4 -10.4287 796.055 -11.1522ZM720.194 21.4428C721.865 20.7102 722.7 18.8141 722.074 17.1228C721.424 15.375 719.461 14.51 717.683 15.1849C714.86 16.2609 712.005 17.3356 709.11 18.4134C707.324 19.0735 706.403 21.0312 707.045 22.7836C707.686 24.5359 709.64 25.4175 711.421 24.7499C714.323 23.6676 717.194 22.5839 720.037 21.5063C720.087 21.4866 720.136 21.467 720.194 21.4428ZM812.225 -19.8371C812.34 -19.8854 812.458 -19.9457 812.572 -20.0134C815.369 -21.6174 818.059 -23.2282 820.564 -24.7888C822.174 -25.797 822.684 -27.8927 821.695 -29.4686C820.706 -31.0446 818.598 -31.512 816.988 -30.5038C814.56 -28.9884 811.946 -27.4228 809.225 -25.864C807.575 -24.9227 806.992 -22.8445 807.913 -21.2279C808.772 -19.7154 810.639 -19.1348 812.225 -19.8371ZM702.995 27.8612C704.643 27.1422 705.491 25.2684 704.889 23.5829C704.267 21.829 702.309 20.9401 700.526 21.5882C697.681 22.627 694.816 23.6674 691.916 24.7184C690.113 25.3682 689.183 27.3111 689.797 29.0695C690.412 30.828 692.366 31.7289 694.154 31.0881C697.066 30.04 699.946 28.9906 702.799 27.9473C702.857 27.9231 702.93 27.8899 702.995 27.8612ZM685.719 34.0831C687.36 33.3686 688.202 31.5187 687.624 29.8391C687.017 28.0762 685.07 27.1707 683.286 27.7995C680.427 28.816 677.544 29.8266 674.642 30.8389C672.838 31.4692 671.883 33.4063 672.479 35.1663C673.078 36.9338 675.022 37.8512 676.81 37.2299C679.72 36.2131 682.618 35.1934 685.482 34.1844C685.562 34.1466 685.647 34.1163 685.719 34.0831ZM668.394 40.1338C670.015 39.4208 670.87 37.5933 670.304 35.9166C669.717 34.152 667.776 33.2227 665.983 33.8366C663.111 34.8308 660.222 35.8146 657.314 36.8C655.524 37.402 654.531 39.3422 655.118 41.1068C655.698 42.8758 657.635 43.8171 659.428 43.2032C662.344 42.2133 665.248 41.2204 668.12 40.2262C668.221 40.2063 668.314 40.1715 668.394 40.1338ZM827.762 -29.5851C827.972 -29.6802 828.174 -29.7902 828.37 -29.927C831.108 -31.8379 833.645 -33.7403 835.918 -35.586C837.393 -36.7859 837.626 -38.9174 836.44 -40.3566C835.255 -41.7957 833.102 -41.9943 831.627 -40.7944C829.492 -39.0613 827.091 -37.2597 824.488 -35.4494C822.927 -34.3594 822.532 -32.242 823.6 -30.7232C824.55 -29.3857 826.301 -28.9476 827.762 -29.5851ZM651.023 46.0399C652.637 45.3315 653.493 43.5233 652.944 41.857C652.364 40.0879 650.442 39.1376 648.644 39.7441C645.766 40.7114 642.865 41.6729 639.955 42.639C638.146 43.2425 637.158 45.1588 637.723 46.937C638.295 48.7106 640.217 49.6609 642.019 49.0619C644.941 48.0988 647.846 47.1252 650.731 46.1534C650.828 46.126 650.923 46.0792 651.023 46.0399ZM633.605 51.8136C635.211 51.1097 636.064 49.3134 635.534 47.6455C634.969 45.8674 633.05 44.9051 631.244 45.4967C628.353 46.4418 625.454 47.3914 622.532 48.3351C620.721 48.9192 619.714 50.8372 620.279 52.6153C620.836 54.398 622.755 55.3602 624.565 54.7761C627.496 53.8278 630.402 52.8737 633.301 51.9241C633.402 51.9042 633.502 51.8648 633.605 51.8136ZM616.151 57.477C617.742 56.7822 618.604 55.0008 618.086 53.3358C617.534 51.5606 615.618 50.5864 613.815 51.166C610.915 52.0962 608.003 53.0235 605.083 53.9553C603.268 54.532 602.257 56.4425 602.802 58.2222C603.347 60.0019 605.255 60.9807 607.07 60.4039C610.002 59.4751 612.921 58.5433 615.821 57.6131C615.929 57.5692 616.044 57.5209 616.151 57.477ZM841.898 -41.2379C842.304 -41.4192 842.678 -41.6718 843.003 -42.0063C845.545 -44.6262 847.62 -47.2197 849.172 -49.7239C850.167 -51.3329 849.67 -53.4128 848.07 -54.3738C846.463 -55.3303 844.353 -54.7997 843.353 -53.198C842.061 -51.1204 840.303 -48.9269 838.112 -46.6669C836.786 -45.3037 836.806 -43.1616 838.159 -41.8726C839.188 -40.904 840.668 -40.6972 841.898 -41.2379ZM598.664 63.0303C600.254 62.3355 601.113 60.566 600.607 58.9039C600.07 57.1197 598.157 56.1335 596.349 56.7057C593.448 57.6165 590.528 58.5289 587.599 59.4458C585.787 60.0106 584.752 61.9153 585.289 63.6995C585.827 65.4837 587.732 66.4744 589.544 65.9097C592.472 64.9927 595.393 64.0803 598.302 63.165C598.433 63.127 598.548 63.0787 598.664 63.0303ZM581.15 68.4882C582.733 67.7979 583.588 66.0404 583.095 64.3812C582.565 62.5924 580.66 61.6018 578.843 62.1592C575.933 63.0551 573.015 63.9555 570.086 64.8531C568.277 65.4059 567.23 67.3076 567.76 69.0963C568.289 70.8851 570.187 71.8803 572.003 71.323C574.933 70.4255 577.863 69.5279 580.78 68.6275C580.907 68.582 581.027 68.5411 581.15 68.4882ZM563.614 73.8582C565.19 73.1724 566.05 71.4224 565.568 69.7661C565.046 67.9729 563.148 66.9777 561.327 67.5275C558.413 68.416 555.486 69.3016 552.556 70.1798C550.735 70.7297 549.683 72.624 550.201 74.4098C550.723 76.2031 552.617 77.2102 554.438 76.6603C557.377 75.7777 560.303 74.8921 563.225 73.9991C563.357 73.9611 563.484 73.9156 563.614 73.8582ZM546.042 79.1494C547.61 78.4681 548.475 76.7255 547.993 75.0692C547.475 73.2834 545.584 72.2643 543.763 72.8142C540.84 73.6878 537.912 74.554 534.981 75.4322C533.163 75.9701 532.1 77.8615 532.614 79.6593C533.125 81.4496 535.016 82.4687 536.841 81.9263C539.776 81.0556 542.712 80.1848 545.642 79.3067C545.785 79.2522 545.919 79.2023 546.042 79.1494ZM528.492 84.3569C530.053 83.6801 530.922 81.9449 530.452 80.2916C529.941 78.5012 528.058 77.4776 526.233 78.0201C523.313 78.8818 520.38 79.7405 517.456 80.5947C515.638 81.1327 514.57 83.0167 515.073 84.8115C515.575 86.6064 517.466 87.6255 519.289 87.095C522.221 86.2362 525.153 85.3775 528.081 84.5113C528.22 84.4688 528.354 84.4188 528.492 84.3569ZM850.739 -56.7975C851.854 -57.2899 852.681 -58.3356 852.811 -59.6207C852.844 -59.9625 852.869 -60.2998 852.883 -60.64C853.008 -63.7451 852.855 -66.7144 852.431 -69.4823C852.146 -71.3261 850.402 -72.5638 848.535 -72.2479C846.667 -71.9319 845.385 -70.1826 845.671 -68.3388C846.031 -66.0061 846.156 -63.4633 846.045 -60.7999C846.035 -60.5925 846.02 -60.3925 845.998 -60.188C845.811 -58.3252 847.179 -56.6827 849.065 -56.5363C849.649 -56.4708 850.226 -56.5724 850.739 -56.7975ZM510.907 89.5049C512.463 88.8207 513.329 87.0975 512.871 85.447C512.368 83.6522 510.485 82.6286 508.663 83.1591C505.726 84.0104 502.79 84.8617 499.853 85.7131C498.019 86.2407 496.958 88.1201 497.453 89.9194C497.948 91.7188 499.832 92.7424 501.658 92.2194C504.599 91.3755 507.544 90.5196 510.48 89.6683C510.622 89.6139 510.765 89.5594 510.907 89.5049ZM493.255 94.5921C494.803 93.9124 495.673 92.1966 495.22 90.5536C494.725 88.7542 492.845 87.7187 491.018 88.2418C488.069 89.0902 485.124 89.9266 482.171 90.7676C480.337 91.2952 479.264 93.1717 479.755 94.9637C480.25 96.7631 482.13 97.7986 483.949 97.28C486.902 96.4391 489.855 95.5981 492.804 94.7497C492.967 94.7131 493.117 94.654 493.255 94.5921ZM475.591 99.6257C477.14 98.946 478.007 97.2421 477.561 95.5946C477.073 93.7907 475.193 92.7552 473.374 93.2737C470.436 94.1057 467.498 94.9376 464.556 95.7621C462.733 96.2733 461.64 98.1514 462.128 99.9553C462.615 101.759 464.488 102.799 466.319 102.284C469.261 101.459 472.207 100.623 475.145 99.7907C475.291 99.7437 475.446 99.6921 475.591 99.6257ZM457.931 104.597C459.472 103.921 460.339 102.218 459.905 100.573C459.422 98.7765 457.553 97.7245 455.722 98.2402C452.779 99.0647 449.833 99.8817 446.898 100.702C445.075 101.213 443.978 103.084 444.454 104.885C444.937 106.681 446.806 107.733 448.634 107.229C451.581 106.412 454.523 105.588 457.47 104.771C457.632 104.715 457.781 104.656 457.931 104.597ZM440.268 109.509C441.809 108.834 442.68 107.138 442.239 105.498C441.763 103.697 439.894 102.645 438.058 103.153C435.111 103.97 432.16 104.78 429.221 105.592C427.393 106.096 426.297 107.966 426.772 109.767C427.248 111.568 429.117 112.621 430.945 112.117C433.889 111.312 436.835 110.495 439.79 109.673C439.956 109.624 440.11 109.573 440.268 109.509ZM422.585 114.373C424.118 113.702 424.99 112.006 424.561 110.369C424.085 108.568 422.223 107.511 420.391 108.007C417.44 108.817 414.492 109.615 411.548 110.42C409.716 110.916 408.619 112.787 409.083 114.585C409.551 116.39 411.413 117.447 413.245 116.951C416.188 116.146 419.144 115.343 422.095 114.534C422.266 114.493 422.428 114.436 422.585 114.373ZM404.891 119.183C406.425 118.512 407.293 116.828 406.871 115.186C406.403 113.381 404.541 112.324 402.704 112.813C399.749 113.615 396.801 114.413 393.856 115.199C392.032 115.69 390.911 117.555 391.379 119.361C391.847 121.166 393.706 122.235 395.538 121.738C398.486 120.941 401.438 120.15 404.394 119.348C404.569 119.314 404.731 119.258 404.891 119.183ZM847.785 -74.389C847.827 -74.4041 847.865 -74.4267 847.9 -74.4374C849.609 -75.2626 850.356 -77.2881 849.549 -78.9724C848.121 -81.978 846.224 -84.7156 843.896 -87.1257C842.603 -88.4702 840.437 -88.5002 839.06 -87.1874C837.678 -85.8821 837.608 -83.7365 838.909 -82.3965C840.735 -80.5029 842.23 -78.3524 843.353 -76C844.137 -74.3528 846.106 -73.6519 847.785 -74.389ZM387.183 123.951C388.709 123.285 389.581 121.608 389.159 119.966C388.699 118.156 386.833 117.092 385 117.589C382.041 118.383 379.088 119.174 376.151 119.955C374.307 120.448 373.201 122.304 373.662 124.114C374.122 125.924 375.981 126.993 377.817 126.504C380.762 125.718 383.714 124.928 386.674 124.133C386.86 124.083 387.018 124.019 387.183 123.951ZM369.46 128.678C370.986 128.012 371.858 126.335 371.441 124.7C370.981 122.89 369.122 121.822 367.293 122.306C364.328 123.094 361.372 123.876 358.43 124.65C356.593 125.139 355.476 126.992 355.936 128.802C356.396 130.612 358.248 131.685 360.084 131.196C363.033 130.418 365.99 129.635 368.955 128.848C369.125 128.806 369.299 128.753 369.46 128.678ZM351.73 133.358C353.256 132.692 354.121 131.019 353.715 129.388C353.255 127.578 351.404 126.505 349.575 126.99C346.606 127.769 343.652 128.54 340.711 129.314C338.87 129.795 337.752 131.648 338.205 133.463C338.658 135.277 340.509 136.35 342.35 135.869C345.296 135.103 348.253 134.32 351.222 133.54C351.4 133.494 351.569 133.434 351.73 133.358ZM333.99 138.004C335.508 137.343 336.385 135.673 335.98 134.042C335.532 132.235 333.676 131.154 331.842 131.631C328.869 132.404 325.916 133.174 322.97 133.941C321.136 134.418 320.006 136.268 320.459 138.082C320.908 139.889 322.756 140.974 324.597 140.493C327.543 139.726 330.501 138.963 333.474 138.191C333.648 138.137 333.825 138.072 333.99 138.004ZM316.243 142.604C317.761 141.943 318.631 140.278 318.23 138.654C317.782 136.847 315.933 135.762 314.095 136.231C311.118 136.996 308.16 137.759 305.217 138.514C303.379 138.983 302.249 140.833 302.695 142.652C303.135 144.464 304.983 145.549 306.829 145.075C309.772 144.32 312.73 143.557 315.715 142.788C315.893 142.742 316.07 142.677 316.243 142.604ZM835.707 -87.1051C836.351 -87.3876 836.911 -87.862 837.299 -88.5056C838.278 -90.125 837.753 -92.1987 836.135 -93.1387C833.502 -94.6625 830.535 -95.9875 827.307 -97.0769C825.529 -97.6804 823.569 -96.7255 822.927 -94.9542C822.285 -93.183 823.214 -91.2591 824.991 -90.6557C827.796 -89.7072 830.353 -88.5709 832.593 -87.2762C833.573 -86.7012 834.73 -86.6747 835.707 -87.1051ZM298.479 147.174C299.997 146.513 300.871 144.855 300.47 143.231C300.029 141.42 298.181 140.335 296.343 140.804C293.365 141.569 290.403 142.325 287.463 143.068C285.625 143.537 284.491 145.38 284.924 147.196C285.365 149.007 287.218 150.1 289.055 149.63C291.998 148.876 294.961 148.12 297.943 147.362C298.124 147.305 298.306 147.247 298.479 147.174ZM280.707 151.698C282.217 151.041 283.091 149.384 282.698 147.755C282.257 145.944 280.417 144.854 278.575 145.316C275.585 146.078 272.625 146.822 269.686 147.565C267.848 148.034 266.714 149.877 267.147 151.693C267.58 153.509 269.428 154.594 271.263 154.136C274.203 153.394 277.17 152.645 280.159 151.883C280.357 151.836 280.534 151.771 280.707 151.698ZM262.925 156.188C264.436 155.531 265.302 153.878 264.921 152.252C264.488 150.436 262.647 149.347 260.805 149.809C257.811 150.563 254.851 151.307 251.915 152.038C250.08 152.495 248.931 154.347 249.36 156.156C249.793 157.972 251.638 159.069 253.473 158.611C256.409 157.881 259.376 157.132 262.37 156.378C262.568 156.33 262.753 156.261 262.925 156.188ZM245.133 160.643C246.644 159.986 247.515 158.341 247.126 156.72C246.693 154.904 244.855 153.802 243.013 154.264C240.015 155.011 237.043 155.753 234.114 156.478C232.272 156.94 231.126 158.78 231.555 160.589C231.988 162.405 233.825 163.506 235.667 163.044C238.596 162.318 241.568 161.577 244.566 160.83C244.776 160.786 244.961 160.716 245.133 160.643ZM818.705 -93.0159C819.702 -93.4479 820.483 -94.3458 820.721 -95.4838C821.106 -97.3238 819.919 -99.094 818.068 -99.442C815.15 -99.9916 811.997 -100.421 808.71 -100.71C806.831 -100.88 805.143 -99.5032 804.941 -97.6314C804.734 -95.7671 806.095 -94.1201 807.982 -93.9543C811.043 -93.6815 813.969 -93.2886 816.667 -92.7796C817.381 -92.6507 818.084 -92.747 818.705 -93.0159ZM227.339 165.06C228.842 164.408 229.713 162.762 229.336 161.144C228.915 159.331 227.066 158.226 225.231 158.684C222.22 159.428 219.252 160.157 216.331 160.879C214.496 161.336 213.338 163.173 213.759 164.986C214.185 166.807 216.022 167.908 217.869 167.454C220.79 166.732 223.766 165.999 226.776 165.254C226.962 165.204 227.151 165.142 227.339 165.06ZM209.527 169.447C211.03 168.795 211.905 167.156 211.524 165.531C211.103 163.718 209.261 162.609 207.422 163.059C204.399 163.8 201.431 164.529 198.513 165.239C196.666 165.693 195.516 167.526 195.937 169.339C196.358 171.152 198.192 172.265 200.039 171.811C202.957 171.101 205.925 170.372 208.948 169.631C209.15 169.591 209.339 169.529 209.527 169.447ZM191.705 173.8C193.208 173.147 194.076 171.514 193.706 169.891C193.293 168.073 191.451 166.964 189.612 167.414C186.57 168.157 183.597 168.879 180.702 169.575C178.858 170.018 177.7 171.854 178.118 173.68C178.532 175.497 180.366 176.611 182.217 176.164C185.12 175.463 188.093 174.741 191.135 173.998C191.328 173.944 191.517 173.881 191.705 173.8ZM800.575 -94.6913C801.767 -95.2095 802.618 -96.3702 802.66 -97.7339C802.728 -99.6065 801.244 -101.15 799.358 -101.175C796.383 -101.218 793.24 -101.18 790.021 -101.046C788.134 -100.97 786.635 -99.394 786.674 -97.5145C786.717 -95.647 788.281 -94.192 790.176 -94.2724C793.266 -94.3996 796.275 -94.4383 799.123 -94.4015C799.64 -94.3969 800.134 -94.4995 800.575 -94.6913ZM173.869 178.111C175.359 177.455 176.239 175.825 175.867 174.214C175.453 172.396 173.619 171.283 171.775 171.725C168.701 172.467 165.732 173.177 162.856 173.871C161.013 174.314 159.85 176.143 160.264 177.961C160.677 179.779 162.504 180.896 164.348 180.454C167.228 179.767 170.205 179.053 173.278 178.311C173.484 178.259 173.681 178.192 173.869 178.111ZM156.014 182.392C157.505 181.737 158.382 180.118 158.017 178.503C157.603 176.685 155.777 175.567 153.928 176.002C150.804 176.744 147.827 177.458 144.996 178.126C143.148 178.561 141.986 180.39 142.392 182.212C142.798 184.035 144.624 185.152 146.472 184.717C149.303 184.05 152.28 183.336 155.412 182.589C155.63 182.54 155.826 182.474 156.014 182.392ZM782.299 -93.9851C783.607 -94.5516 784.481 -95.8974 784.381 -97.3782C784.249 -99.2423 782.614 -100.625 780.736 -100.464C777.761 -100.214 774.656 -99.8869 771.496 -99.4969C769.619 -99.2659 768.251 -97.5757 768.45 -95.721C768.649 -93.8663 770.331 -92.5418 772.208 -92.7727C775.282 -93.1519 778.305 -93.4607 781.198 -93.7121C781.582 -93.7395 781.959 -93.8326 782.299 -93.9851ZM138.133 186.629C139.624 185.973 140.501 184.354 140.14 182.747C139.734 180.924 137.908 179.806 136.06 180.242C132.799 181.014 129.813 181.714 127.114 182.343C125.266 182.778 124.099 184.6 124.498 186.427C124.904 188.249 126.723 189.371 128.575 188.944C131.274 188.314 134.267 187.61 137.536 186.833C137.741 186.782 137.946 186.71 138.133 186.629ZM120.211 190.83C121.694 190.179 122.575 188.567 122.222 186.955C121.824 185.128 120 183.999 118.152 184.434C112.619 185.723 109.659 186.397 109.659 186.397C107.814 186.82 106.628 188.643 107.022 190.463C107.415 192.282 109.236 193.424 111.081 193.001C111.081 193.001 114.048 192.322 119.601 191.031C119.811 190.987 120.015 190.916 120.211 190.83ZM764.106 -91.7771C765.493 -92.3813 766.376 -93.8525 766.157 -95.3938C765.899 -97.2437 764.17 -98.5098 762.304 -98.2252C759.345 -97.7736 756.273 -97.2542 753.171 -96.6974C751.305 -96.362 750.044 -94.5949 750.349 -92.7527C750.654 -90.9105 752.416 -89.6938 754.282 -90.0291C757.325 -90.5812 760.335 -91.0838 763.239 -91.5232C763.54 -91.5711 763.837 -91.6578 764.106 -91.7771ZM746.054 -88.536C747.507 -89.1689 748.379 -90.7251 748.079 -92.3182C747.727 -94.1527 745.948 -95.329 744.084 -94.9549C741.132 -94.3556 738.095 -93.7066 735.042 -93.0173C733.18 -92.6044 732.002 -90.7855 732.388 -88.9616C732.774 -87.1378 734.587 -85.9915 736.436 -86.4073C739.447 -87.0815 742.444 -87.7273 745.343 -88.3143C745.592 -88.3619 745.831 -88.4438 746.054 -88.536ZM728.135 -84.5184C729.633 -85.1785 730.506 -86.8048 730.136 -88.4273C729.715 -90.2406 727.881 -91.3539 726.042 -90.9038C723.116 -90.1898 720.102 -89.4336 717.079 -88.6415C715.246 -88.1646 714.121 -86.3072 714.569 -84.5001C715.017 -82.693 716.873 -81.6125 718.706 -82.0894C721.687 -82.8664 724.666 -83.612 727.557 -84.3154C727.758 -84.3747 727.955 -84.4414 728.135 -84.5184ZM710.362 -79.893C711.903 -80.5682 712.774 -82.2646 712.333 -83.9047C711.858 -85.7057 709.988 -86.7577 708.16 -86.254C705.229 -85.4459 702.241 -84.5944 699.27 -83.7324C697.447 -83.2019 696.379 -81.318 696.882 -79.5231C697.385 -77.7282 699.268 -76.7046 701.09 -77.2351C704.027 -78.0865 706.98 -78.9274 709.884 -79.7293C710.055 -79.7705 710.217 -79.8266 710.362 -79.893ZM692.709 -74.7551C694.285 -75.4409 695.153 -77.1955 694.659 -78.8546C694.129 -80.6434 692.231 -81.6386 690.418 -81.0932C687.511 -80.2092 684.54 -79.2772 681.601 -78.3438C679.791 -77.7596 678.775 -75.8566 679.32 -74.0768C679.865 -72.2971 681.781 -71.3229 683.588 -71.8951C686.5 -72.8224 689.448 -73.7409 692.324 -74.6262C692.46 -74.6568 692.587 -74.7022 692.709 -74.7551ZM675.188 -69.1718C676.794 -69.8757 677.654 -71.6765 677.113 -73.3473C676.54 -75.1209 674.618 -76.0712 672.816 -75.4722C669.887 -74.5045 666.941 -73.4966 664.057 -72.5053C662.256 -71.8869 661.29 -69.9528 661.882 -68.1807C662.481 -66.4133 664.41 -65.4869 666.21 -66.1053C669.067 -67.0904 671.983 -68.0804 674.892 -69.0464C674.985 -69.0812 675.092 -69.1251 675.188 -69.1718ZM657.778 -63.1416C659.426 -63.8607 660.271 -65.7225 659.674 -67.4005C659.051 -69.1544 657.105 -70.0598 655.322 -69.4117C649.814 -67.4231 646.684 -66.2053 646.557 -66.1598C644.807 -65.491 643.891 -63.5064 644.553 -61.7556C645.217 -60.0168 647.184 -59.1638 648.957 -59.8462C648.992 -59.8568 652.144 -61.0882 657.56 -63.042C657.64 -63.0797 657.705 -63.1084 657.778 -63.1416Z" fill="#1443BD"/>
<path d="M766.586 2.62753C768.134 1.94784 769.675 1.27261 771.184 0.596117C772.924 -0.177103 773.724 -2.18339 772.974 -3.89188C772.23 -5.59295 770.23 -6.34592 768.501 -5.58917C768.493 -5.58465 768.486 -5.58015 768.478 -5.57563C765.746 -4.36291 762.96 -3.13798 760.111 -1.91567C760.103 -1.91115 760.103 -1.91114 760.096 -1.90663C758.367 -1.14988 757.546 0.838627 758.268 2.55326C758.998 4.26335 760.996 5.04766 762.749 4.29674C764.041 3.73926 765.321 3.1789 766.586 2.62753ZM754.313 7.8765C756.026 7.12877 756.849 5.15965 756.15 3.45087C755.443 1.72721 753.449 0.930987 751.695 1.66253C748.92 2.82027 746.098 3.98572 743.237 5.15438C741.447 5.87715 740.61 7.85534 741.302 9.58802C741.994 11.3207 743.982 12.1409 745.733 11.4213C748.621 10.2465 751.462 9.07942 754.252 7.91265C754.278 7.88714 754.293 7.8781 754.313 7.8765ZM779.525 -3.17852C779.547 -3.19207 779.575 -3.19823 779.59 -3.20726C782.437 -4.51906 785.244 -5.84702 787.935 -7.14604C789.644 -7.97131 790.387 -10.0041 789.584 -11.681C788.782 -13.3579 786.748 -14.0302 785.034 -13.2317C782.373 -11.9508 779.596 -10.6408 776.784 -9.33967C775.057 -8.54414 774.286 -6.52456 775.058 -4.82959C775.832 -3.16598 777.819 -2.43531 779.525 -3.17852ZM737.307 14.7936C738.998 14.0594 739.83 12.1246 739.168 10.4245C738.496 8.69027 736.514 7.84618 734.747 8.55541C731.945 9.66856 729.105 10.7849 726.225 11.9045C724.475 12.5733 723.552 14.5624 724.216 16.3012C724.881 18.04 726.852 18.9005 728.621 18.2107C731.516 17.0821 734.376 15.9641 737.192 14.842C737.235 14.8268 737.27 14.8162 737.307 14.7936ZM796.055 -11.1522C796.113 -11.1764 796.178 -11.2051 796.239 -11.2412C799.075 -12.6768 801.839 -14.1105 804.448 -15.512C806.125 -16.4087 806.772 -18.4649 805.897 -20.1086C805.021 -21.7522 802.956 -22.3557 801.28 -21.459C798.716 -20.0846 796.001 -18.6705 793.211 -17.2621C791.513 -16.4026 790.818 -14.358 791.651 -12.6992C792.46 -11.097 794.4 -10.4287 796.055 -11.1522ZM720.194 21.4428C721.865 20.7102 722.7 18.8141 722.074 17.1228C721.424 15.375 719.461 14.51 717.683 15.1849C714.86 16.2609 712.005 17.3356 709.11 18.4134C707.324 19.0735 706.403 21.0312 707.045 22.7836C707.686 24.5359 709.64 25.4175 711.421 24.7499C714.323 23.6676 717.194 22.5839 720.037 21.5063C720.087 21.4866 720.136 21.467 720.194 21.4428ZM812.225 -19.8371C812.34 -19.8854 812.458 -19.9457 812.572 -20.0134C815.369 -21.6174 818.059 -23.2282 820.564 -24.7888C822.174 -25.797 822.684 -27.8927 821.695 -29.4686C820.706 -31.0446 818.598 -31.512 816.988 -30.5038C814.56 -28.9884 811.946 -27.4228 809.225 -25.864C807.575 -24.9227 806.992 -22.8445 807.913 -21.2279C808.772 -19.7154 810.639 -19.1348 812.225 -19.8371ZM702.995 27.8612C704.643 27.1422 705.491 25.2684 704.889 23.5829C704.267 21.829 702.309 20.9401 700.526 21.5882C697.681 22.627 694.816 23.6674 691.916 24.7184C690.113 25.3682 689.183 27.3111 689.797 29.0695C690.412 30.828 692.366 31.7289 694.154 31.0881C697.066 30.04 699.946 28.9906 702.799 27.9473C702.857 27.9231 702.93 27.8899 702.995 27.8612ZM685.719 34.0831C687.36 33.3686 688.202 31.5187 687.624 29.8391C687.017 28.0762 685.07 27.1707 683.286 27.7995C680.427 28.816 677.544 29.8266 674.642 30.8389C672.838 31.4692 671.883 33.4063 672.479 35.1663C673.078 36.9338 675.022 37.8512 676.81 37.2299C679.72 36.2131 682.618 35.1934 685.482 34.1844C685.562 34.1466 685.647 34.1163 685.719 34.0831ZM668.394 40.1338C670.015 39.4208 670.87 37.5933 670.304 35.9166C669.717 34.152 667.776 33.2227 665.983 33.8366C663.111 34.8308 660.222 35.8146 657.314 36.8C655.524 37.402 654.531 39.3422 655.118 41.1068C655.698 42.8758 657.635 43.8171 659.428 43.2032C662.344 42.2133 665.248 41.2204 668.12 40.2262C668.221 40.2063 668.314 40.1715 668.394 40.1338ZM827.762 -29.5851C827.972 -29.6802 828.174 -29.7902 828.37 -29.927C831.108 -31.8379 833.645 -33.7403 835.918 -35.586C837.393 -36.7859 837.626 -38.9174 836.44 -40.3566C835.255 -41.7957 833.102 -41.9943 831.627 -40.7944C829.492 -39.0613 827.091 -37.2597 824.488 -35.4494C822.927 -34.3594 822.532 -32.242 823.6 -30.7232C824.55 -29.3857 826.301 -28.9476 827.762 -29.5851ZM651.023 46.0399C652.637 45.3315 653.493 43.5233 652.944 41.857C652.364 40.0879 650.442 39.1376 648.644 39.7441C645.766 40.7114 642.865 41.6729 639.955 42.639C638.146 43.2425 637.158 45.1588 637.723 46.937C638.295 48.7106 640.217 49.6609 642.019 49.0619C644.941 48.0988 647.846 47.1252 650.731 46.1534C650.828 46.126 650.923 46.0792 651.023 46.0399ZM633.605 51.8136C635.211 51.1097 636.064 49.3134 635.534 47.6455C634.969 45.8674 633.05 44.9051 631.244 45.4967C628.353 46.4418 625.454 47.3914 622.532 48.3351C620.721 48.9192 619.714 50.8372 620.279 52.6153C620.836 54.398 622.755 55.3602 624.565 54.7761C627.496 53.8278 630.402 52.8737 633.301 51.9241C633.402 51.9042 633.502 51.8648 633.605 51.8136ZM616.151 57.477C617.742 56.7822 618.604 55.0008 618.086 53.3358C617.534 51.5606 615.618 50.5864 613.815 51.166C610.915 52.0962 608.003 53.0235 605.083 53.9553C603.268 54.532 602.257 56.4425 602.802 58.2222C603.347 60.0019 605.255 60.9807 607.07 60.4039C610.002 59.4751 612.921 58.5433 615.821 57.6131C615.929 57.5692 616.044 57.5209 616.151 57.477ZM841.898 -41.2379C842.304 -41.4192 842.678 -41.6718 843.003 -42.0063C845.545 -44.6262 847.62 -47.2197 849.172 -49.7239C850.167 -51.3329 849.67 -53.4128 848.07 -54.3738C846.463 -55.3303 844.353 -54.7997 843.353 -53.198C842.061 -51.1204 840.303 -48.9269 838.112 -46.6669C836.786 -45.3037 836.806 -43.1616 838.159 -41.8726C839.188 -40.904 840.668 -40.6972 841.898 -41.2379ZM598.664 63.0303C600.254 62.3355 601.113 60.566 600.607 58.9039C600.07 57.1197 598.157 56.1335 596.349 56.7057C593.448 57.6165 590.528 58.5289 587.599 59.4458C585.787 60.0106 584.752 61.9153 585.289 63.6995C585.827 65.4837 587.732 66.4744 589.544 65.9097C592.472 64.9927 595.393 64.0803 598.302 63.165C598.433 63.127 598.548 63.0787 598.664 63.0303ZM581.15 68.4882C582.733 67.7979 583.588 66.0404 583.095 64.3812C582.565 62.5924 580.66 61.6018 578.843 62.1592C575.933 63.0551 573.015 63.9555 570.086 64.8531C568.277 65.4059 567.23 67.3076 567.76 69.0963C568.289 70.8851 570.187 71.8803 572.003 71.323C574.933 70.4255 577.863 69.5279 580.78 68.6275C580.907 68.582 581.027 68.5411 581.15 68.4882ZM563.614 73.8582C565.19 73.1724 566.05 71.4224 565.568 69.7661C565.046 67.9729 563.148 66.9777 561.327 67.5275C558.413 68.416 555.486 69.3016 552.556 70.1798C550.735 70.7297 549.683 72.624 550.201 74.4098C550.723 76.2031 552.617 77.2102 554.438 76.6603C557.377 75.7777 560.303 74.8921 563.225 73.9991C563.357 73.9611 563.484 73.9156 563.614 73.8582ZM546.042 79.1494C547.61 78.4681 548.475 76.7255 547.993 75.0692C547.475 73.2834 545.584 72.2643 543.763 72.8142C540.84 73.6878 537.912 74.554 534.981 75.4322C533.163 75.9701 532.1 77.8615 532.614 79.6593C533.125 81.4496 535.016 82.4687 536.841 81.9263C539.776 81.0556 542.712 80.1848 545.642 79.3067C545.785 79.2522 545.919 79.2023 546.042 79.1494ZM528.492 84.3569C530.053 83.6801 530.922 81.9449 530.452 80.2916C529.941 78.5012 528.058 77.4776 526.233 78.0201C523.313 78.8818 520.38 79.7405 517.456 80.5947C515.638 81.1327 514.57 83.0167 515.073 84.8115C515.575 86.6064 517.466 87.6255 519.289 87.095C522.221 86.2362 525.153 85.3775 528.081 84.5113C528.22 84.4688 528.354 84.4188 528.492 84.3569ZM850.739 -56.7975C851.854 -57.2899 852.681 -58.3356 852.811 -59.6207C852.844 -59.9625 852.869 -60.2998 852.883 -60.64C853.008 -63.7451 852.855 -66.7144 852.431 -69.4823C852.146 -71.3261 850.402 -72.5638 848.535 -72.2479C846.667 -71.9319 845.385 -70.1826 845.671 -68.3388C846.031 -66.0061 846.156 -63.4633 846.045 -60.7999C846.035 -60.5925 846.02 -60.3925 845.998 -60.188C845.811 -58.3252 847.179 -56.6827 849.065 -56.5363C849.649 -56.4708 850.226 -56.5724 850.739 -56.7975ZM510.907 89.5049C512.463 88.8207 513.329 87.0975 512.871 85.447C512.368 83.6522 510.485 82.6286 508.663 83.1591C505.726 84.0104 502.79 84.8617 499.853 85.7131C498.019 86.2407 496.958 88.1201 497.453 89.9194C497.948 91.7188 499.832 92.7424 501.658 92.2194C504.599 91.3755 507.544 90.5196 510.48 89.6683C510.622 89.6139 510.765 89.5594 510.907 89.5049ZM493.255 94.5921C494.803 93.9124 495.673 92.1966 495.22 90.5536C494.725 88.7542 492.845 87.7187 491.018 88.2418C488.069 89.0902 485.124 89.9266 482.171 90.7676C480.337 91.2952 479.264 93.1717 479.755 94.9637C480.25 96.7631 482.13 97.7986 483.949 97.28C486.902 96.4391 489.855 95.5981 492.804 94.7497C492.967 94.7131 493.117 94.654 493.255 94.5921ZM475.591 99.6257C477.14 98.946 478.007 97.2421 477.561 95.5946C477.073 93.7907 475.193 92.7552 473.374 93.2737C470.436 94.1057 467.498 94.9376 464.556 95.7621C462.733 96.2733 461.64 98.1514 462.128 99.9553C462.615 101.759 464.488 102.799 466.319 102.284C469.261 101.459 472.207 100.623 475.145 99.7907C475.291 99.7437 475.446 99.6921 475.591 99.6257ZM457.931 104.597C459.472 103.921 460.339 102.218 459.905 100.573C459.422 98.7765 457.553 97.7245 455.722 98.2402C452.779 99.0647 449.833 99.8817 446.898 100.702C445.075 101.213 443.978 103.084 444.454 104.885C444.937 106.681 446.806 107.733 448.634 107.229C451.581 106.412 454.523 105.588 457.47 104.771C457.632 104.715 457.781 104.656 457.931 104.597ZM440.268 109.509C441.809 108.834 442.68 107.138 442.239 105.498C441.763 103.697 439.894 102.645 438.058 103.153C435.111 103.97 432.16 104.78 429.221 105.592C427.393 106.096 426.297 107.966 426.772 109.767C427.248 111.568 429.117 112.621 430.945 112.117C433.889 111.312 436.835 110.495 439.79 109.673C439.956 109.624 440.11 109.573 440.268 109.509ZM422.585 114.373C424.118 113.702 424.99 112.006 424.561 110.369C424.085 108.568 422.223 107.511 420.391 108.007C417.44 108.817 414.492 109.615 411.548 110.42C409.716 110.916 408.619 112.787 409.083 114.585C409.551 116.39 411.413 117.447 413.245 116.951C416.188 116.146 419.144 115.343 422.095 114.534C422.266 114.493 422.428 114.436 422.585 114.373ZM404.891 119.183C406.425 118.512 407.293 116.828 406.871 115.186C406.403 113.381 404.541 112.324 402.704 112.813C399.749 113.615 396.801 114.413 393.856 115.199C392.032 115.69 390.911 117.555 391.379 119.361C391.847 121.166 393.706 122.235 395.538 121.738C398.486 120.941 401.438 120.15 404.394 119.348C404.569 119.314 404.731 119.258 404.891 119.183ZM847.785 -74.389C847.827 -74.4041 847.865 -74.4267 847.9 -74.4374C849.609 -75.2626 850.356 -77.2881 849.549 -78.9724C848.121 -81.978 846.224 -84.7156 843.896 -87.1257C842.603 -88.4702 840.437 -88.5002 839.06 -87.1874C837.678 -85.8821 837.608 -83.7365 838.909 -82.3965C840.735 -80.5029 842.23 -78.3524 843.353 -76C844.137 -74.3528 846.106 -73.6519 847.785 -74.389ZM387.183 123.951C388.709 123.285 389.581 121.608 389.159 119.966C388.699 118.156 386.833 117.092 385 117.589C382.041 118.383 379.088 119.174 376.151 119.955C374.307 120.448 373.201 122.304 373.662 124.114C374.122 125.924 375.981 126.993 377.817 126.504C380.762 125.718 383.714 124.928 386.674 124.133C386.86 124.083 387.018 124.019 387.183 123.951ZM369.46 128.678C370.986 128.012 371.858 126.335 371.441 124.7C370.981 122.89 369.122 121.822 367.293 122.306C364.328 123.094 361.372 123.876 358.43 124.65C356.593 125.139 355.476 126.992 355.936 128.802C356.396 130.612 358.248 131.685 360.084 131.196C363.033 130.418 365.99 129.635 368.955 128.848C369.125 128.806 369.299 128.753 369.46 128.678ZM351.73 133.358C353.256 132.692 354.121 131.019 353.715 129.388C353.255 127.578 351.404 126.505 349.575 126.99C346.606 127.769 343.652 128.54 340.711 129.314C338.87 129.795 337.752 131.648 338.205 133.463C338.658 135.277 340.509 136.35 342.35 135.869C345.296 135.103 348.253 134.32 351.222 133.54C351.4 133.494 351.569 133.434 351.73 133.358ZM333.99 138.004C335.508 137.343 336.385 135.673 335.98 134.042C335.532 132.235 333.676 131.154 331.842 131.631C328.869 132.404 325.916 133.174 322.97 133.941C321.136 134.418 320.006 136.268 320.459 138.082C320.908 139.889 322.756 140.974 324.597 140.493C327.543 139.726 330.501 138.963 333.474 138.191C333.648 138.137 333.825 138.072 333.99 138.004ZM316.243 142.604C317.761 141.943 318.631 140.278 318.23 138.654C317.782 136.847 315.933 135.762 314.095 136.231C311.118 136.996 308.16 137.759 305.217 138.514C303.379 138.983 302.249 140.833 302.695 142.652C303.135 144.464 304.983 145.549 306.829 145.075C309.772 144.32 312.73 143.557 315.715 142.788C315.893 142.742 316.07 142.677 316.243 142.604ZM835.707 -87.1051C836.351 -87.3876 836.911 -87.862 837.299 -88.5056C838.278 -90.125 837.753 -92.1987 836.135 -93.1387C833.502 -94.6625 830.535 -95.9875 827.307 -97.0769C825.529 -97.6804 823.569 -96.7255 822.927 -94.9542C822.285 -93.183 823.214 -91.2591 824.991 -90.6557C827.796 -89.7072 830.353 -88.5709 832.593 -87.2762C833.573 -86.7012 834.73 -86.6747 835.707 -87.1051ZM298.479 147.174C299.997 146.513 300.871 144.855 300.47 143.231C300.029 141.42 298.181 140.335 296.343 140.804C293.365 141.569 290.403 142.325 287.463 143.068C285.625 143.537 284.491 145.38 284.924 147.196C285.365 149.007 287.218 150.1 289.055 149.63C291.998 148.876 294.961 148.12 297.943 147.362C298.124 147.305 298.306 147.247 298.479 147.174ZM280.707 151.698C282.217 151.041 283.091 149.384 282.698 147.755C282.257 145.944 280.417 144.854 278.575 145.316C275.585 146.078 272.625 146.822 269.686 147.565C267.848 148.034 266.714 149.877 267.147 151.693C267.58 153.509 269.428 154.594 271.263 154.136C274.203 153.394 277.17 152.645 280.159 151.883C280.357 151.836 280.534 151.771 280.707 151.698ZM262.925 156.188C264.436 155.531 265.302 153.878 264.921 152.252C264.488 150.436 262.647 149.347 260.805 149.809C257.811 150.563 254.851 151.307 251.915 152.038C250.08 152.495 248.931 154.347 249.36 156.156C249.793 157.972 251.638 159.069 253.473 158.611C256.409 157.881 259.376 157.132 262.37 156.378C262.568 156.33 262.753 156.261 262.925 156.188ZM245.133 160.643C246.644 159.986 247.515 158.341 247.126 156.72C246.693 154.904 244.855 153.802 243.013 154.264C240.015 155.011 237.043 155.753 234.114 156.478C232.272 156.94 231.126 158.78 231.555 160.589C231.988 162.405 233.825 163.506 235.667 163.044C238.596 162.318 241.568 161.577 244.566 160.83C244.776 160.786 244.961 160.716 245.133 160.643ZM818.705 -93.0159C819.702 -93.4479 820.483 -94.3458 820.721 -95.4838C821.106 -97.3238 819.919 -99.094 818.068 -99.442C815.15 -99.9916 811.997 -100.421 808.71 -100.71C806.831 -100.88 805.143 -99.5032 804.941 -97.6314C804.734 -95.7671 806.095 -94.1201 807.982 -93.9543C811.043 -93.6815 813.969 -93.2886 816.667 -92.7796C817.381 -92.6507 818.084 -92.747 818.705 -93.0159ZM227.339 165.06C228.842 164.408 229.713 162.762 229.336 161.144C228.915 159.331 227.066 158.226 225.231 158.684C222.22 159.428 219.252 160.157 216.331 160.879C214.496 161.336 213.338 163.173 213.759 164.986C214.185 166.807 216.022 167.908 217.869 167.454C220.79 166.732 223.766 165.999 226.776 165.254C226.962 165.204 227.151 165.142 227.339 165.06ZM209.527 169.447C211.03 168.795 211.905 167.156 211.524 165.531C211.103 163.718 209.261 162.609 207.422 163.059C204.399 163.8 201.431 164.529 198.513 165.239C196.666 165.693 195.516 167.526 195.937 169.339C196.358 171.152 198.192 172.265 200.039 171.811C202.957 171.101 205.925 170.372 208.948 169.631C209.15 169.591 209.339 169.529 209.527 169.447ZM191.705 173.8C193.208 173.147 194.076 171.514 193.706 169.891C193.293 168.073 191.451 166.964 189.612 167.414C186.57 168.157 183.597 168.879 180.702 169.575C178.858 170.018 177.7 171.854 178.118 173.68C178.532 175.497 180.366 176.611 182.217 176.164C185.12 175.463 188.093 174.741 191.135 173.998C191.328 173.944 191.517 173.881 191.705 173.8ZM800.575 -94.6913C801.767 -95.2095 802.618 -96.3702 802.66 -97.7339C802.728 -99.6065 801.244 -101.15 799.358 -101.175C796.383 -101.218 793.24 -101.18 790.021 -101.046C788.134 -100.97 786.635 -99.394 786.674 -97.5145C786.717 -95.647 788.281 -94.192 790.176 -94.2724C793.266 -94.3996 796.275 -94.4383 799.123 -94.4015C799.64 -94.3969 800.134 -94.4995 800.575 -94.6913ZM173.869 178.111C175.359 177.455 176.239 175.825 175.867 174.214C175.453 172.396 173.619 171.283 171.775 171.725C168.701 172.467 165.732 173.177 162.856 173.871C161.013 174.314 159.85 176.143 160.264 177.961C160.677 179.779 162.504 180.896 164.348 180.454C167.228 179.767 170.205 179.053 173.278 178.311C173.484 178.259 173.681 178.192 173.869 178.111ZM156.014 182.392C157.505 181.737 158.382 180.118 158.017 178.503C157.603 176.685 155.777 175.567 153.928 176.002C150.804 176.744 147.827 177.458 144.996 178.126C143.148 178.561 141.986 180.39 142.392 182.212C142.798 184.035 144.624 185.152 146.472 184.717C149.303 184.05 152.28 183.336 155.412 182.589C155.63 182.54 155.826 182.474 156.014 182.392ZM782.299 -93.9851C783.607 -94.5516 784.481 -95.8974 784.381 -97.3782C784.249 -99.2423 782.614 -100.625 780.736 -100.464C777.761 -100.214 774.656 -99.8869 771.496 -99.4969C769.619 -99.2659 768.251 -97.5757 768.45 -95.721C768.649 -93.8663 770.331 -92.5418 772.208 -92.7727C775.282 -93.1519 778.305 -93.4607 781.198 -93.7121C781.582 -93.7395 781.959 -93.8326 782.299 -93.9851ZM138.133 186.629C139.624 185.973 140.501 184.354 140.14 182.747C139.734 180.924 137.908 179.806 136.06 180.242C132.799 181.014 129.813 181.714 127.114 182.343C125.266 182.778 124.099 184.6 124.498 186.427C124.904 188.249 126.723 189.371 128.575 188.944C131.274 188.314 134.267 187.61 137.536 186.833C137.741 186.782 137.946 186.71 138.133 186.629ZM120.211 190.83C121.694 190.179 122.575 188.567 122.222 186.955C121.824 185.128 120 183.999 118.152 184.434C112.619 185.723 109.659 186.397 109.659 186.397C107.814 186.82 106.628 188.643 107.022 190.463C107.415 192.282 109.236 193.424 111.081 193.001C111.081 193.001 114.048 192.322 119.601 191.031C119.811 190.987 120.015 190.916 120.211 190.83ZM764.106 -91.7771C765.493 -92.3813 766.376 -93.8525 766.157 -95.3938C765.899 -97.2437 764.17 -98.5098 762.304 -98.2252C759.345 -97.7736 756.273 -97.2542 753.171 -96.6974C751.305 -96.362 750.044 -94.5949 750.349 -92.7527C750.654 -90.9105 752.416 -89.6938 754.282 -90.0291C757.325 -90.5812 760.335 -91.0838 763.239 -91.5232C763.54 -91.5711 763.837 -91.6578 764.106 -91.7771ZM746.054 -88.536C747.507 -89.1689 748.379 -90.7251 748.079 -92.3182C747.727 -94.1527 745.948 -95.329 744.084 -94.9549C741.132 -94.3556 738.095 -93.7066 735.042 -93.0173C733.18 -92.6044 732.002 -90.7855 732.388 -88.9616C732.774 -87.1378 734.587 -85.9915 736.436 -86.4073C739.447 -87.0815 742.444 -87.7273 745.343 -88.3143C745.592 -88.3619 745.831 -88.4438 746.054 -88.536ZM728.135 -84.5184C729.633 -85.1785 730.506 -86.8048 730.136 -88.4273C729.715 -90.2406 727.881 -91.3539 726.042 -90.9038C723.116 -90.1898 720.102 -89.4336 717.079 -88.6415C715.246 -88.1646 714.121 -86.3072 714.569 -84.5001C715.017 -82.693 716.873 -81.6125 718.706 -82.0894C721.687 -82.8664 724.666 -83.612 727.557 -84.3154C727.758 -84.3747 727.955 -84.4414 728.135 -84.5184ZM710.362 -79.893C711.903 -80.5682 712.774 -82.2646 712.333 -83.9047C711.858 -85.7057 709.988 -86.7577 708.16 -86.254C705.229 -85.4459 702.241 -84.5944 699.27 -83.7324C697.447 -83.2019 696.379 -81.318 696.882 -79.5231C697.385 -77.7282 699.268 -76.7046 701.09 -77.2351C704.027 -78.0865 706.98 -78.9274 709.884 -79.7293C710.055 -79.7705 710.217 -79.8266 710.362 -79.893ZM692.709 -74.7551C694.285 -75.4409 695.153 -77.1955 694.659 -78.8546C694.129 -80.6434 692.231 -81.6386 690.418 -81.0932C687.511 -80.2092 684.54 -79.2772 681.601 -78.3438C679.791 -77.7596 678.775 -75.8566 679.32 -74.0768C679.865 -72.2971 681.781 -71.3229 683.588 -71.8951C686.5 -72.8224 689.448 -73.7409 692.324 -74.6262C692.46 -74.6568 692.587 -74.7022 692.709 -74.7551ZM675.188 -69.1718C676.794 -69.8757 677.654 -71.6765 677.113 -73.3473C676.54 -75.1209 674.618 -76.0712 672.816 -75.4722C669.887 -74.5045 666.941 -73.4966 664.057 -72.5053C662.256 -71.8869 661.29 -69.9528 661.882 -68.1807C662.481 -66.4133 664.41 -65.4869 666.21 -66.1053C669.067 -67.0904 671.983 -68.0804 674.892 -69.0464C674.985 -69.0812 675.092 -69.1251 675.188 -69.1718ZM657.778 -63.1416C659.426 -63.8607 660.271 -65.7225 659.674 -67.4005C659.051 -69.1544 657.105 -70.0598 655.322 -69.4117C649.814 -67.4231 646.684 -66.2053 646.557 -66.1598C644.807 -65.491 643.891 -63.5064 644.553 -61.7556C645.217 -60.0168 647.184 -59.1638 648.957 -59.8462C648.992 -59.8568 652.144 -61.0882 657.56 -63.042C657.64 -63.0797 657.705 -63.1084 657.778 -63.1416Z" fill="white" fill-opacity="0.5"/>
<path d="M215.287 245.865L13.8091 227.046L165.968 170.587L165.045 200.102L209.973 219.857L215.287 245.865Z" fill="#1443BD"/>
<path d="M215.287 245.865L13.8091 227.046L165.968 170.587L165.045 200.102L209.973 219.857L215.287 245.865Z" fill="black" fill-opacity="0.2"/>
<path d="M13.8143 227.052L197.488 182.88L357.933 212.75L13.8143 227.052Z" fill="#1443BD"/>
<path d="M13.8143 227.052L197.488 182.88L357.933 212.75L13.8143 227.052Z" fill="white" fill-opacity="0.5"/>
<path d="M165.973 170.592L13.8136 227.05L150.019 114.572L165.973 170.592Z" fill="#1443BD"/>
<path d="M165.973 170.592L13.8136 227.05L150.019 114.572L165.973 170.592Z" fill="white" fill-opacity="0.5"/>
</g>
</svg>
