<svg width="89" height="97" viewBox="0 0 89 97" fill="none" xmlns="http://www.w3.org/2000/svg">
<circle cx="60.5" cy="69.5" r="27.5" fill="#D61600"/>
<circle cx="60.5" cy="69.5" r="27.5" fill="white" fill-opacity="0.95"/>
<path d="M41.0002 57.9998C49.2854 57.9998 56.0002 51.2849 56.0002 42.9998C56.0002 34.7146 49.2854 27.9998 41.0002 27.9998C32.7151 27.9998 26.0002 34.7146 26.0002 42.9998C26.0002 51.2849 32.7151 57.9998 41.0002 57.9998ZM51.5002 61.7498H49.5432C46.9417 62.9451 44.0471 63.6248 41.0002 63.6248C37.9534 63.6248 35.0706 62.9451 32.4573 61.7498H30.5002C21.8049 61.7498 14.7502 68.8044 14.7502 77.4998V82.3748C14.7502 85.4802 17.2698 87.9998 20.3752 87.9998H61.6252C64.7307 87.9998 67.2502 85.4802 67.2502 82.3748V77.4998C67.2502 68.8044 60.1956 61.7498 51.5002 61.7498Z" fill="#0E2C7A"/>
<g clip-path="url(#clip0_321_17431)">
<path d="M20.5682 27.2199L20.5546 27.2226L20.5471 27.2241L18.9178 35.344C18.8682 35.5283 18.7681 35.6953 18.6287 35.8257C18.4893 35.9563 18.3163 36.0453 18.129 36.0827C17.9418 36.12 17.7478 36.1043 17.569 36.0372C17.3902 35.9703 17.2337 35.8545 17.1171 35.7034L12.499 28.8241L12.4884 28.8262L4.37637 27.2092C4.19661 27.1492 4.03487 27.0449 3.90609 26.9059C3.77731 26.7668 3.68565 26.5976 3.63957 26.4137C3.61138 26.226 3.63126 26.034 3.69737 25.856C3.76347 25.678 3.87365 25.5197 4.01758 25.3958L10.8908 20.7739L10.8983 20.7724L12.5289 12.6508C12.5789 12.4667 12.6793 12.3003 12.8187 12.1702C12.9581 12.04 13.131 11.9513 13.318 11.914C13.505 11.8766 13.6987 11.8922 13.8774 11.9589C14.0561 12.0255 14.2126 12.1407 14.3295 12.2914L18.947 19.1676L18.9576 19.1655L27.0687 20.7937C27.2487 20.8533 27.4106 20.9575 27.5395 21.0966C27.6684 21.2356 27.7598 21.4051 27.8055 21.5891C27.8335 21.7766 27.814 21.968 27.7483 22.1458C27.6828 22.3236 27.5735 22.4821 27.4305 22.6065L20.5682 27.2199Z" fill="#D61600"/>
<g filter="url(#filter0_d_321_17431)">
<path d="M18.6309 25.9313L18.6228 25.9329L18.6182 25.9338L17.6406 30.8057C17.6109 30.9163 17.5508 31.0165 17.4672 31.0947C17.3836 31.1732 17.2798 31.2266 17.1674 31.249C17.0551 31.2714 16.9387 31.262 16.8314 31.2216C16.7241 31.1815 16.6302 31.1121 16.5603 31.0213L13.7894 26.8938L13.7831 26.8951L8.91582 25.9249C8.80797 25.8889 8.71092 25.8263 8.63365 25.7428C8.55637 25.6594 8.50137 25.5579 8.47373 25.4476C8.45681 25.3349 8.46875 25.2198 8.50841 25.113C8.54807 25.0061 8.61417 24.9111 8.70054 24.8368L12.8245 22.0637L12.829 22.0628L13.8073 17.1898C13.8373 17.0794 13.8976 16.9795 13.9812 16.9014C14.0648 16.8233 14.1686 16.7701 14.2808 16.7477C14.393 16.7253 14.5092 16.7347 14.6164 16.7746C14.7236 16.8147 14.8176 16.8837 14.8877 16.9742L17.6582 21.0999L17.6645 21.0986L22.5313 22.0755C22.6392 22.1113 22.7363 22.1738 22.8138 22.2573C22.891 22.3407 22.946 22.4424 22.9733 22.5528C22.99 22.6653 22.9783 22.7802 22.939 22.8868C22.8997 22.9935 22.8341 23.0886 22.7484 23.1632L18.6309 25.9313Z" fill="#B21300"/>
</g>
<path d="M47.9541 16.1698L47.9449 16.1717L47.94 16.1726L46.8537 21.5859C46.8207 21.7088 46.754 21.82 46.661 21.9071C46.568 21.9941 46.4528 22.0534 46.3279 22.0783C46.2031 22.1032 46.0738 22.0927 45.9545 22.0481C45.8353 22.0034 45.731 21.9263 45.6533 21.8254L42.5746 17.2393L42.5675 17.2407L37.1595 16.1627C37.0396 16.1227 36.9319 16.0531 36.8459 15.9605C36.7601 15.8678 36.699 15.7549 36.6682 15.6324C36.6494 15.5072 36.6628 15.3793 36.7068 15.2606C36.7508 15.1419 36.8244 15.0363 36.9203 14.9537L41.5024 11.8725L41.5073 11.8715L42.5945 6.45707C42.6279 6.33437 42.6947 6.22344 42.7877 6.13666C42.8805 6.04991 42.9959 5.99073 43.1205 5.96588C43.2452 5.94098 43.3744 5.95135 43.4936 5.99578C43.6126 6.04025 43.717 6.117 43.7948 6.21751L46.8731 10.8016L46.8802 10.8002L52.2876 11.8857C52.4077 11.9254 52.5156 11.9949 52.6016 12.0876C52.6874 12.1803 52.7485 12.2933 52.7789 12.416C52.7975 12.5409 52.7845 12.6686 52.7408 12.7871C52.6972 12.9057 52.6242 13.0113 52.5288 13.0942L47.9541 16.1698Z" fill="#1443BD"/>
</g>
<defs>
<filter id="filter0_d_321_17431" x="0.466309" y="12.7358" width="30.5144" height="30.525" filterUnits="userSpaceOnUse" color-interpolation-filters="sRGB">
<feFlood flood-opacity="0" result="BackgroundImageFix"/>
<feColorMatrix in="SourceAlpha" type="matrix" values="0 0 0 0 0 0 0 0 0 0 0 0 0 0 0 0 0 0 127 0" result="hardAlpha"/>
<feOffset dy="4"/>
<feGaussianBlur stdDeviation="4"/>
<feComposite in2="hardAlpha" operator="out"/>
<feColorMatrix type="matrix" values="0 0 0 0 0 0 0 0 0 0 0 0 0 0 0 0 0 0 0.2 0"/>
<feBlend mode="normal" in2="BackgroundImageFix" result="effect1_dropShadow_321_17431"/>
<feBlend mode="normal" in="SourceGraphic" in2="effect1_dropShadow_321_17431" result="shape"/>
</filter>
<clipPath id="clip0_321_17431">
<rect width="62" height="72" fill="white" transform="translate(0 14.1348) rotate(-11.2868)"/>
</clipPath>
</defs>
</svg>
