<svg width="539" height="644" viewBox="0 0 539 644" fill="none" xmlns="http://www.w3.org/2000/svg">
<path fill-rule="evenodd" clip-rule="evenodd" d="M260.624 385.795C260.624 392.498 255.216 397.931 248.544 397.931C241.873 397.931 236.464 392.498 236.464 385.795C236.464 379.094 241.873 373.661 248.544 373.661C255.216 373.661 260.624 379.094 260.624 385.795Z" fill="#1443BD"/>
<path fill-rule="evenodd" clip-rule="evenodd" d="M260.624 385.795C260.624 392.498 255.216 397.931 248.544 397.931C241.873 397.931 236.464 392.498 236.464 385.795C236.464 379.094 241.873 373.661 248.544 373.661C255.216 373.661 260.624 379.094 260.624 385.795Z" fill="black" fill-opacity="0.5"/>
<path fill-rule="evenodd" clip-rule="evenodd" d="M246.278 495.01H250.953V389.419H246.278V495.01Z" fill="#1443BD"/>
<path fill-rule="evenodd" clip-rule="evenodd" d="M246.278 495.01H250.953V389.419H246.278V495.01Z" fill="black" fill-opacity="0.5"/>
<path fill-rule="evenodd" clip-rule="evenodd" d="M246.278 495.009L191.818 504.122L188.303 501.572L246.278 484.418V495.009Z" fill="#1443BD"/>
<path fill-rule="evenodd" clip-rule="evenodd" d="M246.278 495.009L191.818 504.122L188.303 501.572L246.278 484.418V495.009Z" fill="black" fill-opacity="0.5"/>
<path fill-rule="evenodd" clip-rule="evenodd" d="M250.954 495.009L305.414 504.122L308.928 501.572L250.954 484.418V495.009Z" fill="#1443BD"/>
<path fill-rule="evenodd" clip-rule="evenodd" d="M250.954 495.009L305.414 504.122L308.928 501.572L250.954 484.418V495.009Z" fill="black" fill-opacity="0.5"/>
<path fill-rule="evenodd" clip-rule="evenodd" d="M244.906 507.26H252.325V491.961H244.906V507.26Z" fill="#1443BD"/>
<path fill-rule="evenodd" clip-rule="evenodd" d="M244.906 507.26H252.325V491.961H244.906V507.26Z" fill="black" fill-opacity="0.5"/>
<path fill-rule="evenodd" clip-rule="evenodd" d="M196.921 507.464C196.921 510.958 194.101 513.79 190.624 513.79C187.146 513.79 184.327 510.958 184.327 507.464C184.327 503.971 187.146 501.139 190.624 501.139C194.101 501.139 196.921 503.971 196.921 507.464Z" fill="#1443BD"/>
<path fill-rule="evenodd" clip-rule="evenodd" d="M196.921 507.464C196.921 510.958 194.101 513.79 190.624 513.79C187.146 513.79 184.327 510.958 184.327 507.464C184.327 503.971 187.146 501.139 190.624 501.139C194.101 501.139 196.921 503.971 196.921 507.464Z" fill="black" fill-opacity="0.5"/>
<path fill-rule="evenodd" clip-rule="evenodd" d="M254.912 507.464C254.912 510.958 252.093 513.79 248.615 513.79C245.138 513.79 242.319 510.958 242.319 507.464C242.319 503.971 245.138 501.139 248.615 501.139C252.093 501.139 254.912 503.971 254.912 507.464Z" fill="#1443BD"/>
<path fill-rule="evenodd" clip-rule="evenodd" d="M254.912 507.464C254.912 510.958 252.093 513.79 248.615 513.79C245.138 513.79 242.319 510.958 242.319 507.464C242.319 503.971 245.138 501.139 248.615 501.139C252.093 501.139 254.912 503.971 254.912 507.464Z" fill="black" fill-opacity="0.5"/>
<path fill-rule="evenodd" clip-rule="evenodd" d="M313.456 507.464C313.456 510.958 310.636 513.79 307.158 513.79C303.681 513.79 300.862 510.958 300.862 507.464C300.862 503.971 303.681 501.139 307.158 501.139C310.636 501.139 313.456 503.971 313.456 507.464Z" fill="#1443BD"/>
<path fill-rule="evenodd" clip-rule="evenodd" d="M313.456 507.464C313.456 510.958 310.636 513.79 307.158 513.79C303.681 513.79 300.862 510.958 300.862 507.464C300.862 503.971 303.681 501.139 307.158 501.139C310.636 501.139 313.456 503.971 313.456 507.464Z" fill="black" fill-opacity="0.5"/>
<path fill-rule="evenodd" clip-rule="evenodd" d="M324.263 383.568H172.825C172.825 368.616 184.891 356.495 199.775 356.495H297.313C312.197 356.495 324.263 368.616 324.263 383.568Z" fill="#2A84C6"/>
<path fill-rule="evenodd" clip-rule="evenodd" d="M324.263 383.568H172.825C172.825 368.616 184.891 356.495 199.775 356.495H297.313C312.197 356.495 324.263 368.616 324.263 383.568Z" fill="white" fill-opacity="0.5"/>
<path fill-rule="evenodd" clip-rule="evenodd" d="M68.3444 425.663C68.3444 425.663 65.7774 405.034 93.5008 395.75C121.224 386.467 127.385 391.366 127.385 391.366L124.818 399.618C124.818 399.618 120.454 420.248 100.432 423.085C80.4092 425.921 72.7083 421.795 68.3444 425.663Z" fill="#B7EE81"/>
<path fill-rule="evenodd" clip-rule="evenodd" d="M68.3444 425.663C68.3444 425.663 65.7774 405.034 93.5008 395.75C121.224 386.467 127.385 391.366 127.385 391.366L124.818 399.618C124.818 399.618 120.454 420.248 100.432 423.085C80.4092 425.921 72.7083 421.795 68.3444 425.663Z" fill="white" fill-opacity="0.2"/>
<path d="M124.413 392.34L125.223 392.973L125.156 393.057C125.127 393.094 125.091 393.138 125.048 393.19L124.919 393.342C124.829 393.448 124.73 393.562 124.621 393.685L124.538 393.778C123.975 394.405 123.295 395.103 122.497 395.854C120.222 397.994 117.454 400.131 114.177 402.125C107.598 406.129 99.8285 409.04 90.8281 410.395L90.4942 410.444C84.4361 411.328 79.6085 413.349 75.869 416.163C74.075 417.512 72.6514 418.956 71.5601 420.396C71.1803 420.898 70.8695 421.362 70.6232 421.777L70.5428 421.914C70.5049 421.98 70.4706 422.042 70.4398 422.099L70.3538 422.264L70.3486 422.275L69.4207 421.833L69.449 421.775C69.5077 421.657 69.6043 421.479 69.7415 421.248C70.0072 420.801 70.3394 420.304 70.743 419.772C71.8902 418.257 73.3809 416.746 75.2535 415.337C79.0745 412.463 83.976 410.392 90.0805 409.463L90.3467 409.424C99.3491 408.111 107.099 405.226 113.645 401.243C116.859 399.287 119.571 397.193 121.795 395.101C122.52 394.419 123.143 393.784 123.665 393.209L123.775 393.087C123.938 392.906 124.08 392.743 124.201 392.599L124.336 392.436L124.413 392.34Z" fill="#B7EE81"/>
<path d="M124.413 392.34L125.223 392.973L125.156 393.057C125.127 393.094 125.091 393.138 125.048 393.19L124.919 393.342C124.829 393.448 124.73 393.562 124.621 393.685L124.538 393.778C123.975 394.405 123.295 395.103 122.497 395.854C120.222 397.994 117.454 400.131 114.177 402.125C107.598 406.129 99.8285 409.04 90.8281 410.395L90.4942 410.444C84.4361 411.328 79.6085 413.349 75.869 416.163C74.075 417.512 72.6514 418.956 71.5601 420.396C71.1803 420.898 70.8695 421.362 70.6232 421.777L70.5428 421.914C70.5049 421.98 70.4706 422.042 70.4398 422.099L70.3538 422.264L70.3486 422.275L69.4207 421.833L69.449 421.775C69.5077 421.657 69.6043 421.479 69.7415 421.248C70.0072 420.801 70.3394 420.304 70.743 419.772C71.8902 418.257 73.3809 416.746 75.2535 415.337C79.0745 412.463 83.976 410.392 90.0805 409.463L90.3467 409.424C99.3491 408.111 107.099 405.226 113.645 401.243C116.859 399.287 119.571 397.193 121.795 395.101C122.52 394.419 123.143 393.784 123.665 393.209L123.775 393.087C123.938 392.906 124.08 392.743 124.201 392.599L124.336 392.436L124.413 392.34Z" fill="white" fill-opacity="0.2"/>
<path fill-rule="evenodd" clip-rule="evenodd" d="M124.047 439.589H127.384V391.367H124.047L124.947 406.183C125.203 410.399 125.23 414.626 125.031 418.845L124.047 439.589Z" fill="#B7EE81"/>
<path fill-rule="evenodd" clip-rule="evenodd" d="M124.047 439.589H127.384V391.367H124.047L124.947 406.183C125.203 410.399 125.23 414.626 125.031 418.845L124.047 439.589Z" fill="white" fill-opacity="0.2"/>
<path fill-rule="evenodd" clip-rule="evenodd" d="M72.6514 355.058C72.6514 355.058 82.8692 339.449 107.212 349.339C131.555 359.229 132.775 367.127 132.775 367.127L126.38 370.326C126.38 370.326 111.423 381.876 96.0869 372.088C80.7507 362.301 77.88 354.969 72.6514 355.058Z" fill="#B7EE81"/>
<path fill-rule="evenodd" clip-rule="evenodd" d="M72.6514 355.058C72.6514 355.058 82.8692 339.449 107.212 349.339C131.555 359.229 132.775 367.127 132.775 367.127L126.38 370.326C126.38 370.326 111.423 381.876 96.0869 372.088C80.7507 362.301 77.88 354.969 72.6514 355.058Z" fill="white" fill-opacity="0.2"/>
<path fill-rule="evenodd" clip-rule="evenodd" d="M129.438 452.998H132.005L133.011 367.873C133.023 366.824 132.335 365.895 131.33 365.607L129.438 365.064C129.438 365.064 130.083 372.973 129.952 382.857C129.826 392.312 128.925 403.562 128.925 411.895C128.925 435.463 129.438 452.998 129.438 452.998Z" fill="#B7EE81"/>
<path fill-rule="evenodd" clip-rule="evenodd" d="M129.438 452.998H132.005L133.011 367.873C133.023 366.824 132.335 365.895 131.33 365.607L129.438 365.064C129.438 365.064 130.083 372.973 129.952 382.857C129.826 392.312 128.925 403.562 128.925 411.895C128.925 435.463 129.438 452.998 129.438 452.998Z" fill="white" fill-opacity="0.2"/>
<path fill-rule="evenodd" clip-rule="evenodd" d="M107.362 354.491C118.44 363.127 129.695 368.674 129.695 368.674L126.38 370.326C126.38 370.326 111.423 381.875 96.0868 372.088C80.7507 362.3 77.88 354.969 72.6514 355.058C72.6514 355.058 90.1635 341.081 107.362 354.491Z" fill="#B7EE81"/>
<path fill-rule="evenodd" clip-rule="evenodd" d="M107.362 354.491C118.44 363.127 129.695 368.674 129.695 368.674L126.38 370.326C126.38 370.326 111.423 381.875 96.0868 372.088C80.7507 362.3 77.88 354.969 72.6514 355.058C72.6514 355.058 90.1635 341.081 107.362 354.491Z" fill="black" fill-opacity="0.2"/>
<path fill-rule="evenodd" clip-rule="evenodd" d="M192.78 391.978C192.78 391.978 185.888 381.502 169.466 388.14C153.045 394.778 152.222 400.079 152.222 400.079L156.536 402.226C156.536 402.226 166.626 409.978 176.971 403.409C187.317 396.839 189.253 391.918 192.78 391.978Z" fill="#B7EE81"/>
<path fill-rule="evenodd" clip-rule="evenodd" d="M192.78 391.978C192.78 391.978 185.888 381.502 169.466 388.14C153.045 394.778 152.222 400.079 152.222 400.079L156.536 402.226C156.536 402.226 166.626 409.978 176.971 403.409C187.317 396.839 189.253 391.918 192.78 391.978Z" fill="white" fill-opacity="0.2"/>
<path fill-rule="evenodd" clip-rule="evenodd" d="M154.434 458.141H152.66L151.965 400.725C151.957 400.017 152.432 399.391 153.127 399.196L154.434 398.83C154.434 398.83 153.988 404.165 154.079 410.831C154.166 417.209 154.789 424.797 154.789 430.417C154.789 446.314 154.434 458.141 154.434 458.141Z" fill="#B7EE81"/>
<path fill-rule="evenodd" clip-rule="evenodd" d="M154.434 458.141H152.66L151.965 400.725C151.957 400.017 152.432 399.391 153.127 399.196L154.434 398.83C154.434 398.83 153.988 404.165 154.079 410.831C154.166 417.209 154.789 424.797 154.789 430.417C154.789 446.314 154.434 458.141 154.434 458.141Z" fill="white" fill-opacity="0.2"/>
<path fill-rule="evenodd" clip-rule="evenodd" d="M194.696 335.202C194.696 335.202 184.478 319.593 160.135 329.483C135.792 339.373 134.572 347.271 134.572 347.271L140.968 350.47C140.968 350.47 155.924 362.02 171.261 352.232C186.597 342.445 189.468 335.113 194.696 335.202Z" fill="#B7EE81"/>
<path fill-rule="evenodd" clip-rule="evenodd" d="M194.696 335.202C194.696 335.202 184.478 319.593 160.135 329.483C135.792 339.373 134.572 347.271 134.572 347.271L140.968 350.47C140.968 350.47 155.924 362.02 171.261 352.232C186.597 342.445 189.468 335.113 194.696 335.202Z" fill="white" fill-opacity="0.2"/>
<path fill-rule="evenodd" clip-rule="evenodd" d="M137.91 436.494H135.343L134.337 348.018C134.325 346.968 135.013 346.039 136.018 345.751L137.91 345.208C137.91 345.208 137.265 353.117 137.396 363.001C137.522 372.456 138.423 383.706 138.423 392.039C138.423 415.607 137.91 436.494 137.91 436.494Z" fill="#B7EE81"/>
<path fill-rule="evenodd" clip-rule="evenodd" d="M137.91 436.494H135.343L134.337 348.018C134.325 346.968 135.013 346.039 136.018 345.751L137.91 345.208C137.91 345.208 137.265 353.117 137.396 363.001C137.522 372.456 138.423 383.706 138.423 392.039C138.423 415.607 137.91 436.494 137.91 436.494Z" fill="white" fill-opacity="0.2"/>
<path fill-rule="evenodd" clip-rule="evenodd" d="M194.696 335.201C194.696 335.201 177.184 321.225 159.986 334.634C148.908 343.271 137.653 348.817 137.653 348.817L140.968 350.47C140.968 350.47 155.925 362.019 171.261 352.232C186.597 342.444 189.468 335.112 194.696 335.201Z" fill="#B7EE81"/>
<path fill-rule="evenodd" clip-rule="evenodd" d="M194.696 335.201C194.696 335.201 177.184 321.225 159.986 334.634C148.908 343.271 137.653 348.817 137.653 348.817L140.968 350.47C140.968 350.47 155.925 362.019 171.261 352.232C186.597 342.444 189.468 335.112 194.696 335.201Z" fill="black" fill-opacity="0.2"/>
<path fill-rule="evenodd" clip-rule="evenodd" d="M142.53 435.721H146.894L148.62 380.918L145.333 329.193C145.345 328.143 144.657 327.214 143.652 326.926L141.76 326.383C141.76 326.383 145.867 367.46 145.867 375.793C145.867 399.361 142.53 435.721 142.53 435.721Z" fill="#B7EE81"/>
<path fill-rule="evenodd" clip-rule="evenodd" d="M142.53 435.721H146.894L148.62 380.918L145.333 329.193C145.345 328.143 144.657 327.214 143.652 326.926L141.76 326.383C141.76 326.383 145.867 367.46 145.867 375.793C145.867 399.361 142.53 435.721 142.53 435.721Z" fill="white" fill-opacity="0.2"/>
<path fill-rule="evenodd" clip-rule="evenodd" d="M93.4221 297.442C93.4221 297.442 102.742 283.576 124.818 297.501C147.056 311.528 145.512 329.93 145.512 329.93L138.406 330.673C138.406 330.673 120.367 336.218 109.422 321.648C98.478 307.079 98.3494 299.201 93.4221 297.442Z" fill="#B7EE81"/>
<path fill-rule="evenodd" clip-rule="evenodd" d="M93.4221 297.442C93.4221 297.442 102.742 283.576 124.818 297.501C147.056 311.528 145.512 329.93 145.512 329.93L138.406 330.673C138.406 330.673 120.367 336.218 109.422 321.648C98.478 307.079 98.3494 299.201 93.4221 297.442Z" fill="white" fill-opacity="0.2"/>
<path fill-rule="evenodd" clip-rule="evenodd" d="M93.4221 297.441C93.4221 297.441 103.455 290.012 111.983 300.595C116.347 306.01 124.067 310.093 127.385 313.231C136.003 321.382 142.087 330.293 142.087 330.293L138.406 330.672C138.406 330.672 120.367 336.217 109.422 321.648C98.478 307.078 98.3494 299.201 93.4221 297.441Z" fill="#B7EE81"/>
<path fill-rule="evenodd" clip-rule="evenodd" d="M93.4221 297.441C93.4221 297.441 103.455 290.012 111.983 300.595C116.347 306.01 124.067 310.093 127.385 313.231C136.003 321.382 142.087 330.293 142.087 330.293L138.406 330.672C138.406 330.672 120.367 336.217 109.422 321.648C98.478 307.078 98.3494 299.201 93.4221 297.441Z" fill="black" fill-opacity="0.2"/>
<path fill-rule="evenodd" clip-rule="evenodd" d="M158.694 507.925H116.978C113.575 507.925 110.806 505.154 110.806 501.736L101.139 441.91C101.139 438.491 103.897 435.721 107.3 435.721H166.854C170.256 435.721 173.014 438.491 173.014 441.91L164.986 501.736C164.986 505.154 162.096 507.925 158.694 507.925Z" fill="#1443BD"/>
<path fill-rule="evenodd" clip-rule="evenodd" d="M158.694 507.925H116.978C113.575 507.925 110.806 505.154 110.806 501.736L101.139 441.91C101.139 438.491 103.897 435.721 107.3 435.721H166.854C170.256 435.721 173.014 438.491 173.014 441.91L164.986 501.736C164.986 505.154 162.096 507.925 158.694 507.925Z" fill="black" fill-opacity="0.2"/>
<path fill-rule="evenodd" clip-rule="evenodd" d="M301.8 164.168C301.8 164.168 315 163.399 317.257 177.539C329.492 183.248 324.858 196.794 324.858 196.794C324.858 196.794 330.269 208.217 317.187 212.696C315.223 223.75 302.793 220.633 302.793 220.633C302.793 220.633 299.03 228.981 289.755 224.606C278.727 231.785 259.389 228.477 253.321 218.005C238.725 227.101 215.941 212.482 219.742 203.354C203.809 200.992 197.509 183.256 208.139 169.573C201.915 157.484 210.713 151.43 210.713 151.43C210.713 151.43 210.704 124.897 229.158 122.925C239.701 109.552 258.89 122.695 258.89 122.695C258.89 122.695 272.488 121.066 276.277 133.131C291.007 136.731 289.599 144.913 290.153 151.935C303.447 153.851 301.8 164.168 301.8 164.168Z" fill="#1443BD"/>
<path fill-rule="evenodd" clip-rule="evenodd" d="M301.8 164.168C301.8 164.168 315 163.399 317.257 177.539C329.492 183.248 324.858 196.794 324.858 196.794C324.858 196.794 330.269 208.217 317.187 212.696C315.223 223.75 302.793 220.633 302.793 220.633C302.793 220.633 299.03 228.981 289.755 224.606C278.727 231.785 259.389 228.477 253.321 218.005C238.725 227.101 215.941 212.482 219.742 203.354C203.809 200.992 197.509 183.256 208.139 169.573C201.915 157.484 210.713 151.43 210.713 151.43C210.713 151.43 210.704 124.897 229.158 122.925C239.701 109.552 258.89 122.695 258.89 122.695C258.89 122.695 272.488 121.066 276.277 133.131C291.007 136.731 289.599 144.913 290.153 151.935C303.447 153.851 301.8 164.168 301.8 164.168Z" fill="black" fill-opacity="0.5"/>
<path fill-rule="evenodd" clip-rule="evenodd" d="M261.481 147.72C250.855 148.66 248.357 140.426 248.357 140.426C248.357 140.426 245.001 128.847 243.303 135.63C242.402 139.234 237.192 133.896 234.271 137.57C232.304 140.042 236.366 143.8 230.108 150.303C226.484 154.071 239.135 158.424 230.516 165.2C230.516 165.2 235.405 174.809 225.409 176.938L223.459 187.537C222.324 193.705 226.736 199.512 232.958 200.041C238.889 200.545 244.066 196.028 244.397 190.056L245.121 176.989C260.246 178.299 262.777 157.481 261.481 147.72Z" fill="#FFC999"/>
<path fill-rule="evenodd" clip-rule="evenodd" d="M250.325 161.4C245.949 161.447 242.118 158.881 242.118 158.881C242.118 158.881 240.978 164.607 244.626 165.294C248.169 165.961 250.325 161.4 250.325 161.4Z" fill="white"/>
<path d="M241.492 158.754L241.449 158.999C241.433 159.101 241.416 159.222 241.4 159.361C241.286 160.298 241.268 161.282 241.411 162.217C241.713 164.198 242.688 165.581 244.508 165.924C246.412 166.282 248.081 165.415 249.48 163.801C249.882 163.338 250.232 162.845 250.53 162.351C250.71 162.053 250.834 161.817 250.902 161.675C251.104 161.246 250.79 160.753 250.318 160.758C248.487 160.777 246.607 160.322 244.789 159.549C244.164 159.283 243.591 158.998 243.086 158.714L242.851 158.579C242.675 158.476 242.547 158.396 242.473 158.346C242.094 158.093 241.581 158.306 241.492 158.754ZM242.609 160.145L242.626 159.924L242.462 159.834C243.007 160.14 243.62 160.446 244.291 160.731L244.661 160.884C246.008 161.425 247.39 161.802 248.774 161.959L249.236 162.003L249.101 162.205C248.922 162.463 248.727 162.716 248.517 162.958C247.385 164.264 246.119 164.921 244.744 164.662C243.548 164.437 242.902 163.521 242.674 162.023C242.582 161.421 242.568 160.779 242.609 160.145Z" fill="#F56D7E"/>
<path d="M247.156 158.321C247.368 158.316 247.717 158.271 248.207 158.149C248.958 157.963 249.839 157.642 250.851 157.159L251.03 157.071L250.88 156.789C250.191 155.459 249.722 154.162 249.44 152.92L249.368 152.583C249.175 151.624 249.113 150.819 249.131 150.2L249.147 149.913C249.148 149.899 249.149 149.888 249.15 149.878C249.18 149.614 249.417 149.424 249.68 149.454C249.917 149.481 250.094 149.676 250.105 149.908L250.096 150.076C250.063 150.635 250.112 151.422 250.307 152.392C250.603 153.859 251.18 155.422 252.107 157.037C252.244 157.275 252.155 157.58 251.911 157.705C250.569 158.398 249.412 158.842 248.437 159.084C247.872 159.224 247.446 159.279 247.156 159.283L247.027 159.281C246.763 159.265 246.562 159.036 246.578 158.771C246.593 158.532 246.779 158.345 247.008 158.322L247.085 158.32L247.156 158.321Z" fill="#DD936F"/>
<path d="M239.869 146.009C241.824 146.179 243.07 148.629 242.832 151.401C242.802 151.742 242.504 151.994 242.165 151.964C241.826 151.935 241.575 151.635 241.605 151.295C241.792 149.117 240.887 147.339 239.763 147.241C238.641 147.145 237.447 148.741 237.259 150.918C237.23 151.259 236.931 151.511 236.593 151.481C236.254 151.452 236.003 151.152 236.032 150.811C236.266 148.109 237.834 145.952 239.723 146.001L239.869 146.009Z" fill="#1443BD"/>
<path d="M239.869 146.009C241.824 146.179 243.07 148.629 242.832 151.401C242.802 151.742 242.504 151.994 242.165 151.964C241.826 151.935 241.575 151.635 241.605 151.295C241.792 149.117 240.887 147.339 239.763 147.241C238.641 147.145 237.447 148.741 237.259 150.918C237.23 151.259 236.931 151.511 236.593 151.481C236.254 151.452 236.003 151.152 236.032 150.811C236.266 148.109 237.834 145.952 239.723 146.001L239.869 146.009Z" fill="black" fill-opacity="0.5"/>
<path d="M256.412 148.962C258.366 149.131 259.612 151.581 259.374 154.353C259.345 154.693 259.046 154.945 258.707 154.916C258.369 154.887 258.118 154.587 258.147 154.247C258.334 152.069 257.43 150.291 256.306 150.194C255.183 150.097 253.99 151.693 253.803 153.87C253.774 154.21 253.475 154.462 253.136 154.433C252.798 154.404 252.547 154.104 252.576 153.763C252.808 151.061 254.377 148.903 256.266 148.953L256.412 148.962Z" fill="#1443BD"/>
<path d="M256.412 148.962C258.366 149.131 259.612 151.581 259.374 154.353C259.345 154.693 259.046 154.945 258.707 154.916C258.369 154.887 258.118 154.587 258.147 154.247C258.334 152.069 257.43 150.291 256.306 150.194C255.183 150.097 253.99 151.693 253.803 153.87C253.774 154.21 253.475 154.462 253.136 154.433C252.798 154.404 252.547 154.104 252.576 153.763C252.808 151.061 254.377 148.903 256.266 148.953L256.412 148.962Z" fill="black" fill-opacity="0.5"/>
<path d="M235.211 140.207C238.129 138.71 240.91 138.656 243.309 139.468C243.881 139.661 244.295 139.859 244.53 140C244.838 140.184 244.939 140.583 244.755 140.892C244.572 141.201 244.174 141.302 243.867 141.118L243.806 141.084C243.765 141.062 243.708 141.033 243.635 140.999C243.425 140.898 243.177 140.797 242.895 140.701C240.807 139.994 238.382 140.042 235.801 141.367C235.482 141.53 235.092 141.403 234.929 141.083C234.766 140.763 234.893 140.371 235.211 140.207Z" fill="#1443BD"/>
<path d="M235.211 140.207C238.129 138.71 240.91 138.656 243.309 139.468C243.881 139.661 244.295 139.859 244.53 140C244.838 140.184 244.939 140.583 244.755 140.892C244.572 141.201 244.174 141.302 243.867 141.118L243.806 141.084C243.765 141.062 243.708 141.033 243.635 140.999C243.425 140.898 243.177 140.797 242.895 140.701C240.807 139.994 238.382 140.042 235.801 141.367C235.482 141.53 235.092 141.403 234.929 141.083C234.766 140.763 234.893 140.371 235.211 140.207Z" fill="black" fill-opacity="0.5"/>
<path d="M235.657 173.563C235.803 173.341 236.101 173.28 236.321 173.427C239.118 175.285 242.091 176.355 245.142 176.662C245.405 176.688 245.598 176.924 245.571 177.189C245.545 177.453 245.31 177.646 245.047 177.62C241.841 177.297 238.718 176.174 235.793 174.23C235.572 174.083 235.511 173.784 235.657 173.563Z" fill="#DD936F"/>
<path fill-rule="evenodd" clip-rule="evenodd" d="M297.893 278.453L298.685 278.016C304.603 274.748 306.763 267.283 303.512 261.34L273.393 206.285C270.14 200.341 262.708 198.172 256.792 201.438L256 201.875C250.084 205.142 247.924 212.607 251.175 218.551L281.294 273.605C284.547 279.548 291.977 281.719 297.893 278.453Z" fill="#FFC999"/>
<path fill-rule="evenodd" clip-rule="evenodd" d="M263.911 241.83L250.963 218.163C247.843 212.458 250.286 205.03 256.397 201.656C262.507 198.284 270.059 200.192 273.18 205.897L286.005 229.34L263.911 241.83Z" fill="#1443BD"/>
<path fill-rule="evenodd" clip-rule="evenodd" d="M263.911 241.83L250.963 218.163C247.843 212.458 250.286 205.03 256.397 201.656C262.507 198.284 270.059 200.192 273.18 205.897L286.005 229.34L263.911 241.83Z" fill="white" fill-opacity="0.35"/>
<path d="M255.897 201.506C256.077 201.406 256.303 201.472 256.402 201.653C256.501 201.834 256.435 202.062 256.255 202.161C250.403 205.393 248.016 212.442 250.846 217.929L250.968 218.16L263.735 241.496L285.501 229.192C285.661 229.101 285.858 229.142 285.97 229.278L286.008 229.334C286.098 229.494 286.058 229.692 285.922 229.805L285.866 229.843L263.773 242.333C263.612 242.424 263.414 242.382 263.302 242.244L263.264 242.188L250.316 218.52C247.093 212.629 249.612 204.976 255.897 201.506Z" fill="#2A84C6"/>
<path d="M255.897 201.506C256.077 201.406 256.303 201.472 256.402 201.653C256.501 201.834 256.435 202.062 256.255 202.161C250.403 205.393 248.016 212.442 250.846 217.929L250.968 218.16L263.735 241.496L285.501 229.192C285.661 229.101 285.858 229.142 285.97 229.278L286.008 229.334C286.098 229.494 286.058 229.692 285.922 229.805L285.866 229.843L263.773 242.333C263.612 242.424 263.414 242.382 263.302 242.244L263.264 242.188L250.316 218.52C247.093 212.629 249.612 204.976 255.897 201.506Z" fill="black" fill-opacity="0.2"/>
<path fill-rule="evenodd" clip-rule="evenodd" d="M275.738 460.815C280.71 462.735 286.32 460.328 288.447 455.361L333.95 349.132C337.228 341.478 333.58 332.646 325.919 329.687C318.259 326.729 309.66 330.831 306.99 338.719L269.938 448.213C268.206 453.332 270.765 458.895 275.738 460.815Z" fill="#FFC999"/>
<path fill-rule="evenodd" clip-rule="evenodd" d="M208.962 326.367C212.162 316.66 221.023 310.948 228.585 313.719L309.885 343.516C316.147 345.811 319.03 354.059 316.38 362.097C313.732 370.136 306.517 375.025 300.13 373.112L217.194 348.28C209.48 345.97 205.763 336.074 208.962 326.367Z" fill="#FFC999"/>
<path fill-rule="evenodd" clip-rule="evenodd" d="M284.774 465.022L266.354 458.563L275.487 428.932L296.634 436.347L284.774 465.022Z" fill="#1443BD"/>
<path fill-rule="evenodd" clip-rule="evenodd" d="M284.774 465.022L266.354 458.563L275.487 428.932L296.634 436.347L284.774 465.022Z" fill="white" fill-opacity="0.35"/>
<path d="M274.251 435.049C274.357 434.741 274.673 434.567 274.983 434.63L275.067 434.653L294.589 441.499C294.923 441.616 295.099 441.983 294.983 442.319C294.876 442.627 294.56 442.801 294.251 442.738L294.167 442.715L274.644 435.869C274.31 435.751 274.134 435.384 274.251 435.049Z" fill="#2A84C6"/>
<path d="M274.251 435.049C274.357 434.741 274.673 434.567 274.983 434.63L275.067 434.653L294.589 441.499C294.923 441.616 295.099 441.983 294.983 442.319C294.876 442.627 294.56 442.801 294.251 442.738L294.167 442.715L274.644 435.869C274.31 435.751 274.134 435.384 274.251 435.049Z" fill="white" fill-opacity="0.85"/>
<path fill-rule="evenodd" clip-rule="evenodd" d="M288.819 458.525L268.567 451.424L254.597 488.33L300.228 504.33L302.327 498.648C303.091 496.556 302.255 494.215 300.338 493.091L289.47 485.266L284.483 479.524C282.98 477.795 282.544 475.383 283.354 473.237C285.095 468.622 288.035 460.794 288.819 458.525Z" fill="#2A84C6"/>
<path fill-rule="evenodd" clip-rule="evenodd" d="M288.819 458.525L268.567 451.424L254.597 488.33L300.228 504.33L302.327 498.648C303.091 496.556 302.255 494.215 300.338 493.091L289.47 485.266L284.483 479.524C282.98 477.795 282.544 475.383 283.354 473.237C285.095 468.622 288.035 460.794 288.819 458.525Z" fill="black" fill-opacity="0.2"/>
<path fill-rule="evenodd" clip-rule="evenodd" d="M254.615 489.7L300.107 505.65C300.539 505.801 301.01 505.573 301.16 505.139L302.941 500.014C303.092 499.581 302.865 499.106 302.433 498.956L256.941 483.006C256.51 482.855 256.039 483.083 255.888 483.516L254.107 488.642C253.957 489.075 254.185 489.548 254.615 489.7Z" fill="#2A84C6"/>
<path fill-rule="evenodd" clip-rule="evenodd" d="M254.615 489.7L300.107 505.65C300.539 505.801 301.01 505.573 301.16 505.139L302.941 500.014C303.092 499.581 302.865 499.106 302.433 498.956L256.941 483.006C256.51 482.855 256.039 483.083 255.888 483.516L254.107 488.642C253.957 489.075 254.185 489.548 254.615 489.7Z" fill="white" fill-opacity="0.85"/>
<path fill-rule="evenodd" clip-rule="evenodd" d="M302.433 498.956C303.555 495.726 302.179 492.154 299.184 490.527L289.476 485.249L285.995 493.066L302.433 498.956Z" fill="#2A84C6"/>
<path fill-rule="evenodd" clip-rule="evenodd" d="M302.433 498.956C303.555 495.726 302.179 492.154 299.184 490.527L289.476 485.249L285.995 493.066L302.433 498.956Z" fill="white" fill-opacity="0.85"/>
<path d="M256.631 482.896C256.683 482.746 256.833 482.658 256.984 482.678L257.049 482.694L302.541 498.644C302.712 498.704 302.802 498.892 302.742 499.064C302.69 499.214 302.54 499.302 302.389 499.282L302.324 499.266L256.833 483.316C256.662 483.256 256.572 483.068 256.631 482.896Z" fill="#2A84C6"/>
<path d="M256.631 482.896C256.683 482.746 256.833 482.658 256.984 482.678L257.049 482.694L302.541 498.644C302.712 498.704 302.802 498.892 302.742 499.064C302.69 499.214 302.54 499.302 302.389 499.282L302.324 499.266L256.833 483.316C256.662 483.256 256.572 483.068 256.631 482.896Z" fill="white" fill-opacity="0.5"/>
<path d="M278.885 471.68C280.39 471.207 281.958 471.102 283.337 471.203L283.515 471.218C283.592 471.225 283.653 471.231 283.694 471.237C284.054 471.283 284.307 471.614 284.261 471.975C284.215 472.336 283.886 472.59 283.527 472.544L283.242 472.517C282.115 472.435 280.834 472.507 279.609 472.84L279.277 472.938L279.076 473.005L279.232 473.088C279.454 473.207 279.687 473.337 279.931 473.477L280.179 473.621L280.645 473.9C280.724 473.948 280.804 473.996 280.884 474.046C281.513 474.432 282.152 474.846 282.77 475.259L283.581 475.812C284.053 476.142 283.903 476.88 283.339 476.997L283.189 477.033C283.143 477.045 283.088 477.06 283.026 477.078C282.758 477.153 282.455 477.251 282.124 477.374C281.65 477.551 281.17 477.76 280.692 478.005L280.514 478.098L280.701 478.166L281.056 478.304C281.807 478.604 282.595 478.974 283.406 479.397C284.199 479.811 284.972 480.253 285.694 480.696L286.221 481.025L286.631 481.291C287.2 481.674 286.876 482.544 286.23 482.498L285.993 482.467C285.027 482.367 283.884 482.524 282.805 483.141C282.616 483.25 282.432 483.371 282.254 483.506C281.965 483.725 281.554 483.667 281.336 483.377C281.117 483.087 281.175 482.674 281.464 482.454C281.687 482.285 281.918 482.132 282.156 481.996C282.747 481.658 283.348 481.431 283.94 481.293L284.072 481.264L283.931 481.183C283.746 481.077 283.559 480.973 283.371 480.87L282.801 480.566C282.027 480.162 281.277 479.811 280.571 479.528C279.912 479.264 279.303 479.065 278.755 478.939C278.195 478.81 278.059 478.072 278.536 477.75C279.436 477.143 280.362 476.662 281.277 476.291L281.697 476.128L281.432 475.952C281.227 475.818 281.021 475.685 280.815 475.555L280.2 475.17L279.74 474.891L279.517 474.759C278.58 474.209 277.808 473.815 277.277 473.629C276.75 473.444 276.679 472.724 277.16 472.439C277.689 472.126 278.267 471.874 278.885 471.68Z" fill="#2A84C6"/>
<path d="M278.885 471.68C280.39 471.207 281.958 471.102 283.337 471.203L283.515 471.218C283.592 471.225 283.653 471.231 283.694 471.237C284.054 471.283 284.307 471.614 284.261 471.975C284.215 472.336 283.886 472.59 283.527 472.544L283.242 472.517C282.115 472.435 280.834 472.507 279.609 472.84L279.277 472.938L279.076 473.005L279.232 473.088C279.454 473.207 279.687 473.337 279.931 473.477L280.179 473.621L280.645 473.9C280.724 473.948 280.804 473.996 280.884 474.046C281.513 474.432 282.152 474.846 282.77 475.259L283.581 475.812C284.053 476.142 283.903 476.88 283.339 476.997L283.189 477.033C283.143 477.045 283.088 477.06 283.026 477.078C282.758 477.153 282.455 477.251 282.124 477.374C281.65 477.551 281.17 477.76 280.692 478.005L280.514 478.098L280.701 478.166L281.056 478.304C281.807 478.604 282.595 478.974 283.406 479.397C284.199 479.811 284.972 480.253 285.694 480.696L286.221 481.025L286.631 481.291C287.2 481.674 286.876 482.544 286.23 482.498L285.993 482.467C285.027 482.367 283.884 482.524 282.805 483.141C282.616 483.25 282.432 483.371 282.254 483.506C281.965 483.725 281.554 483.667 281.336 483.377C281.117 483.087 281.175 482.674 281.464 482.454C281.687 482.285 281.918 482.132 282.156 481.996C282.747 481.658 283.348 481.431 283.94 481.293L284.072 481.264L283.931 481.183C283.746 481.077 283.559 480.973 283.371 480.87L282.801 480.566C282.027 480.162 281.277 479.811 280.571 479.528C279.912 479.264 279.303 479.065 278.755 478.939C278.195 478.81 278.059 478.072 278.536 477.75C279.436 477.143 280.362 476.662 281.277 476.291L281.697 476.128L281.432 475.952C281.227 475.818 281.021 475.685 280.815 475.555L280.2 475.17L279.74 474.891L279.517 474.759C278.58 474.209 277.808 473.815 277.277 473.629C276.75 473.444 276.679 472.724 277.16 472.439C277.689 472.126 278.267 471.874 278.885 471.68Z" fill="white" fill-opacity="0.85"/>
<path d="M277.174 464.395C273.608 464.532 270.869 465.804 269.391 468.517C268.342 470.441 268.782 471.834 270.512 472.254C271.717 472.547 273.555 472.371 275.936 471.83C277.569 471.459 279.377 470.934 281.253 470.313L282.416 469.919C283.456 469.559 284.304 469.244 284.867 469.024C285.016 468.99 285.328 468.882 285.65 468.714C286.144 468.456 286.505 468.133 286.656 467.679C286.861 467.062 286.587 466.448 285.928 465.907C285.871 465.861 285.807 465.824 285.738 465.799L285.421 465.69C285.318 465.655 285.197 465.616 285.06 465.574C284.53 465.408 283.938 465.243 283.297 465.089C281.226 464.591 279.138 464.319 277.174 464.395ZM277.224 465.712C279.052 465.641 281.028 465.898 282.992 466.37C283.603 466.517 284.167 466.675 284.671 466.832L285.182 466.999L285.239 467.049C285.392 467.19 285.416 467.249 285.412 467.262C285.394 467.314 285.264 467.43 285.044 467.545C284.827 467.659 284.601 467.737 284.465 467.772L283.873 467.996C283.224 468.238 282.409 468.532 281.461 468.854C279.401 469.554 277.41 470.145 275.647 470.545C273.453 471.043 271.771 471.204 270.82 470.973C270.006 470.775 269.877 470.369 270.541 469.15C271.764 466.906 274.075 465.833 277.224 465.712Z" fill="#2A84C6"/>
<path d="M277.174 464.395C273.608 464.532 270.869 465.804 269.391 468.517C268.342 470.441 268.782 471.834 270.512 472.254C271.717 472.547 273.555 472.371 275.936 471.83C277.569 471.459 279.377 470.934 281.253 470.313L282.416 469.919C283.456 469.559 284.304 469.244 284.867 469.024C285.016 468.99 285.328 468.882 285.65 468.714C286.144 468.456 286.505 468.133 286.656 467.679C286.861 467.062 286.587 466.448 285.928 465.907C285.871 465.861 285.807 465.824 285.738 465.799L285.421 465.69C285.318 465.655 285.197 465.616 285.06 465.574C284.53 465.408 283.938 465.243 283.297 465.089C281.226 464.591 279.138 464.319 277.174 464.395ZM277.224 465.712C279.052 465.641 281.028 465.898 282.992 466.37C283.603 466.517 284.167 466.675 284.671 466.832L285.182 466.999L285.239 467.049C285.392 467.19 285.416 467.249 285.412 467.262C285.394 467.314 285.264 467.43 285.044 467.545C284.827 467.659 284.601 467.737 284.465 467.772L283.873 467.996C283.224 468.238 282.409 468.532 281.461 468.854C279.401 469.554 277.41 470.145 275.647 470.545C273.453 471.043 271.771 471.204 270.82 470.973C270.006 470.775 269.877 470.369 270.541 469.15C271.764 466.906 274.075 465.833 277.224 465.712Z" fill="white" fill-opacity="0.85"/>
<path fill-rule="evenodd" clip-rule="evenodd" d="M394.506 462.23C399.463 460.27 401.978 454.687 400.205 449.582L362.276 340.392C359.545 332.526 350.913 328.492 343.276 331.513C335.639 334.533 332.062 343.396 335.401 351.021L381.755 456.88C383.922 461.829 389.551 464.191 394.506 462.23Z" fill="#FFC999"/>
<path fill-rule="evenodd" clip-rule="evenodd" d="M252.782 335.227C253.884 325.062 261.356 317.609 269.328 318.726L355.042 330.723C361.644 331.646 366.185 339.104 365.274 347.521C364.362 355.94 358.329 362.24 351.685 361.717L265.409 354.917C257.383 354.284 251.682 345.393 252.782 335.227Z" fill="#FFC999"/>
<path fill-rule="evenodd" clip-rule="evenodd" d="M403.996 459.197L386.075 466.942L372.872 438.902L393.446 430.01L403.996 459.197Z" fill="#1443BD"/>
<path fill-rule="evenodd" clip-rule="evenodd" d="M403.996 459.197L386.075 466.942L372.872 438.902L393.446 430.01L403.996 459.197Z" fill="white" fill-opacity="0.35"/>
<path d="M395.405 435.194C395.73 435.054 396.107 435.204 396.247 435.531C396.375 435.83 396.26 436.173 395.989 436.337L395.912 436.377L376.916 444.587C376.591 444.727 376.215 444.576 376.075 444.25C375.947 443.95 376.062 443.607 376.333 443.444L376.41 443.404L395.405 435.194Z" fill="#2A84C6"/>
<path d="M395.405 435.194C395.73 435.054 396.107 435.204 396.247 435.531C396.375 435.83 396.26 436.173 395.989 436.337L395.912 436.377L376.916 444.587C376.591 444.727 376.215 444.576 376.075 444.25C375.947 443.95 376.062 443.607 376.333 443.444L376.41 443.404L395.405 435.194Z" fill="white" fill-opacity="0.85"/>
<path fill-rule="evenodd" clip-rule="evenodd" d="M402.606 451.66L382.903 460.175L397.434 496.862L441.83 477.675L439.555 472.063C438.712 470.002 436.52 468.844 434.353 469.316L421.076 470.928L413.539 470.083C411.268 469.828 409.323 468.345 408.477 466.214C406.655 461.631 403.557 453.865 402.606 451.66Z" fill="#2A84C6"/>
<path fill-rule="evenodd" clip-rule="evenodd" d="M402.606 451.66L382.903 460.175L397.434 496.862L441.83 477.675L439.555 472.063C438.712 470.002 436.52 468.844 434.353 469.316L421.076 470.928L413.539 470.083C411.268 469.828 409.323 468.345 408.477 466.214C406.655 461.631 403.557 453.865 402.606 451.66Z" fill="black" fill-opacity="0.2"/>
<path fill-rule="evenodd" clip-rule="evenodd" d="M398.369 497.861L442.63 478.731C443.049 478.551 443.244 478.062 443.064 477.641L440.928 472.654C440.748 472.232 440.261 472.038 439.841 472.219L395.58 491.348C395.16 491.53 394.967 492.018 395.148 492.44L397.282 497.427C397.464 497.848 397.95 498.042 398.369 497.861Z" fill="#2A84C6"/>
<path fill-rule="evenodd" clip-rule="evenodd" d="M398.369 497.861L442.63 478.731C443.049 478.551 443.244 478.062 443.064 477.641L440.928 472.654C440.748 472.232 440.261 472.038 439.841 472.219L395.58 491.348C395.16 491.53 394.967 492.018 395.148 492.44L397.282 497.427C397.464 497.848 397.95 498.042 398.369 497.861Z" fill="white" fill-opacity="0.85"/>
<path fill-rule="evenodd" clip-rule="evenodd" d="M439.841 472.219C438.496 469.076 435.078 467.379 431.774 468.212L421.069 470.912L423.763 479.037L439.841 472.219Z" fill="#2A84C6"/>
<path fill-rule="evenodd" clip-rule="evenodd" d="M439.841 472.219C438.496 469.076 435.078 467.379 431.774 468.212L421.069 470.912L423.763 479.037L439.841 472.219Z" fill="white" fill-opacity="0.85"/>
<path d="M439.711 471.915C439.878 471.843 440.071 471.92 440.142 472.087C440.205 472.233 440.154 472.4 440.029 472.488L439.971 472.52L395.711 491.65C395.544 491.722 395.351 491.645 395.28 491.477C395.217 491.331 395.268 491.164 395.393 491.077L395.451 491.045L439.711 471.915Z" fill="#2A84C6"/>
<path d="M439.711 471.915C439.878 471.843 440.071 471.92 440.142 472.087C440.205 472.233 440.154 472.4 440.029 472.488L439.971 472.52L395.711 491.65C395.544 491.722 395.351 491.645 395.28 491.477C395.217 491.331 395.268 491.164 395.393 491.077L395.451 491.045L439.711 471.915Z" fill="white" fill-opacity="0.5"/>
<path d="M407.382 464.509C407.679 464.299 408.088 464.37 408.296 464.668C408.505 464.965 408.434 465.376 408.138 465.586L408.022 465.672C407.908 465.759 407.75 465.887 407.56 466.051C407.113 466.439 406.666 466.885 406.249 467.38C405.836 467.87 405.481 468.376 405.194 468.895L405.165 468.949L405.368 468.896C405.699 468.811 406.058 468.727 406.444 468.644L406.738 468.582C407.336 468.458 407.965 468.341 408.601 468.234L409.458 468.095L410.377 467.96C410.947 467.883 411.332 468.528 410.996 468.997L410.894 469.15C410.836 469.24 410.764 469.357 410.68 469.501C410.432 469.928 410.182 470.42 409.949 470.971C409.891 471.107 409.835 471.245 409.781 471.384L409.655 471.725L409.844 471.647C410.193 471.506 410.561 471.37 410.948 471.239L411.34 471.109C412.429 470.759 413.592 470.463 414.754 470.219C414.957 470.177 415.153 470.137 415.341 470.101L416.182 469.948C416.235 469.939 416.278 469.932 416.31 469.927C416.985 469.823 417.333 470.68 416.829 471.086L416.683 471.188C416.62 471.233 416.533 471.3 416.429 471.388C416.159 471.615 415.889 471.889 415.636 472.21C415.111 472.877 414.736 473.649 414.575 474.531C414.51 474.889 414.168 475.125 413.812 475.06C413.455 474.994 413.22 474.65 413.285 474.293C413.454 473.371 413.807 472.546 414.297 471.818L414.42 471.641L413.905 471.761C413.349 471.895 412.799 472.042 412.267 472.201L411.74 472.364C410.623 472.723 409.667 473.117 408.924 473.541C408.424 473.826 407.827 473.374 407.962 472.813C408.161 471.988 408.426 471.2 408.742 470.455C408.844 470.213 408.95 469.982 409.057 469.76L409.202 469.47L408.82 469.533C408.405 469.603 407.995 469.677 407.595 469.754L407.004 469.872L406.461 469.989C405.503 470.203 404.744 470.421 404.26 470.63C403.747 470.851 403.211 470.368 403.374 469.832C403.731 468.658 404.385 467.553 405.248 466.529C405.711 465.978 406.207 465.485 406.703 465.054L406.944 464.85C407.131 464.695 407.281 464.581 407.382 464.509Z" fill="#2A84C6"/>
<path d="M407.382 464.509C407.679 464.299 408.088 464.37 408.296 464.668C408.505 464.965 408.434 465.376 408.138 465.586L408.022 465.672C407.908 465.759 407.75 465.887 407.56 466.051C407.113 466.439 406.666 466.885 406.249 467.38C405.836 467.87 405.481 468.376 405.194 468.895L405.165 468.949L405.368 468.896C405.699 468.811 406.058 468.727 406.444 468.644L406.738 468.582C407.336 468.458 407.965 468.341 408.601 468.234L409.458 468.095L410.377 467.96C410.947 467.883 411.332 468.528 410.996 468.997L410.894 469.15C410.836 469.24 410.764 469.357 410.68 469.501C410.432 469.928 410.182 470.42 409.949 470.971C409.891 471.107 409.835 471.245 409.781 471.384L409.655 471.725L409.844 471.647C410.193 471.506 410.561 471.37 410.948 471.239L411.34 471.109C412.429 470.759 413.592 470.463 414.754 470.219C414.957 470.177 415.153 470.137 415.341 470.101L416.182 469.948C416.235 469.939 416.278 469.932 416.31 469.927C416.985 469.823 417.333 470.68 416.829 471.086L416.683 471.188C416.62 471.233 416.533 471.3 416.429 471.388C416.159 471.615 415.889 471.889 415.636 472.21C415.111 472.877 414.736 473.649 414.575 474.531C414.51 474.889 414.168 475.125 413.812 475.06C413.455 474.994 413.22 474.65 413.285 474.293C413.454 473.371 413.807 472.546 414.297 471.818L414.42 471.641L413.905 471.761C413.349 471.895 412.799 472.042 412.267 472.201L411.74 472.364C410.623 472.723 409.667 473.117 408.924 473.541C408.424 473.826 407.827 473.374 407.962 472.813C408.161 471.988 408.426 471.2 408.742 470.455C408.844 470.213 408.95 469.982 409.057 469.76L409.202 469.47L408.82 469.533C408.405 469.603 407.995 469.677 407.595 469.754L407.004 469.872L406.461 469.989C405.503 470.203 404.744 470.421 404.26 470.63C403.747 470.851 403.211 470.368 403.374 469.832C403.731 468.658 404.385 467.553 405.248 466.529C405.711 465.978 406.207 465.485 406.703 465.054L406.944 464.85C407.131 464.695 407.281 464.581 407.382 464.509Z" fill="white" fill-opacity="0.85"/>
<path d="M405.442 459.065C405.369 459.069 405.297 459.086 405.229 459.114L404.876 459.269L404.774 459.316C404.422 459.479 404.03 459.671 403.609 459.892C402.405 460.524 401.201 461.261 400.075 462.098C396.145 465.018 394.078 468.414 395.009 472.215C395.474 474.118 396.529 474.936 397.923 474.408C398.914 474.033 400.013 472.972 401.26 471.325C401.937 470.43 402.646 469.376 403.376 468.193C404.201 466.856 405.011 465.425 405.772 463.994L406.08 463.411C406.227 463.129 406.365 462.861 406.492 462.611L406.757 462.082L406.802 462.011C406.851 461.929 406.924 461.792 406.997 461.632C407.113 461.381 407.2 461.131 407.249 460.883C407.467 459.779 406.824 458.985 405.442 459.065ZM405.963 460.626C405.936 460.76 405.882 460.916 405.806 461.08L405.721 461.254C405.68 461.331 405.644 461.392 405.618 461.432L405.323 462.012C405.115 462.422 404.878 462.88 404.615 463.373C403.867 464.78 403.07 466.188 402.261 467.499C401.552 468.649 400.865 469.669 400.216 470.527C399.11 471.988 398.151 472.914 397.461 473.175C396.918 473.381 396.581 473.119 396.282 471.901C395.51 468.744 397.304 465.796 400.855 463.157C401.922 462.364 403.069 461.662 404.216 461.06C404.537 460.892 404.839 460.741 405.118 460.609L405.629 460.374L405.693 460.371C406.019 460.355 406.01 460.384 405.963 460.626Z" fill="#2A84C6"/>
<path d="M405.442 459.065C405.369 459.069 405.297 459.086 405.229 459.114L404.876 459.269L404.774 459.316C404.422 459.479 404.03 459.671 403.609 459.892C402.405 460.524 401.201 461.261 400.075 462.098C396.145 465.018 394.078 468.414 395.009 472.215C395.474 474.118 396.529 474.936 397.923 474.408C398.914 474.033 400.013 472.972 401.26 471.325C401.937 470.43 402.646 469.376 403.376 468.193C404.201 466.856 405.011 465.425 405.772 463.994L406.08 463.411C406.227 463.129 406.365 462.861 406.492 462.611L406.757 462.082L406.802 462.011C406.851 461.929 406.924 461.792 406.997 461.632C407.113 461.381 407.2 461.131 407.249 460.883C407.467 459.779 406.824 458.985 405.442 459.065ZM405.963 460.626C405.936 460.76 405.882 460.916 405.806 461.08L405.721 461.254C405.68 461.331 405.644 461.392 405.618 461.432L405.323 462.012C405.115 462.422 404.878 462.88 404.615 463.373C403.867 464.78 403.07 466.188 402.261 467.499C401.552 468.649 400.865 469.669 400.216 470.527C399.11 471.988 398.151 472.914 397.461 473.175C396.918 473.381 396.581 473.119 396.282 471.901C395.51 468.744 397.304 465.796 400.855 463.157C401.922 462.364 403.069 461.662 404.216 461.06C404.537 460.892 404.839 460.741 405.118 460.609L405.629 460.374L405.693 460.371C406.019 460.355 406.01 460.384 405.963 460.626Z" fill="white" fill-opacity="0.85"/>
<path fill-rule="evenodd" clip-rule="evenodd" d="M266.627 216.006C268.908 221.722 273.168 231.576 273.446 237.962C273.896 248.313 266.844 255.652 266.844 255.652C266.844 255.652 266.967 257.816 268.108 279.345C237.251 283.228 214.988 280.261 214.988 280.261L215.832 269.428L211.681 252.454C211.681 252.454 211.393 245.913 205.87 231.709C202.029 221.833 203.605 210.258 204.503 203.882C204.885 201.15 202.538 197.628 205.216 197.012C214.568 194.861 219.309 196.032 219.309 196.032L220.477 189.962C220.678 188.922 221.608 188.188 222.661 188.24L245.15 189.348C246.115 189.396 246.926 190.095 247.121 191.047L248.436 196.364L263.58 199.326C265.744 199.865 267.305 201.76 267.423 203.997L266.627 216.006Z" fill="#1443BD"/>
<path fill-rule="evenodd" clip-rule="evenodd" d="M266.627 216.006C268.908 221.722 273.168 231.576 273.446 237.962C273.896 248.313 266.844 255.652 266.844 255.652C266.844 255.652 266.967 257.816 268.108 279.345C237.251 283.228 214.988 280.261 214.988 280.261L215.832 269.428L211.681 252.454C211.681 252.454 211.393 245.913 205.87 231.709C202.029 221.833 203.605 210.258 204.503 203.882C204.885 201.15 202.538 197.628 205.216 197.012C214.568 194.861 219.309 196.032 219.309 196.032L220.477 189.962C220.678 188.922 221.608 188.188 222.661 188.24L245.15 189.348C246.115 189.396 246.926 190.095 247.121 191.047L248.436 196.364L263.58 199.326C265.744 199.865 267.305 201.76 267.423 203.997L266.627 216.006Z" fill="white" fill-opacity="0.35"/>
<path d="M225.612 196.275L245.862 197.273C246.075 197.283 246.239 197.465 246.229 197.679C246.22 197.869 246.075 198.021 245.894 198.045L245.824 198.048L225.574 197.05C225.361 197.039 225.197 196.857 225.208 196.643C225.217 196.453 225.361 196.301 225.543 196.277L225.612 196.275Z" fill="#2A84C6"/>
<path d="M225.612 196.275L245.862 197.273C246.075 197.283 246.239 197.465 246.229 197.679C246.22 197.869 246.075 198.021 245.894 198.045L245.824 198.048L225.574 197.05C225.361 197.039 225.197 196.857 225.208 196.643C225.217 196.453 225.361 196.301 225.543 196.277L225.612 196.275Z" fill="black" fill-opacity="0.2"/>
<path d="M218.841 194.296C219.042 194.152 219.312 194.179 219.481 194.349L219.533 194.411L239.586 222.538L249.115 197.691C249.203 197.461 249.444 197.334 249.678 197.383L249.755 197.406C249.985 197.495 250.111 197.737 250.062 197.972L250.039 198.049L240.181 223.758C240.049 224.103 239.61 224.181 239.365 223.928L239.316 223.869L218.727 194.99C218.568 194.767 218.619 194.456 218.841 194.296Z" fill="#2A84C6"/>
<path d="M218.841 194.296C219.042 194.152 219.312 194.179 219.481 194.349L219.533 194.411L239.586 222.538L249.115 197.691C249.203 197.461 249.444 197.334 249.678 197.383L249.755 197.406C249.985 197.495 250.111 197.737 250.062 197.972L250.039 198.049L240.181 223.758C240.049 224.103 239.61 224.181 239.365 223.928L239.316 223.869L218.727 194.99C218.568 194.767 218.619 194.456 218.841 194.296Z" fill="white" fill-opacity="0.85"/>
<path fill-rule="evenodd" clip-rule="evenodd" d="M245.744 225.985C247.804 229.9 246.559 234.622 242.964 236.53C239.368 238.44 234.784 236.813 232.723 232.898C230.665 228.983 231.908 224.261 235.503 222.353C239.099 220.443 243.684 222.07 245.744 225.985Z" fill="#2A84C6"/>
<path fill-rule="evenodd" clip-rule="evenodd" d="M245.744 225.985C247.804 229.9 246.559 234.622 242.964 236.53C239.368 238.44 234.784 236.813 232.723 232.898C230.665 228.983 231.908 224.261 235.503 222.353C239.099 220.443 243.684 222.07 245.744 225.985Z" fill="white" fill-opacity="0.85"/>
<path fill-rule="evenodd" clip-rule="evenodd" d="M246.552 226.005C248.611 229.921 247.367 234.642 243.772 236.551C240.176 238.46 235.592 236.834 233.531 232.918C231.471 229.003 232.716 224.281 236.311 222.373C239.907 220.464 244.492 222.09 246.552 226.005Z" fill="#2A84C6"/>
<path fill-rule="evenodd" clip-rule="evenodd" d="M246.552 226.005C248.611 229.921 247.367 234.642 243.772 236.551C240.176 238.46 235.592 236.834 233.531 232.918C231.471 229.003 232.716 224.281 236.311 222.373C239.907 220.464 244.492 222.09 246.552 226.005Z" fill="white" fill-opacity="0.85"/>
<path fill-rule="evenodd" clip-rule="evenodd" d="M245.093 226.599C246.693 229.639 245.726 233.304 242.935 234.787C240.144 236.269 236.583 235.006 234.985 231.966C233.385 228.927 234.351 225.26 237.143 223.778C239.935 222.297 243.495 223.56 245.093 226.599Z" fill="#F56D7E"/>
<path d="M201.413 203.268C201.625 203.284 201.784 203.471 201.768 203.685L201.674 205.005L201.603 206.078C201.557 206.813 201.511 207.586 201.467 208.388C201.365 210.246 201.284 212.072 201.232 213.81L201.208 214.671C201.118 218.277 201.167 221.167 201.388 223.069C201.61 224.98 202.689 228.149 204.419 232.21L204.588 232.606C204.954 233.457 205.343 234.336 205.753 235.238C206.722 237.373 207.762 239.541 208.801 241.629L209.326 242.677L210.185 244.358L210.218 244.443L216.559 269.474L216.569 269.609L215.548 279.847L216.713 279.953L217.584 280.025C218.634 280.108 219.802 280.191 221.08 280.27C235.175 281.135 250.972 280.923 266.623 278.89L267.499 278.774L267.488 277.979C267.451 276.313 267.322 273.056 267.121 268.638L266.939 264.709L266.54 256.519C266.536 256.44 266.556 256.362 266.597 256.295L266.87 255.837L267.145 255.363C267.289 255.113 267.44 254.844 267.598 254.558C268.351 253.195 269.105 251.719 269.808 250.184C270.763 248.099 271.548 246.071 272.104 244.165C272.616 242.412 272.92 240.807 272.99 239.381C273.169 235.716 272.835 232.86 271.923 229.918C271.442 228.366 270.799 226.765 269.853 224.72L269.455 223.873C268.985 222.89 268.103 221.083 267.38 219.605L266.227 217.254L266.188 217.08L266.26 210.718C266.262 210.504 266.437 210.332 266.65 210.335C266.84 210.337 266.996 210.476 267.027 210.657L267.032 210.727L266.961 216.996L269.921 223.059C270.082 223.392 270.217 223.674 270.316 223.882L270.359 223.975C271.425 226.25 272.135 227.993 272.66 229.687C273.6 232.718 273.945 235.666 273.761 239.419C273.688 240.912 273.373 242.576 272.846 244.383C272.278 246.329 271.479 248.391 270.509 250.509C269.899 251.84 269.252 253.127 268.6 254.336L268.273 254.935C268.113 255.224 267.96 255.497 267.815 255.75L267.415 256.436L267.316 256.599L267.461 259.496C267.545 261.211 267.63 262.956 267.711 264.673L268.11 273.611C268.234 276.664 268.291 278.596 268.264 279.134C268.255 279.321 268.115 279.474 267.93 279.499C251.83 281.688 235.536 281.935 221.033 281.044L219.961 280.976C218.915 280.906 217.952 280.834 217.077 280.762L215.69 280.64L215.085 280.581C214.897 280.561 214.755 280.408 214.74 280.226L214.741 280.156L215.793 269.6L209.48 244.679L209.118 243.976C208.814 243.381 208.475 242.71 208.11 241.976C207.067 239.88 206.024 237.704 205.05 235.56C204.741 234.88 204.444 234.213 204.159 233.561L203.879 232.914C202.021 228.594 200.861 225.232 200.62 223.159C200.394 221.211 200.345 218.291 200.436 214.651C200.478 212.938 200.551 211.126 200.646 209.274L200.695 208.345C200.739 207.541 200.786 206.765 200.833 206.028L200.998 203.625C201.014 203.411 201.2 203.251 201.413 203.268Z" fill="#2A84C6"/>
<path d="M201.413 203.268C201.625 203.284 201.784 203.471 201.768 203.685L201.674 205.005L201.603 206.078C201.557 206.813 201.511 207.586 201.467 208.388C201.365 210.246 201.284 212.072 201.232 213.81L201.208 214.671C201.118 218.277 201.167 221.167 201.388 223.069C201.61 224.98 202.689 228.149 204.419 232.21L204.588 232.606C204.954 233.457 205.343 234.336 205.753 235.238C206.722 237.373 207.762 239.541 208.801 241.629L209.326 242.677L210.185 244.358L210.218 244.443L216.559 269.474L216.569 269.609L215.548 279.847L216.713 279.953L217.584 280.025C218.634 280.108 219.802 280.191 221.08 280.27C235.175 281.135 250.972 280.923 266.623 278.89L267.499 278.774L267.488 277.979C267.451 276.313 267.322 273.056 267.121 268.638L266.939 264.709L266.54 256.519C266.536 256.44 266.556 256.362 266.597 256.295L266.87 255.837L267.145 255.363C267.289 255.113 267.44 254.844 267.598 254.558C268.351 253.195 269.105 251.719 269.808 250.184C270.763 248.099 271.548 246.071 272.104 244.165C272.616 242.412 272.92 240.807 272.99 239.381C273.169 235.716 272.835 232.86 271.923 229.918C271.442 228.366 270.799 226.765 269.853 224.72L269.455 223.873C268.985 222.89 268.103 221.083 267.38 219.605L266.227 217.254L266.188 217.08L266.26 210.718C266.262 210.504 266.437 210.332 266.65 210.335C266.84 210.337 266.996 210.476 267.027 210.657L267.032 210.727L266.961 216.996L269.921 223.059C270.082 223.392 270.217 223.674 270.316 223.882L270.359 223.975C271.425 226.25 272.135 227.993 272.66 229.687C273.6 232.718 273.945 235.666 273.761 239.419C273.688 240.912 273.373 242.576 272.846 244.383C272.278 246.329 271.479 248.391 270.509 250.509C269.899 251.84 269.252 253.127 268.6 254.336L268.273 254.935C268.113 255.224 267.96 255.497 267.815 255.75L267.415 256.436L267.316 256.599L267.461 259.496C267.545 261.211 267.63 262.956 267.711 264.673L268.11 273.611C268.234 276.664 268.291 278.596 268.264 279.134C268.255 279.321 268.115 279.474 267.93 279.499C251.83 281.688 235.536 281.935 221.033 281.044L219.961 280.976C218.915 280.906 217.952 280.834 217.077 280.762L215.69 280.64L215.085 280.581C214.897 280.561 214.755 280.408 214.74 280.226L214.741 280.156L215.793 269.6L209.48 244.679L209.118 243.976C208.814 243.381 208.475 242.71 208.11 241.976C207.067 239.88 206.024 237.704 205.05 235.56C204.741 234.88 204.444 234.213 204.159 233.561L203.879 232.914C202.021 228.594 200.861 225.232 200.62 223.159C200.394 221.211 200.345 218.291 200.436 214.651C200.478 212.938 200.551 211.126 200.646 209.274L200.695 208.345C200.739 207.541 200.786 206.765 200.833 206.028L200.998 203.625C201.014 203.411 201.2 203.251 201.413 203.268Z" fill="black" fill-opacity="0.2"/>
<path fill-rule="evenodd" clip-rule="evenodd" d="M269.164 285.658L267.196 278.886C267.196 278.886 242.046 280.726 218.409 280.717C217.265 283.486 217.04 288.734 217.04 288.734C218.941 287 243.039 290.558 269.164 285.658Z" fill="#2A84C6"/>
<path fill-rule="evenodd" clip-rule="evenodd" d="M269.164 285.658L267.196 278.886C267.196 278.886 242.046 280.726 218.409 280.717C217.265 283.486 217.04 288.734 217.04 288.734C218.941 287 243.039 290.558 269.164 285.658Z" fill="black" fill-opacity="0.2"/>
<path fill-rule="evenodd" clip-rule="evenodd" d="M347.651 317.158L276.998 296.979L270.159 285.986L217.288 288.067C217.288 288.067 183.32 351.416 223.527 365.281C255.456 374.109 264.325 375.015 264.325 375.015L276.878 392.361L333.95 364.762L375.649 338.409L347.651 317.158Z" fill="#2A84C6"/>
<path fill-rule="evenodd" clip-rule="evenodd" d="M347.651 317.158L276.998 296.979L270.159 285.986L217.288 288.067C217.288 288.067 183.32 351.416 223.527 365.281C255.456 374.109 264.325 375.015 264.325 375.015L276.878 392.361L333.95 364.762L375.649 338.409L347.651 317.158Z" fill="black" fill-opacity="0.2"/>
<path d="M242.609 290.181C242.801 290.058 243.048 290.094 243.197 290.255L243.248 290.321L251.584 303.4L311.227 341.047C311.284 341.083 311.332 341.131 311.369 341.188L311.401 341.247L322.06 364.743C322.166 364.976 322.063 365.251 321.831 365.357C321.622 365.453 321.379 365.379 321.256 365.194L321.219 365.128L310.618 341.76L251.004 304.131C250.966 304.107 250.931 304.077 250.901 304.043L250.861 303.988L242.469 290.822C242.332 290.606 242.395 290.319 242.609 290.181Z" fill="#1443BD"/>
<path d="M242.609 290.181C242.801 290.058 243.048 290.094 243.197 290.255L243.248 290.321L251.584 303.4L311.227 341.047C311.284 341.083 311.332 341.131 311.369 341.188L311.401 341.247L322.06 364.743C322.166 364.976 322.063 365.251 321.831 365.357C321.622 365.453 321.379 365.379 321.256 365.194L321.219 365.128L310.618 341.76L251.004 304.131C250.966 304.107 250.931 304.077 250.901 304.043L250.861 303.988L242.469 290.822C242.332 290.606 242.395 290.319 242.609 290.181Z" fill="black" fill-opacity="0.5"/>
<path d="M232.372 292.545C232.602 292.529 232.803 292.684 232.854 292.901L232.866 292.976L234.142 311.4L256.162 348.137L277.293 392.16C277.404 392.391 277.308 392.668 277.078 392.78C276.871 392.88 276.627 392.811 276.499 392.628L276.461 392.563L255.35 348.578L233.292 311.782C233.267 311.74 233.249 311.695 233.238 311.647L233.227 311.575L231.944 293.04C231.926 292.785 232.118 292.563 232.372 292.545Z" fill="#1443BD"/>
<path d="M232.372 292.545C232.602 292.529 232.803 292.684 232.854 292.901L232.866 292.976L234.142 311.4L256.162 348.137L277.293 392.16C277.404 392.391 277.308 392.668 277.078 392.78C276.871 392.88 276.627 392.811 276.499 392.628L276.461 392.563L255.35 348.578L233.292 311.782C233.267 311.74 233.249 311.695 233.238 311.647L233.227 311.575L231.944 293.04C231.926 292.785 232.118 292.563 232.372 292.545Z" fill="black" fill-opacity="0.5"/>
<path d="M223.201 293.703L223.275 293.711C223.501 293.756 223.656 293.958 223.648 294.181L223.64 294.256L218.667 319.713L241.035 366.902C241.134 367.11 241.064 367.356 240.881 367.483L240.816 367.521C240.609 367.62 240.365 367.55 240.238 367.367L240.2 367.301L217.768 319.975C217.736 319.908 217.721 319.834 217.723 319.76L217.732 319.686L222.733 294.078C222.777 293.851 222.978 293.696 223.201 293.703Z" fill="#1443BD"/>
<path d="M223.201 293.703L223.275 293.711C223.501 293.756 223.656 293.958 223.648 294.181L223.64 294.256L218.667 319.713L241.035 366.902C241.134 367.11 241.064 367.356 240.881 367.483L240.816 367.521C240.609 367.62 240.365 367.55 240.238 367.367L240.2 367.301L217.768 319.975C217.736 319.908 217.721 319.834 217.723 319.76L217.732 319.686L222.733 294.078C222.777 293.851 222.978 293.696 223.201 293.703Z" fill="black" fill-opacity="0.5"/>
<path d="M269.683 285.293C269.817 285.288 269.946 285.341 270.037 285.436L270.087 285.499L277.97 297.264L347.775 316.711L347.93 316.788L375.927 338.039C376.164 338.219 376.169 338.565 375.958 338.755L375.895 338.803L334.196 365.155C333.98 365.292 333.695 365.227 333.559 365.01C333.438 364.817 333.476 364.569 333.637 364.42L333.704 364.369L374.836 338.374L347.442 317.581L277.559 298.114C277.48 298.092 277.408 298.049 277.351 297.99L277.3 297.926L269.464 286.232L217.308 288.531C217.079 288.541 216.881 288.381 216.835 288.163L216.826 288.088C216.816 287.857 216.975 287.659 217.193 287.613L217.267 287.604L269.683 285.293Z" fill="#1443BD"/>
<path d="M269.683 285.293C269.817 285.288 269.946 285.341 270.037 285.436L270.087 285.499L277.97 297.264L347.775 316.711L347.93 316.788L375.927 338.039C376.164 338.219 376.169 338.565 375.958 338.755L375.895 338.803L334.196 365.155C333.98 365.292 333.695 365.227 333.559 365.01C333.438 364.817 333.476 364.569 333.637 364.42L333.704 364.369L374.836 338.374L347.442 317.581L277.559 298.114C277.48 298.092 277.408 298.049 277.351 297.99L277.3 297.926L269.464 286.232L217.308 288.531C217.079 288.541 216.881 288.381 216.835 288.163L216.826 288.088C216.816 287.857 216.975 287.659 217.193 287.613L217.267 287.604L269.683 285.293Z" fill="black" fill-opacity="0.5"/>
<path d="M242.853 307.121C243.046 307.002 243.293 307.042 243.439 307.206L243.489 307.274L253.719 324.021L276.304 344.733C276.472 344.887 276.501 345.136 276.385 345.322L276.334 345.389C276.181 345.557 275.933 345.586 275.748 345.469L275.681 345.419L253.048 324.664L252.966 324.564L242.701 307.759C242.567 307.541 242.636 307.255 242.853 307.121Z" fill="#1443BD"/>
<path d="M242.853 307.121C243.046 307.002 243.293 307.042 243.439 307.206L243.489 307.274L253.719 324.021L276.304 344.733C276.472 344.887 276.501 345.136 276.385 345.322L276.334 345.389C276.181 345.557 275.933 345.586 275.748 345.469L275.681 345.419L253.048 324.664L252.966 324.564L242.701 307.759C242.567 307.541 242.636 307.255 242.853 307.121Z" fill="black" fill-opacity="0.5"/>
<path d="M280.143 314.169C280.217 313.951 280.438 313.825 280.657 313.862L280.73 313.881L316.541 326.236L345.947 342.315C346.172 342.437 346.254 342.719 346.132 342.945C346.022 343.147 345.784 343.235 345.574 343.161L345.505 343.13L316.17 327.083L280.43 314.759C280.188 314.676 280.06 314.412 280.143 314.169Z" fill="#1443BD"/>
<path d="M280.143 314.169C280.217 313.951 280.438 313.825 280.657 313.862L280.73 313.881L316.541 326.236L345.947 342.315C346.172 342.437 346.254 342.719 346.132 342.945C346.022 343.147 345.784 343.235 345.574 343.161L345.505 343.13L316.17 327.083L280.43 314.759C280.188 314.676 280.06 314.412 280.143 314.169Z" fill="black" fill-opacity="0.5"/>
<path fill-rule="evenodd" clip-rule="evenodd" d="M327.336 203.257C330.791 205.087 332.338 209.06 330.851 212.272L303.473 272.932C300.629 278.534 292.53 283.467 285.832 278.57C279.649 275.292 277.108 268.035 280.209 262.509L318.103 205.175C319.992 202.317 323.995 201.486 327.336 203.257Z" fill="#FFC999"/>
<path fill-rule="evenodd" clip-rule="evenodd" d="M214.837 349.064C218.659 348.088 221.113 344.547 220.408 341.027L206.781 273.071C205.303 266.873 198.55 263.225 191.765 264.957C184.921 266.705 180.72 273.242 182.468 279.427L206.368 348.988C207.552 352.253 211.14 350.008 214.837 349.064Z" fill="#FFC999"/>
<path fill-rule="evenodd" clip-rule="evenodd" d="M191.219 284.858L192.581 285.133C199.292 286.495 205.833 282.133 207.187 275.39L219.426 214.502C220.78 207.76 216.438 201.191 209.725 199.83L208.365 199.553C201.653 198.192 195.113 202.554 193.759 209.296L181.521 270.184C180.165 276.927 184.508 283.496 191.219 284.858Z" fill="#FFC999"/>
<path fill-rule="evenodd" clip-rule="evenodd" d="M188.648 234.722L194.297 206.614C195.66 199.838 202.616 195.478 209.755 196.926C216.894 198.374 221.619 205.103 220.258 211.88L214.663 239.721L188.648 234.722Z" fill="#1443BD"/>
<path fill-rule="evenodd" clip-rule="evenodd" d="M188.648 234.722L194.297 206.614C195.66 199.838 202.616 195.478 209.755 196.926C216.894 198.374 221.619 205.103 220.258 211.88L214.663 239.721L188.648 234.722Z" fill="white" fill-opacity="0.35"/>
<path d="M188.526 233.502L214.874 239.584C215.078 239.631 215.205 239.834 215.158 240.039C215.116 240.22 214.952 240.341 214.773 240.333L214.705 240.324L188.357 234.241C188.154 234.194 188.027 233.991 188.074 233.787C188.115 233.605 188.28 233.484 188.459 233.492L188.526 233.502Z" fill="#2A84C6"/>
<path d="M188.526 233.502L214.874 239.584C215.078 239.631 215.205 239.834 215.158 240.039C215.116 240.22 214.952 240.341 214.773 240.333L214.705 240.324L188.357 234.241C188.154 234.194 188.027 233.991 188.074 233.787C188.115 233.605 188.28 233.484 188.459 233.492L188.526 233.502Z" fill="black" fill-opacity="0.2"/>
<path fill-rule="evenodd" clip-rule="evenodd" d="M238.883 365.455C241.109 364.602 237.159 354.724 235.929 352.702C234.289 350.005 219.19 341.62 219.19 341.62L216.538 329.703L202.63 335.399C202.63 335.399 204.769 348.544 208.688 355.321C211.613 360.377 216.588 359.294 223.661 365.99C226.935 369.089 231.033 372.369 232.702 369.896C233.031 369.408 236.436 370.305 235.998 367.282C235.998 367.282 237.156 368.189 238.246 367.273C239.193 366.476 238.883 365.455 238.883 365.455Z" fill="#FFC999"/>
<path d="M220.659 358.23C220.772 357.99 221.058 357.887 221.297 358L221.568 358.135L221.667 358.186C221.955 358.337 222.275 358.513 222.619 358.716C223.602 359.293 224.586 359.959 225.505 360.708C226.34 361.387 227.082 362.103 227.707 362.853L233.178 369.423C233.348 369.627 233.321 369.931 233.118 370.101C232.915 370.272 232.613 370.245 232.443 370.041L226.972 363.471C226.389 362.771 225.691 362.098 224.902 361.456C224.023 360.74 223.08 360.101 222.136 359.547C221.888 359.401 221.654 359.27 221.437 359.153L220.985 358.918C220.944 358.898 220.912 358.882 220.888 358.871C220.649 358.757 220.547 358.471 220.659 358.23Z" fill="#DD936F"/>
<path d="M224.403 353.896C224.566 353.687 224.867 353.65 225.076 353.814L225.391 354.069L225.783 354.396C225.921 354.512 226.064 354.635 226.212 354.764C227.061 355.502 227.909 356.297 228.703 357.12C229.61 358.061 230.388 358.979 230.995 359.856L231.474 360.542C231.641 360.779 231.816 361.024 231.997 361.277L232.566 362.069C233.024 362.701 233.502 363.353 233.988 364.009L235.379 365.874L236.056 366.769C236.217 366.98 236.177 367.282 235.967 367.443C235.757 367.605 235.457 367.565 235.296 367.354L234.412 366.184L234.2 365.902C233.543 365.025 232.886 364.138 232.257 363.276L231.496 362.227L230.95 361.462C230.687 361.092 230.439 360.739 230.208 360.406C229.634 359.577 228.889 358.696 228.014 357.79C227.242 356.989 226.414 356.213 225.585 355.492L225.166 355.133L224.572 354.641C224.536 354.612 224.506 354.589 224.485 354.572C224.277 354.408 224.24 354.106 224.403 353.896Z" fill="#DD936F"/>
<path d="M227.746 350.92C227.895 350.7 228.193 350.643 228.412 350.792L228.727 351.016C228.973 351.194 229.246 351.401 229.541 351.633C230.381 352.295 231.222 353.029 232.008 353.817C233.531 355.343 234.665 356.882 235.248 358.393C235.531 359.127 235.845 359.848 236.185 360.552C236.731 361.682 237.316 362.716 237.9 363.63C238.104 363.95 238.293 364.231 238.463 364.472L238.67 364.758C238.831 364.969 238.791 365.271 238.58 365.433C238.37 365.595 238.069 365.554 237.909 365.343L237.741 365.114L237.68 365.027C237.503 364.775 237.306 364.482 237.094 364.15C236.49 363.205 235.886 362.138 235.323 360.972C234.972 360.245 234.647 359.5 234.354 358.741C233.828 357.377 232.768 355.939 231.331 354.499C230.574 353.74 229.762 353.031 228.949 352.39L228.539 352.073C228.474 352.024 228.41 351.976 228.347 351.929L227.911 351.614C227.897 351.604 227.884 351.596 227.874 351.589C227.655 351.44 227.598 351.14 227.746 350.92Z" fill="#DD936F"/>
<path fill-rule="evenodd" clip-rule="evenodd" d="M316.695 204.685L320.385 184.903C320.385 184.903 330.614 162.126 335.175 163.029C339.466 164.447 330.742 171.521 329.476 177.801C333.369 177.145 332.145 183.173 332.145 183.173C332.145 183.173 335.256 182.759 334.871 187.613C337.931 189.059 336.129 194.759 336.129 194.759C336.129 194.759 334.541 205.892 329.007 216.135C329.007 216.135 317.506 221.762 316.695 204.685Z" fill="#FFC999"/>
<path fill-rule="evenodd" clip-rule="evenodd" d="M316.228 203.088C316.228 203.088 316.479 193.852 316.874 189.12C317.267 184.389 314.515 176.177 318.103 178.079C320.514 179.358 320.595 184.392 320.862 188.085C321.132 191.776 327.885 199.942 324.044 206.411C321.45 210.782 316.797 211.77 316.228 203.088Z" fill="#FFC999"/>
<path d="M329.099 177.503C329.262 177.294 329.564 177.258 329.772 177.422C329.98 177.586 330.016 177.888 329.853 178.098L329.669 178.339L329.308 178.829C329.266 178.888 329.222 178.949 329.177 179.012C328.667 179.726 328.158 180.49 327.683 181.27C327.214 182.04 326.805 182.785 326.472 183.489C325.234 186.105 325.216 187.718 326.585 188.143C326.838 188.222 326.979 188.492 326.901 188.745C326.823 188.999 326.554 189.142 326.302 189.063C324.121 188.385 324.146 186.162 325.606 183.075C325.955 182.338 326.38 181.565 326.865 180.768C327.353 179.966 327.876 179.183 328.398 178.451L328.663 178.085L329.074 177.536C329.083 177.524 329.092 177.513 329.099 177.503Z" fill="#DD936F"/>
<path d="M332.142 183.057C332.322 183.252 332.311 183.556 332.117 183.737L331.915 183.931L331.657 184.186C331.566 184.276 331.471 184.372 331.373 184.472C330.811 185.047 330.25 185.66 329.727 186.286C329.215 186.9 328.768 187.493 328.404 188.051C327.244 189.835 327.092 190.968 327.999 191.414C328.191 191.508 328.388 191.554 328.595 191.555C329.332 191.558 330.203 190.996 331.091 190.039C331.415 189.69 331.717 189.314 331.989 188.938L332.195 188.643C332.251 188.559 332.295 188.492 332.324 188.445C332.464 188.219 332.759 188.149 332.984 188.29C333.209 188.43 333.278 188.727 333.138 188.952L333.049 189.091C332.978 189.2 332.882 189.339 332.765 189.502C332.472 189.909 332.145 190.315 331.792 190.696C330.738 191.832 329.667 192.523 328.591 192.518C328.241 192.516 327.901 192.438 327.577 192.279C325.932 191.469 326.164 189.735 327.602 187.525C327.988 186.931 328.458 186.308 328.993 185.668C329.533 185.02 330.111 184.389 330.69 183.798L331.119 183.367L331.465 183.033C331.659 182.852 331.962 182.863 332.142 183.057Z" fill="#DD936F"/>
<path d="M333.739 187.594C333.996 187.528 334.257 187.684 334.322 187.941C334.388 188.199 334.234 188.461 333.977 188.527C333.36 188.686 332.614 189.331 331.761 190.558C329.972 193.133 329.701 194.703 330.329 194.995C330.98 195.298 332.386 194.484 333.202 193.035C333.495 192.514 334.282 192.891 334.065 193.447C332.915 196.392 331.411 198.303 329.29 199.909C329.004 200.126 328.709 200.336 328.374 200.564L326.99 201.479C324.186 203.333 323.131 204.752 322.79 208.072C322.762 208.337 322.527 208.529 322.264 208.501C322 208.474 321.809 208.238 321.836 207.973C322.202 204.422 323.376 202.762 326.228 200.832L327.584 199.938L328.07 199.606C328.299 199.447 328.509 199.295 328.713 199.14C329.953 198.201 330.963 197.158 331.809 195.831L331.919 195.653L331.827 195.702C331.198 196.014 330.566 196.108 330.044 195.917L329.926 195.868C328.506 195.207 328.885 193.017 330.976 190.007C331.947 188.609 332.858 187.822 333.739 187.594Z" fill="#DD936F"/>
<path d="M320.442 182.995C320.677 182.953 320.902 183.09 320.979 183.308L320.999 183.384L322.224 190.235L322.291 190.331C322.397 190.481 322.514 190.654 322.639 190.849C322.997 191.403 323.354 192.021 323.688 192.686C324.649 194.601 325.227 196.522 325.228 198.339C325.228 199.365 325.04 200.329 324.643 201.214C324.534 201.456 324.25 201.564 324.009 201.455C323.768 201.346 323.66 201.061 323.769 200.818C324.108 200.063 324.27 199.234 324.269 198.339C324.269 196.696 323.731 194.911 322.832 193.119C322.578 192.613 322.31 192.136 322.039 191.696L321.835 191.372C321.632 191.058 321.476 190.836 321.39 190.721C321.359 190.681 321.336 190.636 321.319 190.589L321.3 190.516L320.055 183.554C320.009 183.292 320.182 183.042 320.442 182.995Z" fill="#DD936F"/>
<path d="M267.178 278.422C267.433 278.413 267.648 278.613 267.658 278.869C267.666 279.099 267.505 279.297 267.287 279.341L267.213 279.35L218.426 281.181C218.171 281.191 217.956 280.991 217.947 280.735C217.938 280.504 218.099 280.307 218.317 280.262L218.391 280.254L267.178 278.422Z" fill="#1443BD"/>
<path d="M267.178 278.422C267.433 278.413 267.648 278.613 267.658 278.869C267.666 279.099 267.505 279.297 267.287 279.341L267.213 279.35L218.426 281.181C218.171 281.191 217.956 280.991 217.947 280.735C217.938 280.504 218.099 280.307 218.317 280.262L218.391 280.254L267.178 278.422Z" fill="black" fill-opacity="0.5"/>
</svg>
